<?xml version="1.0" encoding="UTF-8"?>
<svg width="68px" height="36px" viewBox="0 0 68 36" version="1.1" xmlns="http://www.w3.org/2000/svg" xmlns:xlink="http://www.w3.org/1999/xlink">
    <!-- Generator: Sketch 53.1 (72631) - https://sketchapp.com -->
    <title>Page 1</title>
    <desc>Created with Sketch.</desc>
    <defs>
        <polygon id="path-1" points="0 0.107024607 67.8887104 0.107024607 67.8887104 22.6644222 0 22.6644222"></polygon>
    </defs>
    <g id="Desktop" stroke="none" stroke-width="1" fill="none" fill-rule="evenodd">
        <g id="02" transform="translate(-125.000000, -5516.000000)">
            <g id="Group" transform="translate(33.000000, 5227.000000)">
                <g id="Page-1" transform="translate(92.000000, 289.000000)">
                    <g id="Group-3">
                        <mask id="mask-2" fill="white">
                            <use xlink:href="#path-1"></use>
                        </mask>
                        <g id="Clip-2"></g>
                        <path d="M33.5139955,2.71891369 C32.5780178,2.66045079 31.7280809,2.58668216 30.8766301,2.5627199 C30.4276282,2.55004875 29.9744631,2.66433996 29.5263443,2.64690145 C29.147361,2.63209754 28.7726672,2.5097771 28.3958286,2.43613392 C28.3347673,2.42421552 28.2692905,2.40138237 28.2112571,2.41217166 C25.5491644,2.90596988 22.8662553,2.59220226 20.1923035,2.62017914 C18.8570308,2.63423031 17.5216319,2.65806711 16.1863592,2.66070171 C12.822567,2.66697455 9.45877477,2.66220719 6.09498256,2.66571998 C5.34067458,2.66659818 4.58497885,2.65856894 3.83231095,2.69896605 C3.12581744,2.73697948 3.09490835,3.01499189 2.9147525,3.68957345 C2.64893432,4.68482275 2.99789165,5.64394047 2.84750946,6.62877685 C2.71907904,7.46933783 2.89519777,8.35280507 2.90112727,9.21757923 C2.91462635,11.2070742 2.91714954,13.1970709 2.90377662,15.1865659 C2.89494545,16.4989701 2.84687866,17.810998 2.82442226,19.1232768 C2.81647421,19.5944928 3.36943154,20.0790072 3.93033692,20.0887928 C5.52461521,20.1171461 7.11876735,20.1523995 8.71304564,20.1523995 C9.76181002,20.152274 10.8103221,20.0668379 11.8589603,20.0694725 C16.8433981,20.0816418 21.827836,20.1196552 26.8124,20.1311972 C29.6882071,20.137721 32.5638879,20.1101205 35.439695,20.1003349 C36.2776468,20.0974493 36.5459881,20.4398211 36.439131,21.2608108 C36.4019139,21.5458488 36.5054909,21.8492035 36.5448527,22.1442781 C36.6147451,22.1377543 36.6846375,22.131356 36.754656,22.1249577 C36.754656,21.7224921 36.7445633,21.3197756 36.7569269,20.9178118 C36.7762293,20.2833764 37.1150939,20.1259281 37.7322664,20.2012022 C38.6186635,20.3092205 39.5239844,20.3172498 40.4189603,20.2920329 C41.9095354,20.2500049 43.3978397,20.0930584 44.8876579,20.0816418 C48.5180252,20.0536649 52.1487711,20.0849037 55.7792646,20.08528 C58.4248304,20.0856564 61.0705224,20.0823945 63.7160883,20.0643287 C64.5927711,20.0583068 64.8288156,19.745041 64.7545076,18.8916834 C64.682092,18.0586499 64.4242219,17.2050414 64.9441254,16.4095194 C64.9926968,16.3353744 64.9672126,16.2032683 64.9543443,16.1008955 C64.5537878,12.910402 64.6824705,9.70686099 64.7003852,6.50545275 C64.7061885,5.48674302 64.6767933,4.46677872 64.6288527,3.44907264 C64.6031161,2.90308437 64.1348119,2.64702691 63.5728972,2.64803057 C61.8059065,2.65104153 60.0387896,2.58216571 58.2716727,2.57714744 C57.0566301,2.5737601 55.8415874,2.64514506 54.6264186,2.65668709 C52.6771273,2.6752547 50.7273314,2.67663473 48.7779139,2.6770111 C45.0428341,2.67751293 41.3076282,2.67199283 37.5725484,2.66948369 C36.4040586,2.66873095 35.2355688,2.66935823 34.0841106,2.66935823 C33.9281774,1.80709321 33.786374,1.02236053 33.6221143,0.113801921 L34.6257135,0.113801921 C45.1990197,0.113927378 55.7724519,0.119071109 66.3457581,0.10702725 C67.4264408,0.105647225 67.9322145,0.644609911 67.8404965,1.72516988 C67.7674501,2.58492576 67.842515,3.45660005 67.8403703,4.32287969 C67.8362071,6.1123964 67.8103443,7.9019131 67.8191755,9.6914298 C67.830656,12.0079908 67.8793536,14.3245518 67.8884371,16.6411128 C67.8939881,18.0538825 67.8127414,19.4680323 67.8478137,20.8796729 C67.8813722,22.2392489 67.271643,22.3465145 66.3018545,22.5630531 C65.9465892,22.6423418 65.5303889,22.4372199 65.1395466,22.3783806 C64.9770531,22.354042 64.7953833,22.3322125 64.6438657,22.3786315 C63.3119993,22.7863663 61.9671384,22.5703296 60.621016,22.5059702 C60.0023295,22.4762369 59.3726672,22.6265343 58.7577655,22.5761006 C57.920823,22.5077266 57.0927117,22.3722332 56.250092,22.6644222 C56.1627896,22.4232941 56.1043777,22.2613293 56.0095058,21.9987481 C55.7713165,22.2072574 55.5922961,22.3640785 55.4131495,22.5208996 C55.4011644,22.4777424 55.3893054,22.4344598 55.3773202,22.3913026 C55.0580104,22.4544074 54.7402145,22.5591639 54.4187599,22.5717096 C53.7012905,22.599812 52.9818026,22.5935391 52.2634501,22.5801152 C50.8919696,22.5543966 49.5208675,22.5136231 48.1496393,22.4806279 C47.9325187,22.4753587 47.7151458,22.4737278 47.4980252,22.4769897 C46.3916059,22.4944282 45.2853128,22.5242869 44.1787673,22.5288034 C43.4923332,22.5316889 42.8056468,22.4909154 42.1189603,22.4812552 C41.4827377,22.4725987 40.8463889,22.478997 40.2100401,22.4794988 C39.5058174,22.4801261 38.7734612,22.3614439 38.1054464,22.5162577 C37.4272126,22.6733297 36.8054983,22.3918045 36.1135132,22.5382126 C35.2621885,22.7183687 34.3298694,22.4998228 33.4319918,22.4867753 C31.974849,22.4656986 30.5170753,22.4527765 29.0600586,22.4710932 C27.3994204,22.491919 25.739413,22.5689496 24.0789009,22.5833771 C23.5018471,22.5885208 22.924541,22.4463782 22.3459733,22.4316998 C21.6459139,22.4138849 20.943836,22.451271 20.2435243,22.4813807 C19.7170605,22.5039629 19.1912275,22.5860117 18.6662776,22.5766024 C18.3774983,22.5714587 18.0911161,22.4318252 17.7940104,22.3501528 C17.3744037,22.4255524 16.9039547,22.6004392 16.443977,22.5761006 C14.906092,22.4950555 13.3727488,22.3300797 11.8353685,22.2317215 C11.6101737,22.2174194 11.3729937,22.3899226 11.1909455,22.4575439 C10.9372386,22.4841407 10.7133054,22.506472 10.4896245,22.531438 C10.3267525,22.5496292 10.1613573,22.6019447 10.0022701,22.5863881 C9.40175065,22.5276743 8.8048898,22.4117521 8.20361336,22.3865353 C7.74048163,22.366964 7.27343896,22.4766133 6.80740557,22.4842662 C5.95052987,22.4983173 5.09289722,22.4654476 4.23589536,22.4784952 C3.48019963,22.4900372 2.71592505,22.4749824 1.97196215,22.5838789 C0.914114286,22.7386927 -0.0391473098,21.9912207 0.00122374768,20.9776547 C0.0812089054,18.9729795 0.0877692022,16.9647915 0.0920586271,14.9579835 C0.0949602968,13.5759507 0.0159844156,12.1936669 0.0225447124,10.811885 C0.0311235622,9.05297982 0.110730241,7.29445096 0.118173655,5.53567119 C0.122967718,4.37745343 0.0532014842,3.21911021 0.0191384045,2.06064153 C0.0129565863,1.85175585 0.00727940631,1.64211743 0.0191384045,1.43360813 C0.0675836735,0.577992316 0.556451948,0.117941997 1.42543896,0.117941997 C11.8204816,0.118192911 22.2153981,0.121078419 32.6104408,0.118318368 C32.9869009,0.118192911 33.3470865,0.149682584 33.236066,0.636204301 C33.1062479,1.20502572 33.1610011,1.7155097 33.450285,2.21771352 C33.5071829,2.31669899 33.4847265,2.46097438 33.5139955,2.71891369" id="Fill-1" fill="#61AAFF" mask="url(#mask-2)"></path>
                    </g>
                    <path d="M22.390178,10.2099179 C22.6745362,10.2099179 22.9608455,10.2328379 23.242765,10.2051267 C23.8053846,10.1498339 24.3380076,9.97709252 24.5941983,9.38479928 C24.8986762,8.68075503 24.7438156,7.98888298 24.3856852,7.35515251 C24.3130104,7.22630866 24.0892551,7.14459965 23.9279318,7.12983764 C23.2216698,7.06548046 22.5132129,7.01225953 21.8046341,6.99568464 C20.9372927,6.97522502 20.8903467,7.05266082 20.97363,7.99807686 C20.9961885,8.2551171 20.9972859,8.51461769 21.0032608,8.77321183 C21.0395982,10.3678973 20.817672,10.2042203 22.390178,10.2099179 M18.8305785,14.7830329 C18.8305785,14.3245042 18.8622822,14.0186457 18.8241158,13.7228876 C18.7392473,13.0655897 18.9831223,12.5151222 19.2686999,11.9721651 C19.467458,11.5945684 19.6301227,11.2554307 19.0884763,11.0074549 C18.9560522,10.9467234 18.8424064,10.662231 18.8424064,10.4806842 C18.8428942,9.08088318 18.8417967,7.67952824 18.9058139,6.28205804 C18.9480043,5.35671316 19.8079075,4.96461348 20.5395325,5.48231973 C21.2064087,5.95418605 21.7589075,5.88581464 22.2879943,5.29740614 C22.4167603,5.15431824 22.6244199,4.9643545 22.7701352,4.98636802 C23.6708875,5.1222044 24.6146838,4.92537761 25.4710508,5.4305232 C26.4984962,6.03667202 26.8633332,7.06314961 26.9596638,8.17871723 C27.0917222,9.70723263 26.61202,10.9704203 25.1810835,11.6300491 C24.7608868,11.8236386 24.9040415,12.0099766 25.1185295,12.2966703 C25.9727017,13.4383952 26.7031073,14.6563904 27.0357528,16.0991826 C27.2098796,16.8545054 26.9511282,17.5137456 26.39363,17.6907602 C25.9385592,17.8352725 25.3033868,17.3323283 25.0209795,16.7658038 C24.380198,15.4795667 23.6980796,14.2152135 22.9896227,12.9696366 C22.8367131,12.7008127 22.5268699,12.4936266 22.2471453,12.3527401 C21.3869982,11.9199801 21.0252096,12.1881566 21.0076506,13.1711251 C20.9869212,14.3392662 20.9802147,15.5129754 20.8540093,16.6703687 C20.8146235,17.0313905 20.46637,17.4471871 20.1521371,17.6576105 C19.781569,17.9058453 19.6298788,17.3804991 19.3692983,17.2065922 C18.3197823,16.5065622 19.0857937,15.4597545 18.8305785,14.7830329" id="Fill-4" fill="#61AAFF"></path>
                    <path d="M9.89142479,13.575197 C9.86134203,13.5780658 9.83125927,13.5810649 9.8011765,13.584064 C9.8011765,14.233961 9.77815771,14.8854227 9.81749671,15.5325813 C9.82711832,15.6912741 10.0359926,15.962108 10.1593684,15.9658895 C10.8444516,15.9875353 11.5367205,15.991056 12.2164448,15.9079933 C12.9771611,15.8150205 13.4220694,15.1426953 13.6123093,14.4954063 C14.0468652,13.0152738 13.984142,11.4572944 13.7675949,9.93713013 C13.6931796,9.41410911 13.421095,8.84662283 13.0810502,8.45882315 C12.2711297,7.5348324 11.1597725,7.71817011 10.1145488,7.76094021 C10.0048137,7.7655041 9.81749671,7.94388673 9.80848406,8.05485429 C9.73065861,9.01718167 9.63225022,9.98329055 9.64625637,10.9466611 C9.65904458,11.8239698 9.8044649,12.6990619 9.89142479,13.575197 M7.80962454,13.1441057 C8.02373586,13.1318484 8.21178357,13.1572757 8.37315872,13.098858 C8.48045797,13.0599998 8.61954507,12.9009159 8.6190579,12.796077 C8.61857073,12.6552486 8.52868782,12.4687813 8.42077961,12.3850667 C8.24308426,12.2472374 7.8511558,12.1858206 7.84567513,12.0753746 C7.82180379,11.5949933 7.89195631,11.1066578 7.95662816,10.6257549 C7.97830723,10.4639326 8.08487573,10.3151501 8.16355372,10.1357242 C8.25185333,10.1551533 8.33187104,10.1588045 8.40044025,10.1907516 C8.55889238,10.2649473 8.71162025,10.3528347 8.86678397,10.4352454 C8.90466146,10.2353473 9.02718477,9.98837601 8.95898094,9.84728683 C8.87421332,9.67216411 8.64463434,9.52351191 8.45354181,9.47748189 C8.28315402,9.43666773 8.08024761,9.5512864 7.7398374,9.63408828 C7.81279114,8.48255535 7.84263032,7.43273181 7.96052552,6.39425278 C8.01874236,5.88257628 8.37072287,5.55423748 8.89637956,5.55684541 C10.0890941,5.56271326 11.2902124,5.48525764 12.472331,5.61030804 C14.1775486,5.79090742 15.1140116,7.02133034 15.6139701,8.66915297 C15.8478118,9.43966686 15.7958064,10.2894619 15.9252719,11.0487617 C16.1044287,12.0992372 16.047917,13.0693884 15.838921,14.0369316 C15.4641652,15.7718592 14.9030669,17.4471956 13.0755695,18.0172898 C12.472331,18.2055825 11.806491,18.1753305 11.167689,18.2164055 C10.5614057,18.2552637 9.95293004,18.252395 9.34567232,18.2753448 C8.41956168,18.3102911 7.83239975,17.7634075 7.81473982,16.7846501 C7.79318254,15.5800457 7.80962454,14.3747894 7.80962454,13.1441057" id="Fill-6" fill="#61AAFF"></path>
                    <path d="M35.362709,8.00352742 C34.8915037,8.25281029 33.6995069,11.9170102 33.889447,12.5107684 C34.3174419,12.5107684 34.7458344,12.5221346 35.1732991,12.5077976 C35.6907633,12.4903608 36.2072996,12.4512246 36.7241011,12.4213882 C36.6032181,11.9172685 36.3960468,11.4145695 36.3858407,10.9082541 C36.375502,10.3974179 35.5795562,9.82510064 36.4575487,9.35779213 C36.3865034,9.23198823 36.3439558,9.04780307 36.2359298,8.99717152 C36.1330732,8.94886489 35.9614246,9.0401825 35.7995845,9.07453962 C35.6511316,8.7105608 35.5163312,8.38003496 35.362709,8.00352742 M36.8623478,9.08823081 C37.1076926,9.15035778 37.3229493,9.28068235 37.4472785,9.22333437 C38.0266423,8.95609797 38.3336215,9.26957441 38.5039447,9.70601317 C38.9930438,10.9579815 39.4729971,12.2165371 39.8674575,13.498471 C39.9662052,13.8196972 39.8124505,14.2857141 39.6242335,14.5991905 C39.4512594,14.8874803 39.0264457,15.1181639 39.3970476,15.4402942 C39.6130995,15.628225 40.0283698,15.5987761 40.3774991,15.6026509 C40.8288223,15.9260728 41.0846383,16.3781402 40.7736826,16.9495534 C40.4824765,17.4850595 39.9851594,17.9164609 39.3941315,17.6335959 C38.9438688,17.4180244 38.607464,16.8980177 38.3260663,16.4503418 C38.0915904,16.0774508 37.952946,15.6224127 37.8768639,15.1863615 C37.7891177,14.683275 37.4967186,14.5594086 37.0497695,14.5604419 C35.7071991,14.5632834 34.3646287,14.561346 32.9431927,14.561346 C32.7034148,15.2654087 32.4794101,15.9663714 32.2254497,16.6570012 C31.8853336,17.5819311 30.991568,18.1443029 30.1147684,17.2529552 C29.780882,16.9135172 29.7666995,16.5569006 30.0751368,16.2505281 C30.5857085,15.7431793 30.8192566,15.2652795 30.7748533,14.4666702 C30.7274014,13.6139419 31.14466,12.7233692 31.4251298,11.8699951 C31.7672341,10.8288194 32.1711054,9.80650129 32.5650356,8.78224577 C32.6523842,8.55517878 32.8476262,8.36621462 32.9275521,8.13772685 C33.092971,7.66499353 33.2447375,7.18360635 33.3474616,6.69485693 C33.5806121,5.58729184 33.8466343,5.3270302 35.0320038,5.14013262 C35.1177618,5.1265706 35.1983505,5.08317213 35.2829156,5.05953547 C36.3704652,4.75652116 37.1082228,5.39987762 36.9428039,6.49801387 C36.9266332,6.60534759 36.9332605,6.75620893 36.9979436,6.82879804 C38.0833725,8.04589259 38.0856258,8.07534155 36.8623478,9.08823081" id="Fill-8" fill="#61AAFF"></path>
                    <path d="M44.0043605,17.7230769 C43.6217174,17.5444434 43.2424907,17.3836733 42.8812321,17.1878237 C42.791645,17.1391525 42.7109154,16.9778646 42.7100297,16.8675778 C42.689531,14.6812592 42.6815592,12.4946816 42.6709302,10.308363 C43.2552708,9.71641298 42.8783218,9.19112695 42.6775101,8.55697804 C42.4792291,7.93111358 42.6098136,7.19146735 42.6291736,6.50256339 C42.6329696,6.36871771 42.7903797,6.24095593 42.8722481,6.1072397 C42.9519654,5.97675958 43.0891298,5.84343168 43.0909013,5.70971545 C43.1000119,5.05666763 43.2061751,4.96191421 43.891744,5.10637435 C43.9017403,5.22598112 43.9156592,5.35218957 43.9218594,5.47865691 C43.9269208,5.58247144 43.9228717,5.68667432 43.9228717,5.79721997 C44.268693,5.76265827 44.5755414,5.73185047 44.8790999,5.70156044 C45.099398,5.01537482 45.2444076,4.85434578 46.4014475,5.08048543 C47.1468677,5.22598112 47.8318039,5.09485378 48.5409084,5.05770319 C48.9998524,5.0336265 49.3312486,5.10961046 49.5976057,5.55218142 C49.873959,6.01119183 49.7577995,6.39059385 49.4877729,6.73219804 C49.3545311,6.90086431 49.0796962,7.02733165 48.8624349,7.03859332 C47.7067869,7.09826727 46.5491143,7.13567674 45.392201,7.13710064 C44.9517312,7.13761841 44.7853371,7.27560632 44.8111503,7.73008617 C44.8441761,8.30973892 44.8520213,8.8935339 44.8277265,9.47370443 C44.8069747,9.96727654 45.0184154,10.1081122 45.4688815,10.0960739 C46.2970558,10.07368 47.1297854,10.0511566 47.953784,10.1175617 C48.2935316,10.1448745 48.6986981,10.3227313 48.9254495,10.5730771 C49.220024,10.8985007 48.4481579,12.1884158 47.989467,12.1938525 C47.1678725,12.2033019 46.3455188,12.2152108 45.5248101,12.1875097 C45.0310689,12.1706819 44.7953334,12.2796742 44.8327879,12.8681292 C44.8846674,13.6811705 44.8630299,14.5036612 44.80824,15.3174792 C44.7788838,15.7531896 45.0695357,16.3195095 44.4474875,16.5905664 C44.6035057,17.1023902 44.284763,17.4143516 44.0043605,17.7230769" id="Fill-10" fill="#61AAFF"></path>
                    <path d="M59.8968293,7.87283822 C59.2753347,7.87283822 58.6533455,7.88897824 58.032469,7.86873707 C57.2260219,7.84267491 57.131444,7.92985747 57.1179681,8.76001014 C57.0903984,10.4701908 57.0367424,12.1799745 57.0282118,13.8898906 C57.0232665,14.8541906 57.1377491,15.8211366 57.0963327,16.7818647 C57.0772934,17.2250538 56.9149655,17.7722269 56.6297481,18.056794 C56.3965794,18.289369 55.8554451,18.3231043 55.5038376,18.225735 C55.0745897,18.1066693 54.88803,17.6899392 54.8761614,17.1438245 C54.8563804,16.248318 54.9194324,15.4365543 55.528193,14.7275841 C55.7171016,14.5075771 55.813905,14.0548628 55.308871,13.9126454 C54.9418096,13.8093228 54.8829611,13.5283277 54.8869173,13.1573718 C54.9022476,11.6804277 54.8900081,10.2030867 54.8901318,8.72601027 C54.8901318,7.86728182 54.8807358,7.85590443 54.051046,7.85537525 C53.4948287,7.85497837 52.9250119,7.93223879 52.3877102,7.82455046 C52.0623126,7.7593289 51.670154,7.47357117 51.5188293,7.16757227 C51.3229973,6.7716126 51.3877801,6.35435339 51.8454632,5.98763097 C52.740554,5.27032615 53.6611128,5.60503312 54.5914385,5.69565536 C54.8619438,5.72211441 55.1347981,5.73415328 55.4065398,5.73230114 C55.7365118,5.72991983 56.0663601,5.70438685 56.3963321,5.69155421 C56.8306489,5.67448812 57.2650894,5.6472353 57.6995299,5.64776448 C58.3686226,5.64842596 59.0493366,5.59193589 59.7033463,5.70425455 C60.275512,5.80268222 60.3933327,6.28807347 60.118253,6.8523127 C60.0033995,7.08779823 59.9368859,7.3504043 59.8483658,7.60057461 C59.8645615,7.69132915 59.8806336,7.78208369 59.8968293,7.87283822" id="Fill-12" fill="#61AAFF"></path>
                    <path d="M34.8472393,27.6923077 L36.3426446,27.6923077 C36.3426446,27.9635479 36.3410976,28.1992355 36.3428826,28.4351649 C36.3551401,30.0240304 36.3662074,31.6130169 36.381916,33.2020033 C36.3869142,33.7003453 36.6290875,34.0368863 37.0947505,34.1936083 C37.5529162,34.3479117 37.9082624,34.1511627 38.2004175,33.8130496 C38.6648904,33.2752853 38.8439916,32.6311049 38.8438726,31.9264608 C38.8436346,30.5399068 38.8437536,29.1534738 38.8437536,27.711777 L40.3577236,27.711777 L40.3577236,35.2835272 L39.1741089,35.2835272 C39.118177,34.8861597 39.060222,34.4759738 38.9871535,33.9580416 C38.5781364,34.6848155 38.1198517,35.2324958 37.3310926,35.3984083 C36.120226,35.6530814 34.9095974,34.8643927 34.8654469,33.6179937 C34.7965435,31.671062 34.8472393,29.719777 34.8472393,27.6923077" id="Fill-14" fill="#61AAFF"></path>
                    <path d="M23.6468017,35.4461538 L22.1445447,35.4461538 C22.1337049,35.2124336 22.11556,34.9997191 22.1153244,34.7867633 C22.1132035,32.7354332 22.1139105,30.6842238 22.1140283,28.632773 C22.1141461,27.8078707 22.1144996,27.806905 22.9039209,27.8218746 C23.0400077,27.8242891 23.175741,27.8399831 23.347882,27.8522969 C23.3953651,28.3316891 23.4421413,28.8032342 23.501289,29.4002109 C23.6903966,29.0784833 23.8102237,28.8600949 23.9433649,28.6507607 C24.4642651,27.8314118 25.2102093,27.5397443 26.1873244,27.7667041 C26.9197188,27.9368032 27.594026,28.6440002 27.6152343,29.4868902 C27.6648383,31.4529897 27.6310228,33.4212622 27.6310228,35.4296148 L26.1535089,35.4296148 C26.1431404,35.2216085 26.1236994,35.0094977 26.1233459,34.7973869 C26.1201647,33.2488693 26.1187508,31.7003517 26.1213429,30.1518341 C26.1222855,29.5590827 25.9620448,29.0845195 25.3301542,28.9203358 C24.852142,28.7962323 24.3076769,29.0435943 24.0581255,29.6415368 C23.848163,30.1448321 23.6862727,30.7058333 23.6649466,31.2480015 C23.6105119,32.6290759 23.6468017,34.0138928 23.6468017,35.4461538" id="Fill-16" fill="#61AAFF"></path>
                    <path d="M15.8687516,31.047175 L18.425734,31.047175 C18.4545629,30.3444487 18.5802715,29.5905413 17.8717995,29.2417752 C17.4882398,29.0528866 16.8875358,29.0440186 16.495315,29.2169448 C15.7703871,29.5361931 15.8671431,30.3002353 15.8687516,31.047175 M19.902439,31.9025577 L15.9467008,31.9025577 C15.9467008,32.5734859 15.8983228,33.1839849 15.9606822,33.7824488 C16.0189586,34.3404999 16.5712846,34.6938267 17.1966107,34.680778 C17.8390114,34.6672227 18.3210593,34.2625881 18.4077933,33.6518357 C18.4341476,33.4654809 18.4317968,33.2749454 18.4454069,33.0372827 L19.7800711,33.0372827 C19.9768001,34.5020243 19.2164857,35.6410567 17.8586843,35.9190054 C16.2186571,36.2547228 14.6959249,35.5285596 14.5079806,34.079147 C14.3209025,32.6367021 14.3410703,31.1356017 14.4982061,29.6861891 C14.6350503,28.4218645 15.9428653,27.6129754 17.2684972,27.6984884 C18.7616581,27.795023 19.6304828,28.5918769 19.7873711,30.0417962 C19.8501017,30.6213839 19.8611136,31.2067991 19.902439,31.9025577" id="Fill-18" fill="#61AAFF"></path>
                    <path d="M51.6640139,31.042026 C51.7132734,30.2653962 51.7894814,29.4849755 51.0057173,29.1798078 C50.6060014,29.024128 49.9928278,29.0756843 49.6161749,29.2872167 C48.9773062,29.6459626 49.0340862,30.3577679 49.1060326,31.042026 L51.6640139,31.042026 Z M53.0613276,31.8780467 C51.9281097,31.8780467 50.8263527,31.9038248 49.7268519,31.8668003 C49.2045514,31.8492358 48.9994918,32.0138874 49.0673018,32.5401912 C49.1046538,32.8303217 49.069182,33.1305612 49.1122997,33.4191754 C49.2472931,34.3249486 49.6531508,34.6922872 50.4478196,34.6630972 C51.2149132,34.6350445 51.61676,34.1873388 51.6767988,33.2953392 C51.6823139,33.2137084 51.6953495,33.1324567 51.7093878,33.0135487 L53.0041716,33.0135487 C53.3315651,34.7355035 52.0555826,36.1098324 50.2436374,35.9930726 C48.5294589,35.8825046 47.5292291,34.8254743 47.5448968,33.0892404 C47.5550495,31.9587929 47.5115558,30.81116 47.6880375,29.7028261 C47.8974841,28.3887725 49.1664474,27.5863646 50.534807,27.7036299 C52.0851634,27.8365642 52.9590484,28.6657612 53.0556872,30.1349891 C53.0914097,30.6773411 53.0613276,31.2239894 53.0613276,31.8780467 L53.0613276,31.8780467 Z" id="Fill-20" fill="#61AAFF"></path>
                    <path d="M60.1550909,30.1705247 L58.9355956,30.1705247 C58.5456143,29.1364398 58.2407404,28.906137 57.2179378,29.080003 C56.9077684,29.1326436 56.5274957,29.4120439 56.3904411,29.6918239 C56.1981613,30.0837183 56.427258,30.4818131 56.8414476,30.6722558 C57.5429853,30.9946798 58.2744051,31.2547195 58.9637125,31.6006799 C60.2601198,32.251222 60.6376187,33.7118733 59.8528649,34.901729 C59.2031482,35.8863367 57.6040105,36.2808885 56.2624647,35.787509 C55.143207,35.3757478 54.6242406,34.5183128 54.7501997,33.2440549 L55.9795297,33.2440549 C56.0457244,33.9657126 56.2847818,34.5724719 57.1334608,34.7109066 C57.8455896,34.8269438 58.4979541,34.5905671 58.6904861,34.0787128 C58.917061,33.4758762 58.6375303,32.9431428 57.8771109,32.591235 C57.4795645,32.4073724 57.0623488,32.2664068 56.6535808,32.1072195 C55.2402926,31.556897 54.6145321,30.6383431 54.8949454,29.5247911 C55.1974236,28.3243061 56.3946019,27.5684826 57.7706951,27.7090686 C59.1278754,27.8477564 59.7986483,28.3046924 60.0631749,29.306383 C60.1310087,29.5632592 60.1224349,29.8407615 60.1550909,30.1705247" id="Fill-22" fill="#61AAFF"></path>
                    <path d="M7.18699187,27.7890418 C7.31544211,27.7479983 7.35236553,27.7277194 7.39049168,27.7252908 C8.6755954,27.6388323 8.68401442,27.636768 9.01055224,28.8892019 C9.3696837,30.2668305 9.71041359,31.6495593 10.0625693,33.0292523 C10.1011765,33.1807975 10.1619138,33.3267569 10.2309497,33.5294244 C10.6801648,31.7545966 11.1293798,30.0484986 11.5352969,28.3320789 C11.6484727,27.8538857 11.8392237,27.6332465 12.3409974,27.7058619 C12.6104062,27.745084 12.890038,27.7129049 13.2682927,27.7129049 C12.9872176,28.6390551 12.7327226,29.4752253 12.4796708,30.3117598 C12.0036352,31.8851344 11.5142494,33.4546232 11.0635911,35.0354051 C10.9658102,35.3785676 10.7786673,35.4696404 10.504568,35.4003036 C10.1390621,35.3077736 9.60240955,35.7063084 9.41670996,35.1105705 C8.65971953,32.6815968 7.93159431,30.2435159 7.18699187,27.7890418" id="Fill-24" fill="#61AAFF"></path>
                    <path d="M29.8536585,28.9732557 L29.8536585,27.5983297 C30.2583319,27.5788586 30.6267428,27.5611332 31.0177295,27.5424678 C31.10634,27.0081548 31.0278887,26.3539269 31.331817,25.9854537 C31.601176,25.6588769 32.2956678,25.6501485 32.8847583,25.4769231 L32.8847583,27.5525391 L34.2764228,27.5525391 L34.2764228,28.9853412 L32.8793965,28.9853412 C33.0602861,31.326838 32.4992744,33.6487295 33.4196665,35.9895549 C32.8891324,35.9895549 32.3831495,36.0221857 31.8863381,35.972098 C31.7085527,35.9542384 31.4516105,35.763019 31.4058943,35.6048334 C31.2516725,35.0722661 31.0988617,34.5208991 31.0853162,33.9735606 C31.0446795,32.3465849 31.0706418,30.7181321 31.0706418,29.0522143 C30.637043,29.0240148 30.2728652,29.0003809 29.8536585,28.9732557" id="Fill-26" fill="#61AAFF"></path>
                    <path d="M46.9918699,27.7962417 L46.9918699,29.1909288 C46.6128216,29.1909288 46.2499683,29.1761278 45.8892092,29.1938404 C44.7978571,29.2470996 44.39312,29.6148185 44.388094,30.5642637 C44.3805549,31.9590721 44.3859998,33.3538805 44.3859998,34.7485677 C44.3858602,34.9674277 44.3859998,35.1862878 44.3859998,35.4461538 L42.606497,35.4461538 C42.5940714,35.2327531 42.5713146,35.0188671 42.5710354,34.8049811 C42.5682431,32.7432803 42.5692204,30.6815795 42.5694996,28.6197573 C42.5694996,27.7866574 42.5699185,27.7855656 43.5042063,27.8003665 C43.6644816,27.8030355 43.8244777,27.8189284 44.0217504,27.8310603 C44.0879268,28.2348111 44.1525675,28.628371 44.2191627,29.0336989 C45.6119385,27.6028586 45.6831409,27.5705877 46.9918699,27.7962417" id="Fill-28" fill="#61AAFF"></path>
                </g>
            </g>
        </g>
    </g>
</svg>