<?xml version="1.0" encoding="UTF-8"?>
<svg width="88px" height="21px" viewBox="0 0 88 21" version="1.1" xmlns="http://www.w3.org/2000/svg" xmlns:xlink="http://www.w3.org/1999/xlink">
    <!-- Generator: Sketch 53.1 (72631) - https://sketchapp.com -->
    <title>IronChain_logo</title>
    <desc>Created with Sketch.</desc>
    <defs>
        <linearGradient x1="50.0105909%" y1="99.3456872%" x2="50.0105909%" y2="0.781165446%" id="linearGradient-1">
            <stop stop-color="#61AAFF" offset="6%"></stop>
            <stop stop-color="#1C86FF" offset="100%"></stop>
        </linearGradient>
    </defs>
    <g id="Symbols" stroke="none" stroke-width="1" fill="none" fill-rule="evenodd">
        <g id="Header_mobile" fill-rule="nonzero">
            <g id="Header">
                <g id="IronChain_logo">
                    <path d="M87.0492605,3.06157895 L84.4205788,0.494605263 C84.2766889,0.355484015 84.0826134,0.277096331 83.8801286,0.276315789 L82.3804502,0.276315789 C82.3225974,0.275974279 82.2703608,0.310063811 82.2485525,0.362391885 C82.2267443,0.414719959 82.239759,0.474741914 82.2814148,0.513947368 L85.9598714,4.10605263 C86.1039856,4.24561972 86.185049,4.43561331 86.185049,4.63381579 C86.185049,4.83201827 86.1039856,5.02201186 85.9598714,5.16157895 L83.8037299,7.26710526 C83.6608077,7.40783639 83.4662468,7.4869969 83.2632797,7.4869969 C83.0603126,7.4869969 82.8657517,7.40783639 82.7228296,7.26710526 L79.1405788,3.76894737 C79.031654,3.66893692 78.8618508,3.66893692 78.752926,3.76894737 L78.0596785,4.44592105 C77.9590254,4.55190285 77.9590254,4.71572873 78.0596785,4.82171053 L81.6589068,8.33644737 C82.0837252,8.75322808 82.6610931,8.98753638 83.2632797,8.98753638 C83.8654664,8.98753638 84.4428343,8.75322808 84.8676527,8.33644737 L87.0549196,6.20052632 C87.4827127,5.784727 87.7227426,5.21931102 87.72168,4.62990145 C87.7206174,4.04049187 87.4785502,3.47590474 87.0492605,3.06157895 L87.0492605,3.06157895 Z M76.2430868,5.15605263 C76.0989726,5.01648554 76.0179092,4.82649195 76.0179092,4.62828947 C76.0179092,4.430087 76.0989726,4.2400934 76.2430868,4.10052632 L78.3992283,1.995 C78.5421505,1.85426887 78.7367114,1.77510836 78.9396785,1.77510836 C79.1426456,1.77510836 79.3372064,1.85426887 79.4801286,1.995 L83.0538907,5.49315789 C83.1628154,5.59316834 83.3326186,5.59316834 83.4415434,5.49315789 L84.134791,4.81618421 C84.2354441,4.71020242 84.2354441,4.54637653 84.134791,4.44039474 L80.5355627,0.925657895 C80.1107443,0.508877187 79.5333764,0.274568888 78.9311897,0.274568888 C78.3290031,0.274568888 77.7516351,0.508877187 77.3268167,0.925657895 L75.1395498,3.06157895 C74.7127501,3.47642481 74.4728092,4.04023909 74.4728092,4.62828947 C74.4728092,5.21633985 74.7127501,5.78015413 75.1395498,6.195 L77.7682315,8.76197368 C77.9121214,8.90109493 78.1061969,8.97948262 78.3086817,8.98026316 L79.8083601,8.98026316 C79.8662128,8.98060467 79.9184495,8.94651514 79.9402578,8.89418706 C79.962066,8.84185899 79.9490513,8.78183703 79.9073955,8.74263158 L76.2430868,5.15605263 Z" id="Shape" fill="url(#linearGradient-1)"></path>
                    <path d="M76.2459164,4.09223684 L78.3992283,1.98947368 C78.6973107,1.69966169 79.1792166,1.69966169 79.477299,1.98947368 L78.3963987,0.933947368 C78.0973478,0.643815191 77.6145493,0.643815191 77.3154984,0.933947368 L75.1621865,3.03671053 C74.8650798,3.32874123 74.8650798,3.80020614 75.1621865,4.09223684 L76.2459164,5.14776316 C76.1018022,5.00819607 76.0207387,4.81820248 76.0207387,4.62 C76.0207387,4.42179752 76.1018022,4.23180393 76.2459164,4.09223684 L76.2459164,4.09223684 Z" id="Shape" fill="#1F40FF" opacity="0.46"></path>
                    <path d="M85.9542122,5.15605263 L83.8009003,7.25881579 C83.6579782,7.39954692 83.4634173,7.47870743 83.2604502,7.47870743 C83.0574831,7.47870743 82.8629222,7.39954692 82.72,7.25881579 L83.8009003,8.31710526 C84.0999512,8.60723744 84.5827498,8.60723744 84.8818006,8.31710526 L87.0351125,6.21157895 C87.1792267,6.07201186 87.2602902,5.88201827 87.2602902,5.68381579 C87.2602902,5.48561331 87.1792267,5.29561972 87.0351125,5.15605263 L85.9542122,4.10052632 C86.2513189,4.39255702 86.2513189,4.86402193 85.9542122,5.15605263 L85.9542122,5.15605263 Z" id="Shape" fill="#1F40FF" opacity="0.46"></path>
                    <path d="M8.0303537,16.6867105 L10.992926,20.4446053 C11.0271683,20.4855122 11.0339152,20.5421334 11.0102064,20.5896252 C10.9864975,20.6371171 10.9366644,20.6668031 10.8825723,20.6656579 L8.97543408,20.6656579 C8.90064546,20.6655266 8.83075022,20.629331 8.78868167,20.5689474 L6.01286174,16.5734211 C5.9871036,16.5357976 5.9733204,16.491573 5.97324759,16.4463158 L5.97324759,16.1092105 C5.96929744,16.0760448 5.97948892,16.0427522 6.00143069,16.0171447 C6.02337246,15.9915372 6.05513316,15.9758688 6.08926045,15.9738158 C6.93813505,15.9268421 8.06996785,15.4046053 8.06996785,14.4513158 C8.06996785,13.1194737 6.81080386,12.9122368 5.54598071,12.9122368 L5.54598071,19.4222368 C5.54445579,19.7822888 5.57379724,20.1418335 5.63369775,20.4971053 C5.63947094,20.5369636 5.62715502,20.5772985 5.59997118,20.6075606 C5.57278734,20.6378227 5.5334394,20.655002 5.49221865,20.6546053 L3.72938907,20.6546053 C3.69212914,20.655348 3.65613178,20.6414118 3.62951472,20.6159394 C3.60289766,20.590467 3.58790221,20.5556034 3.58790997,20.5192105 C3.58790997,19.5161842 3.58790997,13.3128947 3.58790997,12.9619737 C3.58072266,12.6823208 3.54181414,12.4043074 3.47189711,12.1330263 C3.46254246,12.0916944 3.47270916,12.0484454 3.49958661,12.0152356 C3.52646405,11.9820257 3.56720503,11.962373 3.61054662,11.9617105 L6.28167203,11.9617105 C7.93131833,11.9617105 9.99974277,12.3347368 9.99974277,14.4485526 C9.99974277,16.1838158 8.29916399,16.5678947 8.0303537,16.6867105 Z" id="Shape" fill="#000000"></path>
                    <path d="M1.89299035,20.6711842 L0.232025723,20.6711842 C0.155451709,20.6711842 0.0933762058,20.6105659 0.0933762058,20.5357895 C0.0933762058,19.5217105 0.0933762058,13.1360526 0.0933762058,11.3123684 C0.0947502328,11.3059909 0.0947502328,11.2994039 0.0933762058,11.2930263 C0.0777933026,11.0762307 0.050401912,10.8603989 0.011318328,10.6464474 C-0.000267121605,10.6053523 0.00864072761,10.5613289 0.0353612116,10.5276251 C0.0620816957,10.4939214 0.103494911,10.4744726 0.147138264,10.4751316 L1.84488746,10.4751316 C1.88479941,10.4748381 1.92290492,10.4913552 1.94945534,10.5204571 C1.97600576,10.549559 1.98842542,10.5884226 1.98353698,10.6271053 C1.98353698,10.6878947 1.98353698,10.7625 1.98353698,10.8343421 C1.98353698,11.0056579 1.98353698,11.1576316 1.98353698,11.3317105 L1.98353698,19.5355263 C1.9816053,19.7663014 1.993889,19.996981 2.02032154,20.2263158 C2.02032154,20.2953947 2.04578778,20.4142105 2.06276527,20.5026316 C2.07686145,20.5497257 2.06376416,20.6005817 2.02853104,20.6355612 C1.99329792,20.6705406 1.94144295,20.6841692 1.89299035,20.6711842 Z" id="Shape" fill="#000000"></path>
                    <path d="M61.8320257,20.6711842 L60.1710611,20.6711842 C60.0940162,20.6711993 60.0311229,20.6110107 60.029582,20.5357895 L60.029582,13.1028947 C60.029582,12.9260526 60.029582,12.7519737 60.0041158,12.5751316 C60.0041158,12.4535526 59.9729904,12.2794737 59.9390354,12.1275 C59.9305375,12.0868464 59.9411999,12.0446156 59.9680759,12.0124788 C59.9949519,11.9803419 60.0351955,11.9617021 60.0776849,11.9617105 L61.7754341,11.9617105 C61.815346,11.9614171 61.8534515,11.9779341 61.880002,12.007036 C61.9065524,12.0361379 61.918972,12.0750015 61.9140836,12.1136842 C61.9140836,12.1910526 61.9140836,12.285 61.9140836,12.3678947 C61.9140836,12.5392105 61.9140836,12.6939474 61.9140836,12.8652632 L61.9140836,19.53 C61.912621,19.7606929 61.9239559,19.9912939 61.9480386,20.2207895 C61.9480386,20.2898684 61.9763344,20.4086842 61.9933119,20.4971053 C62.0086185,20.5432016 61.9975299,20.5937717 61.9642364,20.6297059 C61.9309429,20.6656401 61.8805216,20.6814588 61.8320257,20.6711842 L61.8320257,20.6711842 Z" id="Shape" fill="#000000"></path>
                    <path d="M22.9648875,14.7635526 L22.9648875,19.0298684 C22.9571366,19.524241 22.9883542,20.0184631 23.0582637,20.5081579 C23.0640369,20.5480162 23.0517209,20.5883511 23.0245371,20.6186133 C22.9973533,20.6488754 22.9580053,20.6660546 22.9167846,20.6656579 L21.6519614,20.6656579 C21.6147015,20.6664006 21.5787041,20.6524644 21.5520871,20.626992 C21.52547,20.6015196 21.5104746,20.566656 21.5104823,20.5302632 L21.5104823,13.1084211 C21.514276,12.7833198 21.4801003,12.4588561 21.4086174,12.1413158 C21.3950554,12.0992066 21.4029155,12.053304 21.4297685,12.0177941 C21.4566216,11.9822843 21.4992343,11.9614427 21.5444373,11.9617105 L22.7413505,11.9617105 C22.80628,11.9616511 22.8681096,11.9888213 22.9111254,12.0363158 L28.004373,17.5626316 L28.004373,12.9343421 C28.0126279,12.6642515 27.9811826,12.3944004 27.9109968,12.1330263 C27.8995489,12.0924017 27.9081211,12.0488882 27.9341868,12.0153109 C27.9602524,11.9817336 28.0008401,11.9619202 28.0439871,11.9617105 L29.3823794,11.9617105 C29.4222914,11.9614171 29.4603969,11.9779341 29.4869473,12.007036 C29.5134977,12.0361379 29.5259174,12.0750015 29.5210289,12.1136842 C29.4884313,12.3685951 29.4695415,12.6249997 29.4644373,12.8818421 L29.4644373,20.5302632 C29.4644451,20.566656 29.4494496,20.6015196 29.4228325,20.626992 C29.3962155,20.6524644 29.3602181,20.6664006 29.3229582,20.6656579 L28.5136977,20.6656579 C28.449967,20.6667099 28.3889606,20.6404569 28.3467524,20.5938158 L22.9648875,14.7635526 Z" id="Shape" fill="#000000"></path>
                    <path d="M64.9632351,14.892755 L64.9632351,19.1590708 C64.9554843,19.6534434 64.9867018,20.1476655 65.0566113,20.6373603 C65.0623845,20.6772186 65.0500686,20.7175536 65.0228847,20.7478157 C64.9957009,20.7780778 64.9563529,20.795257 64.9151322,20.7948603 L63.6616274,20.7948603 C63.6243674,20.795603 63.5883701,20.7816668 63.561753,20.7561944 C63.535136,20.730722 63.5201405,20.6958584 63.5201483,20.6594656 L63.5201483,13.2376235 C63.523942,12.9125222 63.4897663,12.5880585 63.4182833,12.2705182 C63.4047213,12.228409 63.4125814,12.1825064 63.4394345,12.1469966 C63.4662875,12.1114867 63.5089002,12.0906451 63.5541033,12.0909129 L64.7510164,12.0909129 C64.8159459,12.0908535 64.8777756,12.1180237 64.9207914,12.1655182 L70.0140389,17.691834 L70.0140389,13.0635445 C70.020612,12.793525 69.9891933,12.5239026 69.9206627,12.2622287 C69.9092149,12.2216041 69.9177871,12.1780906 69.9438527,12.1445133 C69.9699184,12.110936 70.0105061,12.0911226 70.0536531,12.0909129 L71.3920454,12.0909129 C71.4319573,12.0906195 71.4700628,12.1071365 71.4966133,12.1362384 C71.5231637,12.1653403 71.5355833,12.2042039 71.5306949,12.2428866 C71.4980973,12.4977976 71.4792075,12.7542021 71.4741033,13.0110445 L71.4741033,20.6594656 C71.474111,20.6958584 71.4591156,20.730722 71.4324985,20.7561944 C71.4058814,20.7816668 71.3698841,20.795603 71.3326242,20.7948603 L70.5233637,20.7948603 C70.459633,20.7959123 70.3986266,20.7696593 70.3564184,20.7230182 L64.9632351,14.892755 Z" id="Shape" fill="#000000"></path>
                    <path d="M56.8689389,20.5717105 C56.7218006,20.1240789 56.3737621,19.2453947 56.130418,18.6015789 L52.5821222,18.6015789 C52.1690032,19.5686842 51.9850804,20.1047368 51.9369775,20.5357895 C51.9296145,20.6046692 51.8692223,20.6564223 51.798328,20.6546053 L50.3580707,20.6546053 C50.3112125,20.6553867 50.2671212,20.6329996 50.2408623,20.5950932 C50.2146033,20.5571868 50.2097309,20.5088921 50.22791,20.4667105 C50.7315756,19.2813158 53.4734405,12.8459211 53.8186495,12.0363158 C53.8403529,11.9847241 53.8916949,11.9509363 53.9488103,11.9506579 L55.0410289,11.9506579 C55.0968914,11.9500876 55.1474136,11.9829784 55.1683601,12.0335526 C55.4003859,12.5557895 56.6906752,15.4819737 57.7149839,17.8361842 C58.0767527,18.7338974 58.4895711,19.611184 58.9515113,20.4639474 C58.9771662,20.5061615 58.9774136,20.5586289 58.9521579,20.6010719 C58.9269022,20.6435149 58.8800998,20.6692845 58.8298392,20.6684211 L57.0047588,20.6684211 C56.9417175,20.6717524 56.8849659,20.6313425 56.8689389,20.5717105 L56.8689389,20.5717105 Z M54.3081672,14.4153947 L53.0150482,17.5985526 L55.6776849,17.5985526 L54.3081672,14.4153947 Z" id="Shape" fill="#000000"></path>
                    <path d="M40.2083601,11.2432895 C40.2012903,11.1656934 40.1529162,11.0974601 40.0810289,11.0636842 C38.8920149,10.5561746 37.6036201,10.3090717 36.3063666,10.3397368 C33.3918971,10.3397368 30.5283601,12.0611842 30.5283601,15.5344737 C30.5283601,18.5932895 32.5882958,20.8121053 36.2073312,20.8121053 C38.5700322,20.8121053 40.1545981,19.4084211 40.6045016,18.9967105 C40.6541482,18.9530547 40.6648542,18.8810334 40.6299678,18.8253947 L40.3668167,18.4081579 C40.3461729,18.3752233 40.3121108,18.3524634 40.2731972,18.3456022 C40.2342837,18.3387411 40.1942216,18.3484317 40.1630868,18.3722368 C39.0864716,19.1768757 37.7750234,19.625059 36.4195498,19.6515789 C34.1558842,19.6515789 32.7269453,17.7726316 32.7269453,15.6311842 C32.7269453,13.4897368 34.1247588,11.4532895 36.4054019,11.4532895 C37.7589683,11.4605571 39.0323227,12.0812675 39.8518328,13.1332895 C39.8767333,13.1690401 39.9179155,13.1906946 39.9621865,13.1913158 L40.2451447,13.1913158 C40.2849939,13.1923147 40.3233555,13.1765167 40.3504383,13.1479539 C40.377521,13.1193912 40.3907045,13.0808273 40.3866238,13.0421053 L40.2083601,11.2432895 Z" id="Shape" fill="#000000"></path>
                    <path d="M15.7579421,11.8290789 C12.8774277,11.8290789 10.9618006,13.8351316 10.9618006,16.3081579 C10.9618006,18.7811842 12.8774277,20.7844737 15.7579421,20.7844737 C18.6384566,20.7844737 20.5682315,18.7811842 20.5682315,16.3081579 C20.5682315,13.8351316 18.7969132,11.8290789 15.7579421,11.8290789 Z M15.7579421,19.7897368 C14.2214791,19.7897368 12.9736334,18.3225 12.9736334,16.3081579 C12.9736334,14.1943421 14.2214791,12.8265789 15.7579421,12.8265789 C17.2944051,12.8265789 18.5422508,14.1335526 18.5422508,16.3081579 C18.5422508,18.4827632 17.2972347,19.8007895 15.7579421,19.8007895 L15.7579421,19.7897368 Z" id="Shape" fill="#000000"></path>
                    <path d="M49.1696463,20.6711842 C49.2115354,20.6710343 49.2512029,20.652765 49.277966,20.6212965 C49.3047292,20.5898279 49.3158362,20.5483957 49.3082958,20.5081579 C49.244025,20.1905971 49.2127411,19.8675123 49.2149196,19.5438158 L49.2149196,13.3626316 C49.2149196,13.2355263 49.2149196,12.4811842 49.246045,12.1164474 C49.2518297,12.0773251 49.2398181,12.0376879 49.213163,12.0079401 C49.186508,11.9781922 49.1478716,11.9613048 49.1073955,11.9617105 L47.4011576,11.9617105 C47.3580546,11.961521 47.3172142,11.9805299 47.2902206,12.0133453 C47.263227,12.0461607 47.2530249,12.0892029 47.262508,12.1302632 C47.3409007,12.5541705 47.3778514,12.984395 47.3728617,13.4151316 L47.3728617,15.9019737 L43.4906752,15.9019737 C43.4906752,15.9019737 43.4906752,14.3186842 43.4906752,13.3764474 C43.4906752,13.2493421 43.4765273,12.495 43.5218006,12.1302632 C43.5266808,12.0908454 43.5139587,12.0512826 43.4868789,12.0216653 C43.4597992,11.9920479 43.4209798,11.9752393 43.3803215,11.9755263 L41.6627653,11.9755263 C41.6197669,11.9751041 41.5790015,11.9941878 41.5524104,12.0271874 C41.5258193,12.060187 41.5164124,12.1033671 41.5269453,12.1440789 C41.6033159,12.5682102 41.6393109,12.9983353 41.6344695,13.4289474 C41.6344695,15.5261842 41.6344695,19.7317105 41.6344695,20.5440789 C41.6344695,20.6188554 41.696545,20.6794737 41.773119,20.6794737 L43.4397428,20.6794737 C43.4814941,20.6794997 43.5210345,20.6611516 43.5473833,20.6295249 C43.573732,20.5978982 43.5840834,20.5563605 43.5755627,20.5164474 C43.5127342,20.1986829 43.4814638,19.8757378 43.4821865,19.5521053 L43.4821865,16.9077632 L47.3530547,16.9077632 L47.3530547,20.5440789 C47.3530469,20.5804718 47.3680424,20.6153354 47.3946594,20.6408078 C47.4212765,20.6662802 47.4572738,20.6802164 47.4945338,20.6794737 L49.1696463,20.6711842 Z" id="Shape" fill="#000000"></path>
                </g>
            </g>
        </g>
    </g>
</svg>