<?xml version="1.0" encoding="UTF-8"?>
<svg width="87px" height="36px" viewBox="0 0 87 36" version="1.1" xmlns="http://www.w3.org/2000/svg" xmlns:xlink="http://www.w3.org/1999/xlink">
    <!-- Generator: Sketch 53.1 (72631) - https://sketchapp.com -->
    <title>Group 5</title>
    <desc>Created with Sketch.</desc>
    <g id="Desktop" stroke="none" stroke-width="1" fill="none" fill-rule="evenodd">
        <g id="02" transform="translate(-116.000000, -5392.000000)" fill="#61AAFF" fill-rule="nonzero">
            <g id="Group" transform="translate(33.000000, 5227.000000)">
                <g id="Group-5" transform="translate(83.000000, 165.000000)">
                    <path d="M10.9409456,31.867124 L11.2031421,31.867124 C12.0412934,31.867124 12.9496562,31.7086109 12.9496562,30.6489011 C12.9496562,29.6080354 11.9710817,29.4838853 11.1592598,29.4838853 L10.9409456,29.4838853 L10.9409456,31.867124 L10.9409456,31.867124 Z M10.9409456,35.3965343 L10.1203472,35.3965343 L10.1203472,28.7423101 L11.0638159,28.7423101 C13.0900795,28.7423101 13.7186929,29.4484138 13.7186929,30.6666368 C13.7186929,32.0699764 12.6611303,32.6075908 11.4126799,32.6075908 L10.9409456,32.6075908 L10.9409456,35.3965343 Z M18.6971358,33.7293757 L17.945652,35.3976428 L17.0636185,35.3976428 L20.2077828,28.4618638 L23.351947,35.3976428 L22.4699135,35.3976428 L21.7184297,33.7293757 L18.6960387,33.7293757 L18.6971358,33.7293757 Z M20.2077828,30.2786677 L19.0372234,32.9700648 L21.3783422,32.9700648 L20.2077828,30.2786677 Z M31.4932041,35.3976428 L30.4981738,35.3976428 L28.5596747,32.5820957 L28.2184901,32.5820957 L28.2184901,35.3976428 L27.3978918,35.3976428 L27.3978918,28.7434186 L28.3940192,28.7434186 C28.9787504,28.7434186 29.6084609,28.7522864 30.1317569,29.0515769 C30.6813822,29.3785794 30.9962375,30.0048724 30.9962375,30.6400332 C30.9962375,31.5933287 30.367624,32.3870026 29.4153789,32.5022849 L31.4943012,35.3965343 L31.4932041,35.3976428 Z M28.2173931,31.8937276 L28.4795896,31.8937276 C29.3177408,31.8937276 30.2261037,31.7341061 30.2261037,30.6755047 C30.2261037,29.634639 29.2475292,29.4838853 28.4357073,29.4838853 L28.2173931,29.4838853 L28.2173931,31.8937276 Z M37.4063392,35.3976428 L36.5857409,35.3976428 L36.5857409,29.5027295 L35.0224352,29.5027295 L35.0224352,28.7434186 L38.970742,28.7434186 L38.970742,29.5027295 L37.4074363,29.5027295 L37.4063392,35.3976428 Z M43.0320455,28.4252839 L47.9753826,33.6584328 L47.9753826,28.7434186 L48.795981,28.7434186 L48.795981,35.6703297 L43.8526439,30.4371808 L43.8526439,35.3965343 L43.0320455,35.3965343 L43.0320455,28.4252839 Z M53.6361947,28.7434186 L57.1731052,28.7434186 L57.1731052,29.5027295 L54.4567931,29.5027295 L54.4567931,31.3649812 L57.0941172,31.3649812 L57.0941172,32.1242921 L54.4567931,32.1242921 L54.4567931,34.6394404 L57.1731052,34.6394404 L57.1731052,35.3987513 L53.6361947,35.3987513 L53.6361947,28.7434186 Z M65.7762232,35.3976428 L64.7811928,35.3976428 L62.8415967,32.5820957 L62.5015092,32.5820957 L62.5015092,35.3976428 L61.6809108,35.3976428 L61.6809108,28.7434186 L62.6770383,28.7434186 C63.2628665,28.7434186 63.8914799,28.7522864 64.4147759,29.0515769 C64.9644013,29.3785794 65.2792565,30.0048724 65.2792565,30.6400332 C65.2792565,31.5933287 64.649546,32.3870026 63.698398,32.5022849 L65.7773202,35.3965343 L65.7762232,35.3976428 Z M62.5015092,31.8937276 L62.7637057,31.8937276 C63.601857,31.8937276 64.5102198,31.7341061 64.5102198,30.6755047 C64.5102198,29.634639 63.5316453,29.4838853 62.7198235,29.4838853 L62.5015092,29.4838853 L62.5015092,31.8937276 Z M72.8434619,30.0048724 C72.5988182,29.5891912 72.283963,29.3785794 71.7858993,29.3785794 C71.2626033,29.3785794 70.6855515,29.7399449 70.6855515,30.3218985 C70.6855515,30.8428856 71.1912946,31.1166809 71.6026908,31.275194 L72.0744252,31.4603107 C73.0080203,31.8305441 73.7079425,32.3515312 73.7079425,33.4633397 C73.7079425,34.6726948 72.7820267,35.5373117 71.6026908,35.5373117 C70.5374489,35.5373117 69.706977,34.7436378 69.5676508,33.6761685 L70.3981227,33.4999197 C70.3893462,34.232627 70.9653009,34.7613735 71.6729025,34.7613735 C72.380504,34.7613735 72.8873441,34.1616841 72.8873441,33.4633397 C72.8873441,32.7494766 72.3190688,32.4391013 71.7518905,32.2018859 L71.2988061,32.0079014 C70.5473224,31.6808989 69.8660502,31.2485904 69.8660502,30.3218985 C69.8660502,29.2455614 70.8084218,28.6015327 71.8045492,28.6015327 C72.5384801,28.6015327 73.1418613,28.9628982 73.4995017,29.6069269 L72.8445589,30.0037639 L72.8434619,30.0048724 Z M42.2959205,21.7887954 C41.7846922,20.7989199 41.7934686,19.6028666 41.7912745,18.6407033 L41.7912745,8.59784604 L40.0337898,8.59784604 L40.0337898,5.38878736 L40.2575894,5.41206551 C40.9202116,5.47968298 41.2164168,5.51626292 41.8274774,5.54951742 L41.8274774,1.58890717 L45.2733322,0.32967033 L45.2733322,5.55949377 L48.1827263,5.55949377 C48.7147988,5.55949377 49.204086,5.48855084 49.7416438,5.34333955 L50.0290726,5.26574573 L49.9961609,5.56503618 C49.8853582,6.56599645 49.8085642,7.21889302 49.6747233,7.67447959 C49.551853,8.12452374 49.3083064,8.41827177 48.9451807,8.51914374 C48.7093135,8.58897818 48.4427287,8.59673756 48.1081265,8.59784604 L45.2733322,8.59784604 L45.2733322,17.9368165 C45.2711381,18.7426837 45.3237968,19.4166414 45.5289464,19.8467329 C45.7373871,20.2712819 46.0346895,20.4951955 46.7181557,20.5062804 C47.9402768,20.5096058 49.0373334,19.6715926 49.9369198,18.6839341 L50.3099191,18.2760123 L50.2901721,18.8313624 C50.2342222,20.4087339 50.1640106,21.2345538 50.036752,21.7378051 C49.9226581,22.2410565 49.668141,22.4494513 49.4311767,22.5846863 C48.8409603,22.9815232 47.5672776,23.5047273 45.8383163,23.5069442 L45.8065017,23.5069442 C43.8614203,23.5069442 42.8016636,22.7797793 42.2937264,21.7876869 L42.2959205,21.7887954 Z M52.1771094,23.2120877 L52.2758445,22.9360754 C52.5588851,22.1446184 52.7366083,21.7211779 52.7388024,16.9003847 L52.7388024,13.757835 C52.7388024,12.2414301 52.7388024,10.2461605 52.6290968,8.77076941 C52.5928939,7.83077571 52.4228501,7.39514184 52.2374475,6.86972083 L52.16943,6.67795325 L55.7469316,5.33336321 L55.9465959,6.91516864 C56.6465181,6.22569213 57.8050098,5.26020332 59.7149854,5.26352877 C59.8115264,5.26352877 60.1395463,5.2613118 60.4653721,5.3599668 C60.7813244,5.44753697 61.1652942,5.69472871 61.1641972,6.17470191 C61.1620031,6.44406331 61.0808209,6.67684477 60.9733093,7.08365808 L60.3995487,8.98914059 L60.2020785,8.9226316 C59.8641851,8.80845784 59.6173474,8.71091132 59.0951484,8.70980284 C57.4802811,8.7120198 56.528036,9.64868805 56.1495514,10.0322232 L56.1495514,16.9014932 C56.1495514,19.4554384 56.1835602,20.4442053 56.25816,21.3598124 C56.3316628,22.1568118 56.4655037,22.4893567 56.6147034,22.9427263 L56.703565,23.2131962 L52.1771094,23.2131962 L52.1771094,23.2120877 Z M62.9644671,23.2120877 L63.0697845,22.93275 C63.349534,22.1845238 63.5305483,21.7200694 63.5316453,16.9003847 L63.5327424,13.6824582 C63.5327424,12.2414301 63.5316453,10.1707836 63.4219397,8.77963728 C63.349534,7.87400655 63.176199,7.34858555 62.9962817,6.87526325 L62.9194878,6.67241083 L66.9785972,5.33336321 L66.9785972,16.9003847 C66.9785972,19.4543299 67.0148001,20.4442053 67.0872058,21.3587039 C67.1596116,22.1557033 67.2956466,22.4882482 67.4437492,22.9416178 L67.5337079,23.2131962 L62.96337,23.2131962 L62.9644671,23.2120877 Z M74.6108201,5.55949377 L74.7852521,5.55949377 L74.8115814,5.7346341 C74.9893046,6.90962622 75.5191829,7.95603431 76.2059404,8.93925885 L78.2519509,11.9055597 C81.3862417,8.24978234 81.7383969,7.14905858 81.9896228,5.73020017 L82.0192433,5.55949377 L85.8841738,5.55949377 L85.7865357,5.83439758 C84.6192675,9.11439918 82.4876865,11.8745222 80.0730649,14.3353548 L83.8206103,19.7447525 C84.9143757,21.3265579 85.5243392,21.9750205 86.3306758,22.8673494 L86.643337,23.2120877 L81.4005034,23.2120877 L81.4005034,23.0059098 C81.392824,22.2199953 81.4016005,22.1047131 80.1169472,20.1260707 L77.6584433,16.488029 C76.5756484,17.635309 74.2465973,20.2934516 73.7485336,23.0435983 L73.717816,23.2120877 L69.630183,23.2120877 L69.7344034,22.9338584 C71.0124744,19.5031031 73.3239727,16.6664948 75.8131941,14.0671018 L72.5768771,9.28510559 C71.7716375,8.10567953 70.9345834,6.96505038 70.0251234,5.89979809 L69.7355005,5.55949377 L74.6108201,5.55949377 Z M37.691574,18.3070498 C37.7091269,20.5517282 38.0865143,21.0028808 38.9729361,21.7732766 L39.1912503,21.9583933 L36.993846,23.2996579 C36.8479374,23.3694923 36.5945173,23.5357648 36.315865,23.5435242 C35.929701,23.5280054 35.386658,23.1633144 34.9445442,21.9971902 C34.3148337,22.5647336 33.0192099,23.5435242 30.6758969,23.5435242 C28.8306477,23.5479581 27.6173031,22.8285525 26.8965369,21.8375686 C26.1746737,20.8476932 25.9333212,19.6150599 25.9322242,18.5664349 C25.9267389,16.1632434 27.1345982,14.6124755 28.7823772,13.6868921 C30.3731093,12.7879123 32.3708494,12.4298722 34.1700222,12.3057221 L34.1700222,10.8336565 C34.1722163,10.0976237 34.12614,9.43142536 33.836517,8.98359817 C33.5512823,8.5413134 33.0246951,8.23315509 31.8848533,8.22872116 C31.5337952,8.22872116 29.1531824,8.22761267 27.1982275,10.309344 L26.9480986,10.57538 L26.3721439,8.39166818 C26.3776291,8.34511189 26.3008352,8.05801475 26.2986411,7.79973818 C26.3304557,7.055946 27.1335011,6.49283657 28.2382371,6.02727365 C29.3561378,5.57279556 30.831679,5.26352877 32.324773,5.26242028 C34.940156,5.25909484 36.3180591,6.0305991 37.0103018,7.05483752 C37.6992534,8.07575048 37.6893798,9.27956317 37.691574,10.0942983 L37.691574,18.3070498 Z M34.1897693,18.2383239 L34.1897693,15.3174708 C31.9440944,15.4205597 29.3583319,16.0734563 29.3583319,18.5498076 C29.3583319,19.2359587 29.5963932,20.6470577 31.4339631,20.6470577 C31.9440944,20.6470577 32.5222432,20.5084973 33.0334716,20.1992305 C34.0208225,19.580697 34.1217517,18.8590744 34.1897693,18.2383239 Z M19.0086999,23.2120877 L19.108532,22.9360754 C19.3926697,22.1446184 19.5703929,21.7211779 19.572587,16.9003847 L19.572587,11.9443566 C19.5747811,10.871345 19.5649076,9.92691732 19.2796729,9.29951587 C18.9933411,8.68319924 18.4919862,8.31185739 17.286321,8.30077256 C15.211787,8.30298953 14.0741393,9.41368963 13.5354845,9.95795485 L13.5354845,16.9003847 C13.5354845,19.085205 13.5365815,20.1881457 13.6440931,21.3598124 C13.7175959,22.1956087 13.8503397,22.4849228 14.0006365,22.9416178 L14.089498,23.2120877 L9.45882209,23.2120877 L9.59595417,22.9183397 C9.75612443,22.570276 9.86912126,22.3241927 9.95688579,21.5127831 C10.0424562,20.7046989 10.0885326,19.3578918 10.0885326,16.8992762 L10.0885326,11.5752317 C10.0907267,10.8724534 10.0830473,10.0377656 9.78355085,9.41479811 C9.48186028,8.79848149 8.94320549,8.34732885 7.69256095,8.33846099 C6.01625845,8.33956947 4.98831641,9.16982334 4.05143006,9.9679312 L4.05143006,16.8992762 C4.05143006,19.0840965 4.05252712,20.1870372 4.16003867,21.3587039 C4.23354146,22.1945002 4.36738236,22.4838143 4.51658206,22.9405093 L4.60544365,23.2109792 L0.0427852078,23.2109792 L0.141520303,22.9349669 C0.423463852,22.14351 0.602284079,21.7200694 0.604478192,16.8992762 L0.604478192,13.7201466 C0.604478192,13.4995585 0.604478192,10.3137779 0.495869588,8.77852879 C0.422366795,7.83631813 0.250128907,7.39403336 0.0680175098,6.86861235 L0,6.67573628 L3.72999247,5.33558017 L3.89893919,6.93179589 C4.63835535,6.2866587 6.10950826,5.26020332 8.53510043,5.26352877 C9.25257545,5.26463725 10.5668493,5.37548556 11.7483792,6.10486747 C12.2201136,6.37644584 12.4954748,6.71564168 12.7456037,7.06037993 C13.5135433,6.43630393 15.2008164,5.26242028 17.8699551,5.26463725 C19.4102226,5.27128815 21.5944623,5.77564798 22.4808841,7.37297218 C22.9460361,8.27084352 23.0173447,9.0999889 23.0162477,10.9090334 L23.0162477,16.9014932 C23.0162477,19.4554384 23.0535476,20.4453138 23.1259533,21.3587039 C23.1994561,22.1568118 23.3343941,22.4893567 23.4835938,22.9427263 L23.5735524,23.2131962 L19.0065058,23.2131962 L19.0086999,23.2120877 Z" id="Logo_Matrix-Partners"></path>
                </g>
            </g>
        </g>
    </g>
</svg>