<?xml version="1.0" encoding="UTF-8"?>
<svg width="110px" height="23px" viewBox="0 0 110 23" version="1.1" xmlns="http://www.w3.org/2000/svg" xmlns:xlink="http://www.w3.org/1999/xlink">
    <!-- Generator: Sketch 53.1 (72631) - https://sketchapp.com -->
    <title>Page 1</title>
    <desc>Created with Sketch.</desc>
    <defs>
        <polygon id="path-1" points="0 0.140140062 16.6433756 0.140140062 16.6433756 22.4512748 0 22.4512748"></polygon>
        <polygon id="path-3" points="0.0655541709 0.14743593 9.14532268 0.14743593 9.14532268 9.83249607 0.0655541709 9.83249607"></polygon>
        <polygon id="path-5" points="0.152330671 0.0296019795 5.97777955 0.0296019795 5.97777955 9.20475748 0.152330671 9.20475748"></polygon>
    </defs>
    <g id="Desktop" stroke="none" stroke-width="1" fill="none" fill-rule="evenodd">
        <g id="02" transform="translate(-104.000000, -5460.000000)">
            <g id="Group" transform="translate(33.000000, 5227.000000)">
                <g id="Page-1" transform="translate(71.000000, 233.000000)">
                    <path d="M9.26509265,22.7734948 C10.2830319,21.1064434 11.2830479,19.4699753 12.2821853,17.8326233 C15.7043099,12.2245777 19.1264345,6.61635532 22.5473291,1.00742582 C22.928639,0.382325763 23.1732396,0.378259785 23.5422492,0.99876352 C24.4250607,2.48372973 25.3008435,3.97293869 26.1996454,5.44800512 C26.3664026,5.72166318 26.3850288,5.91523913 26.2126486,6.19561489 C22.8659073,11.6419052 19.5307636,17.0954436 16.1829681,22.5413804 C16.1010831,22.674497 15.9033994,22.8166295 15.7584313,22.817867 C13.639262,22.8355451 11.5195655,22.8298881 9.40004473,22.8286506 C9.37509265,22.8286506 9.34996486,22.8088511 9.26509265,22.7734948" id="Fill-1" fill="#61AAFF"></path>
                    <g id="Group-5" transform="translate(0.000000, 0.382909)">
                        <mask id="mask-2" fill="white">
                            <use xlink:href="#path-1"></use>
                        </mask>
                        <g id="Clip-4"></g>
                        <path d="M3.27847444,22.4473856 C2.42535942,22.447032 1.57189297,22.4424357 0.718602236,22.4496837 C0.427260383,22.4521587 0.0972603834,22.4548104 0.018186901,22.1353659 C-0.0359345048,21.9159798 0.0364616613,21.611385 0.158410543,21.409677 C1.91349042,18.5070985 3.68772364,15.6160107 5.45545527,12.7210337 C7.90901757,8.70278587 10.3602955,4.682947 12.814385,0.66487594 C13.2463019,-0.0422508242 13.4355511,-0.0358866833 13.869401,0.691216412 C14.7617013,2.18643596 15.6473243,3.6855447 16.5484105,5.17528401 C16.6724681,5.38052755 16.6773882,5.5171798 16.5489377,5.7266661 C13.1818131,11.2100806 9.82540735,16.700036 6.45371406,22.1804452 C6.36954473,22.317451 6.13724441,22.4314752 5.97048722,22.4362483 C5.07379393,22.4609978 4.17587061,22.4479159 3.27847444,22.4473856" id="Fill-3" fill="#61AAFF" mask="url(#mask-2)"></path>
                    </g>
                    <path d="M18.9435288,22.8313377 C21.9391837,17.9252922 24.8810687,13.1069305 27.857746,8.23182177 C28.1121869,8.65592105 28.335877,9.02857685 28.5592157,9.40158622 C29.3850942,10.7822512 30.2065799,12.165568 31.0412444,13.5409295 C31.1823466,13.7735742 31.1816438,13.9443453 31.0333371,14.181056 C30.3376661,15.2926593 29.6651901,16.4189354 28.9463243,17.6024889 C29.1346949,17.6148636 29.2699984,17.6311275 29.4051262,17.6313043 C30.6263722,17.6334257 31.8479696,17.6399666 33.0692157,17.626708 C33.3473786,17.6237027 33.5225703,17.6905262 33.6733371,17.9486274 C34.4331454,19.2476193 35.2200144,20.5303472 35.9882572,21.8243892 C36.3762444,22.4779511 36.1697748,22.8308074 35.4187524,22.8306306 C30.0916597,22.8306306 24.7645671,22.8309842 19.4376502,22.8313377 L18.9435288,22.8313377 Z" id="Fill-6" fill="#61AAFF"></path>
                    <path d="M46.0977492,9.57106683 L46.0977492,4.00898448 L45.9334521,3.97734056 C45.2813594,5.62636017 44.5934201,7.26212116 43.9966789,8.9311171 C43.7851134,9.52315899 43.4867428,9.66423078 42.912845,9.65857376 C42.3315671,9.65273997 41.9713435,9.56594016 41.7434361,8.92227802 C41.2067907,7.40761249 40.563484,5.93113181 39.9602412,4.44050859 C39.8994425,4.2897138 39.8177332,4.14758132 39.6175895,4.02224311 L39.6175895,9.57318821 L37.757254,9.57318821 L37.757254,0.435519374 C38.5421901,0.435519374 39.3232604,0.396627402 40.0955447,0.4632741 C40.2854968,0.479714797 40.5118227,0.813125067 40.6100495,1.04789115 C41.3545703,2.82949704 42.0716789,4.62277051 42.8856086,6.63048018 C43.2417907,5.7545269 43.5315511,5.07038175 43.7993466,4.37739752 C44.232845,3.25483378 44.6190751,2.11229371 45.100369,1.01147412 C45.214762,0.750190784 45.6118866,0.488907445 45.9042827,0.456202832 C46.6187556,0.376297508 47.3478131,0.430039142 48.1172859,0.430039142 L48.1172859,9.57106683 L46.0977492,9.57106683 Z" id="Fill-8" fill="#61AAFF"></path>
                    <path d="M70.0722316,9.55017123 C68.5754585,9.90373461 67.5979345,9.5427464 66.9131581,8.10073815 C66.2169601,6.63362689 65.2116725,5.31501226 64.1290687,3.96510726 L64.1290687,6.72060348 L64.1290687,9.58146159 L62.1603147,9.58146159 L62.1603147,0.43672149 C62.8733818,0.43672149 63.5975192,0.385631581 64.3072476,0.464829779 C64.5499153,0.491877377 64.8143722,0.809023731 64.9698834,1.0565181 C65.9533818,2.62103607 66.9089409,4.20340898 68.0187812,6.01701235 L68.0187812,0.497711173 L70.0722316,0.497711173 L70.0722316,9.55017123 Z" id="Fill-10" fill="#61AAFF"></path>
                    <g id="Group-14" transform="translate(91.725240, 0.029346)">
                        <mask id="mask-4" fill="white">
                            <use xlink:href="#path-3"></use>
                        </mask>
                        <g id="Clip-13"></g>
                        <path d="M9.14532268,2.99968477 C8.5041246,3.22525821 7.90386901,3.43633555 7.32241534,3.64087196 C6.19834185,2.13062598 5.13401278,1.73392786 3.81629712,2.29715433 C2.61648882,2.80999801 1.94014696,4.11694506 2.16594569,5.48647282 C2.41265495,6.98257627 3.35521086,7.86613116 4.81033866,7.96530569 C5.91842173,8.04061469 6.78401278,7.49153076 7.12227157,6.44180108 L4.52989137,6.44180108 L4.52989137,4.76096076 L9.11088179,4.76096076 L9.11088179,9.55581057 L7.49901278,9.55581057 C7.46404473,9.34155116 7.42802236,9.11969013 7.3761853,8.80183665 C5.89874121,10.0486779 4.30321406,10.0836807 2.67799042,9.3373084 C0.999875399,8.56636344 0.23743131,7.11781426 0.0833258786,5.34168861 C-0.121913738,2.9761728 1.47291054,0.79928306 3.70840575,0.297576621 C6.16829393,-0.254335819 8.20803834,0.730691764 9.14532268,2.99968477" id="Fill-12" fill="#61AAFF" mask="url(#mask-4)"></path>
                    </g>
                    <path d="M54.9804776,2.20225792 C53.3923307,2.2004901 52.2838962,3.35770305 52.2770431,5.02493118 C52.2703658,6.6352356 53.459631,7.8615702 55.0133371,7.84672053 C56.4913083,7.832578 57.663353,6.59581329 57.6763562,5.03659877 C57.6898866,3.39465042 56.5573786,2.20402573 54.9804776,2.20225792 M54.9734489,9.82207915 C52.2223946,9.81606857 50.1958291,7.8103035 50.1678898,5.06576775 C50.1394233,2.27986508 52.1803978,0.225131484 54.9767875,0.22477792 C57.7603498,0.224424357 59.7793594,2.2651922 59.7698706,5.07036407 C59.7607332,7.8055304 57.7192316,9.82808973 54.9734489,9.82207915" id="Fill-15" fill="#61AAFF"></path>
                    <path d="M87.0424728,5.90838 C86.6746933,4.85811998 86.3309872,3.87645124 85.9046933,2.6593093 C85.4808594,3.90844873 85.1513866,4.87933378 84.8024089,5.90838 L87.0424728,5.90838 Z M90.5554441,9.6421861 C90.1887188,9.6421861 89.9806677,9.61496172 89.7819297,9.64660564 C88.7497572,9.81154296 88.0572492,9.53558674 87.8737987,8.36741333 C87.8383035,8.14130954 87.4306358,7.82487032 87.1784792,7.80913675 C86.1615942,7.74514177 85.1383834,7.78261949 84.1439904,7.78261949 C83.303,9.77689375 83.303,9.77689375 81.3676326,9.5649325 C81.5983514,8.91826508 81.8148371,8.28856869 82.0467859,7.6647061 C82.8536869,5.49506441 83.6904601,3.33585283 84.4601086,1.15295251 C84.6662268,0.56851224 84.9584473,0.348772598 85.5432396,0.424435162 C85.8020735,0.457846902 86.0732077,0.461205754 86.3313387,0.424435162 C86.9605879,0.334983627 87.2413866,0.605282832 87.454885,1.20704771 C88.4438307,3.99365751 89.489885,6.75993741 90.5554441,9.6421861 L90.5554441,9.6421861 Z" id="Fill-17" fill="#61AAFF"></path>
                    <g id="Group-21" transform="translate(103.849840, 0.382909)">
                        <mask id="mask-6" fill="white">
                            <use xlink:href="#path-5"></use>
                        </mask>
                        <g id="Clip-20"></g>
                        <path d="M5.53038179,5.55014958 L2.18557348,5.55014958 L2.18557348,7.33493754 L5.91872045,7.33493754 L5.91872045,9.20475748 L0.152330671,9.20475748 L0.152330671,0.0472891024 C0.779471246,0.0472891024 1.40678754,0.0476426658 2.03427955,0.0472891024 C3.11688339,0.0465819756 4.20124441,0.0824686589 5.28138818,0.0315555319 C6.02432748,-0.00362402467 5.99427955,0.441689055 5.96757029,0.93455641 C5.94244249,1.39931548 6.15084505,1.98640747 5.30282588,1.95228861 C4.28646805,1.91162882 3.26747444,1.94274239 2.19453514,1.94274239 L2.19453514,3.73141955 L5.53038179,3.73141955 L5.53038179,5.55014958 Z" id="Fill-19" fill="#61AAFF" mask="url(#mask-6)"></path>
                    </g>
                    <polygon id="Fill-22" fill="#61AAFF" points="75.5056166 2.36014165 72.7116869 2.36014165 72.7116869 0.495978713 80.3115272 0.495978713 80.3115272 2.31117312 77.5478211 2.31117312 77.5478211 9.57990591 75.5056166 9.57990591"></polygon>
                    <path d="M54.3766198,22.5620108 L54.3766198,16.6523757 C55.1580415,16.4186703 55.7312364,16.5058236 56.1817796,17.3160141 C56.8430096,18.504871 57.6244313,19.6260205 58.4822907,20.9768094 L58.4822907,16.6025232 C58.8367157,16.5834308 59.1141757,16.5684044 59.4570032,16.5498423 L59.4570032,22.6311325 C58.7374345,22.8568827 58.2499904,22.6709083 57.8516358,22.0053253 C57.1603578,20.8498801 56.3866677,19.7444642 55.4948946,18.3857202 C55.4620351,19.0147094 55.42777,19.4165342 55.4224984,19.8187125 C55.4138882,20.4949025 55.3905176,21.1733906 55.4344473,21.8465753 C55.4887444,22.6836366 55.0940799,22.791827 54.3766198,22.5620108" id="Fill-24" fill="#61AAFF"></path>
                    <path d="M82.2338914,19.4314015 C82.9232364,19.1748913 83.484131,19.0373551 83.9501374,18.7461957 C84.076655,18.6669975 84.0163834,17.9010024 83.8694824,17.8343557 C83.3890671,17.6163839 82.8294026,17.5755473 82.2338914,17.4530376 L82.2338914,19.4314015 Z M84.0234121,20.1189055 C84.4890671,20.9381119 84.9304728,21.7148906 85.3971821,22.5363952 C84.5890511,22.850713 84.1161917,22.6283216 83.7962077,21.9236698 C83.5911438,21.4719926 83.3421502,21.0323365 83.0527412,20.6308653 C82.9021502,20.4220861 82.6213514,20.3080619 82.2057764,20.0144276 L82.2057764,22.6122345 C81.8422141,22.6325644 81.5626454,22.648298 81.1878371,22.6691582 L81.1878371,16.601657 C82.1126454,16.601657 83.0706645,16.5327121 84.0130447,16.625169 C84.6646102,16.6893407 85.0894984,17.1627621 85.1933482,17.8638783 C85.3571182,18.9715924 85.1467827,19.4227392 84.0234121,20.1189055 L84.0234121,20.1189055 Z" id="Fill-26" fill="#61AAFF"></path>
                    <path d="M75.6852716,16.5772435 L76.6692971,16.5772435 C76.6692971,18.1926745 76.6735144,19.7920185 76.6615655,21.3913625 C76.6605112,21.5257166 76.5626358,21.6673187 76.4872524,21.7919498 C75.9796006,22.6327235 74.5028594,23.0219968 73.2129073,22.660655 C72.2083227,22.3792186 71.7133227,21.7199996 71.6971565,20.5691508 C71.6787061,19.2779373 71.6927636,17.9861935 71.6927636,16.6246209 L72.8741214,16.6246209 C72.8741214,17.7738787 72.8704313,18.9646802 72.8751757,20.1554817 C72.8795687,21.3073912 73.1956869,21.6726221 74.1863898,21.6901235 C75.1881629,21.7081553 75.6445048,21.2766311 75.6773642,20.1736902 C75.7123323,19.0042793 75.6852716,17.832747 75.6852716,16.5772435" id="Fill-28" fill="#61AAFF"></path>
                    <path d="M89.2758594,22.6172551 L89.2758594,16.6271843 L92.8761629,16.6271843 L92.8761629,17.4909396 L90.4886709,17.4909396 L90.4886709,18.9856288 L92.4447732,18.9856288 C92.4630479,19.3747253 92.4769297,19.6717186 92.4952045,20.0652346 L90.4719776,20.0652346 L90.4719776,21.6430112 L93.0251725,21.6430112 L93.0251725,22.6172551 L89.2758594,22.6172551 Z" id="Fill-30" fill="#61AAFF"></path>
                    <path d="M96.3034185,22.3489889 C96.569984,21.7712663 96.7117891,21.4636662 96.8376038,21.1910688 C97.449984,21.3657291 97.9962939,21.5934239 98.5598243,21.6510548 C98.8371086,21.6793398 99.1463738,21.3927767 99.4410543,21.2486996 C99.2901118,20.9653186 99.2052396,20.5958449 98.974345,20.4162347 C98.4944569,20.0426949 97.9298722,19.7812348 97.4134345,19.4522441 C96.8202077,19.0742848 96.3944409,18.4772931 96.6866613,17.8336309 C96.9217732,17.3156606 97.4589457,16.7991045 97.9845208,16.5823701 C98.9126677,16.199461 99.873147,16.4598604 100.814297,16.9576777 C100.670208,17.2879059 100.535958,17.5953292 100.421038,17.8587339 C99.7926677,17.7551399 99.2280831,17.6126538 98.6592812,17.5932078 C98.4338339,17.5856062 98.0723802,17.8085279 98.0068371,18.0054627 C97.9500799,18.1762338 98.1684984,18.5345703 98.3619649,18.6761725 C98.8778754,19.0539549 99.4542332,19.347059 99.9914058,19.6970867 C100.717476,20.1701545 100.826773,20.8926613 100.61345,21.6455745 C100.415942,22.3429783 99.8278115,22.7198769 99.1477796,22.6993702 C98.2470447,22.6721458 97.3508786,22.4861715 96.3034185,22.3489889" id="Fill-32" fill="#61AAFF"></path>
                    <polygon id="Fill-34" fill="#61AAFF" points="46.5928195 16.5989169 50.1530591 16.5989169 50.1530591 17.51553 47.706877 17.51553 47.706877 19.0360293 49.6642093 19.0360293 49.6642093 20.0424474 47.7295447 20.0424474 47.7295447 21.6497466 50.3305351 21.6497466 50.3305351 22.6220459 46.5928195 22.6220459"></polygon>
                    <path d="M37.7572891,16.6376674 C38.6265703,16.3726717 39.0895895,16.6150394 39.3164425,17.5014228 C39.5889824,18.566886 40.0084233,19.5941644 40.4406917,20.8629266 C40.8578482,19.5702989 41.1964585,18.519155 41.536123,17.4681878 C41.8511869,16.4934136 41.8517141,16.4935904 43.0056597,16.6228178 C42.3070016,18.5569863 41.6218738,20.4823157 40.9045895,22.3950936 C40.8321933,22.5879624 40.5658035,22.8250266 40.3874489,22.8267944 C40.2062827,22.828739 39.9258355,22.6010442 39.8546693,22.4110039 C39.1356278,20.4929226 38.4506757,18.5617594 37.7572891,16.6376674" id="Fill-36" fill="#61AAFF"></path>
                    <path d="M68.0878387,16.6077206 L68.0878387,17.4870327 C67.5395958,17.511959 66.9975032,17.5367084 66.3148355,17.567822 C66.3148355,18.9635134 66.3174712,20.330743 66.3137812,21.6977958 C66.3113211,22.7112853 66.307631,22.7112853 65.1909377,22.5850632 L65.1909377,17.7470786 C64.6057939,17.1343533 63.256976,18.2433048 63.3075831,16.6077206 L68.0878387,16.6077206 Z" id="Fill-38" fill="#61AAFF"></path>
                </g>
            </g>
        </g>
    </g>
</svg>