<?xml version="1.0" encoding="UTF-8"?>
<svg width="123px" height="65px" viewBox="0 0 123 65" version="1.1" xmlns="http://www.w3.org/2000/svg" xmlns:xlink="http://www.w3.org/1999/xlink">
    <!-- Generator: Sketch 53.1 (72631) - https://sketchapp.com -->
    <title>Page 1</title>
    <desc>Created with Sketch.</desc>
    <defs>
        <polygon id="path-1" points="0 0.193238874 122.798697 0.193238874 122.798697 40.9218735 0 40.9218735"></polygon>
    </defs>
    <g id="Desktop" stroke="none" stroke-width="1" fill="none" fill-rule="evenodd">
        <g id="01" transform="translate(-989.000000, -4947.000000)">
            <g id="Group-4" transform="translate(359.000000, 4782.000000)">
                <g id="Group-3" transform="translate(130.000000, 164.000000)">
                    <g id="Page-1" transform="translate(500.000000, 1.000000)">
                        <g id="Group-3">
                            <mask id="mask-2" fill="white">
                                <use xlink:href="#path-1"></use>
                            </mask>
                            <g id="Clip-2"></g>
                            <path d="M60.6209037,4.90914972 C58.9278852,4.80359171 57.3904993,4.67039834 55.850375,4.62713315 C55.0382098,4.6042547 54.2185141,4.81061381 53.4079464,4.77912762 C52.7224325,4.75239834 52.0446774,4.53154199 51.3630429,4.39857514 C51.2525939,4.3770558 51.1341579,4.33582928 51.0291857,4.35530994 C46.2139297,5.24689006 41.3610206,4.68036519 36.5243137,4.73087901 C34.109041,4.75624917 31.6935401,4.79928785 29.2782673,4.80404475 C23.1937609,4.81537072 17.1092544,4.80676298 11.0247479,4.81310552 C9.66033785,4.81469116 8.29341763,4.80019392 6.93197421,4.87313315 C5.65405213,4.94176851 5.59814304,5.44373536 5.27227291,6.66172983 C4.79145473,8.45870773 5.42265696,10.1904481 5.15064212,11.9686249 C4.91833414,13.4863044 5.23690186,15.0814536 5.24762727,16.6428514 C5.27204471,20.234995 5.27660872,23.8280448 5.25241948,27.4201884 C5.23644545,29.7898072 5.14950111,32.1587464 5.10888145,34.5281387 C5.09450482,35.3789453 6.09470705,36.253763 7.1092859,36.2714315 C9.99305399,36.3226249 12.8765939,36.3862768 15.760362,36.3862768 C17.6573917,36.3860503 19.5539649,36.2317906 21.4507664,36.2365475 C30.4667349,36.2585199 39.4827033,36.3271552 48.4989,36.347995 C53.7007275,36.359774 58.9023267,36.3099398 64.1041542,36.2922713 C65.619861,36.2870613 66.1052432,36.9052326 65.9119575,38.3875751 C65.8446384,38.9022271 66.0319909,39.4499508 66.1031894,39.9827243 C66.2296124,39.9709453 66.3560354,39.9593928 66.4826866,39.9478403 C66.4826866,39.2211663 66.4644306,38.4940392 66.4867942,37.7682713 C66.5217089,36.622763 67.1346551,36.3384812 68.2510113,36.4743928 C69.8543471,36.669426 71.491913,36.6839232 73.1107664,36.6383928 C75.8069538,36.5625088 78.4990336,36.2791331 81.1938518,36.2585199 C87.7605456,36.2080061 94.3279241,36.2644094 100.894846,36.265089 C105.680208,36.2657685 110.465798,36.259879 115.25116,36.2272602 C116.836924,36.2163873 117.263887,35.6507685 117.129477,34.109984 C116.99849,32.6058956 116.532048,31.064658 117.472462,29.6282989 C117.560319,29.494426 117.514223,29.2559011 117.490946,29.0710613 C116.76641,23.3104481 116.999175,17.5262768 117.031579,11.7459564 C117.042076,9.90661934 116.988906,8.06501713 116.902189,6.22749227 C116.855637,5.24168011 116.008557,4.77935414 114.992152,4.7811663 C111.795978,4.78660276 108.599575,4.66224365 105.403173,4.65318287 C103.205375,4.64706685 101.007577,4.77595635 98.8095512,4.79679613 C95.2836273,4.83032099 91.7567905,4.83281271 88.2306384,4.83349227 C81.4745382,4.83439834 74.7182098,4.82443149 67.9621096,4.8199011 C65.8485178,4.81854199 63.734926,4.81967459 61.6521412,4.81967459 C61.3700855,3.26280718 61.1135883,1.84592873 60.8164714,0.205475691 L62.6318054,0.205475691 C81.7570503,0.20570221 100.882523,0.214989503 120.007768,0.193243646 C121.962533,0.190751934 122.877388,1.16387901 122.711486,3.11489006 C122.579358,4.66722707 122.715137,6.24108343 122.711258,7.80519945 C122.703727,11.0362713 122.656946,14.2673431 122.67292,17.4984149 C122.693687,21.6810945 122.781772,25.863774 122.798202,30.0464536 C122.808243,32.5972878 122.661282,35.1506138 122.724722,37.6994094 C122.785423,40.1541994 121.682531,40.3478735 119.928355,40.7388459 C119.285742,40.8820061 118.532909,40.511647 117.825945,40.4054094 C117.532022,40.3614646 117.203414,40.3220503 116.929345,40.4058624 C114.520234,41.1420503 112.087618,40.751984 109.65272,40.6357796 C108.533625,40.5820945 107.394677,40.8534646 106.282429,40.7624039 C104.768547,40.6389508 103.27064,40.3943099 101.74649,40.9218735 C101.588575,40.4865033 101.482919,40.1940669 101.311312,39.7199619 C100.88047,40.096437 100.556653,40.3795862 100.232609,40.6627354 C100.21093,40.5848127 100.189479,40.5066635 100.1678,40.4287409 C99.5902247,40.5426801 99.0153879,40.7318238 98.4339334,40.7544757 C97.1361579,40.805216 95.8347312,40.7938901 94.5353583,40.7696525 C92.054592,40.723216 89.5745104,40.6495972 87.0942006,40.5900227 C86.7014677,40.5805088 86.3082785,40.5775641 85.9155456,40.5834536 C83.9142284,40.6149398 81.9131393,40.6688514 79.9115939,40.6770061 C78.6699557,40.682216 77.427861,40.6085972 76.1857664,40.5911552 C75.0349519,40.5755254 73.8839093,40.5870779 72.7328666,40.587984 C71.4590521,40.5891166 70.134349,40.3748293 68.926028,40.6543541 C67.6992228,40.9379564 66.5746514,40.429647 65.3229724,40.693995 C63.7830763,41.0192768 62.0966755,40.6246801 60.4725735,40.6011221 C57.8368592,40.5630669 55.2000039,40.5397354 52.5645178,40.5728072 C49.5607163,40.6104094 46.5580558,40.7494923 43.5544826,40.775542 C42.5106941,40.7848293 41.4664492,40.5281829 40.4199223,40.5016801 C39.1536384,40.4695144 37.8837033,40.5370171 36.6169631,40.5913818 C35.6646829,40.6321552 34.7135438,40.7802989 33.764002,40.7633099 C33.2416514,40.7540227 32.7236365,40.5019066 32.1862247,40.3544425 C31.4272302,40.4905807 30.5762711,40.8063486 29.7442525,40.7624039 C26.96249,40.6160724 24.1889427,40.3181994 21.4080929,40.1406083 C21.0007553,40.1147851 20.5717386,40.4262492 20.2424455,40.5483431 C19.7835345,40.5963652 19.3784788,40.6366856 18.9738796,40.681763 C18.6792729,40.7146083 18.3801022,40.8090669 18.0923416,40.7809785 C17.0061078,40.6749674 15.9264918,40.4656635 14.8388889,40.4201331 C14.0011653,40.3847961 13.1563675,40.582774 12.3133954,40.5965917 C10.7634584,40.6219619 9.21215232,40.5626138 7.6619872,40.5861718 C6.29506698,40.6070116 4.91262913,40.5798293 3.56693154,40.7764481 C1.65347143,41.0559729 -0.0708105751,39.7063707 0.0022135436,37.876321 C0.146892579,34.2567685 0.158758998,30.6308735 0.166517811,27.0074702 C0.171766419,24.5121331 0.028912987,22.0163431 0.0407794063,19.5214591 C0.0562970315,16.345658 0.200291466,13.1705365 0.213755288,9.99496188 C0.222426902,7.90373536 0.0962320965,5.81228232 0.0346179963,3.72060276 C0.0234361781,3.34344807 0.0131671614,2.96493425 0.0346179963,2.58845912 C0.122246939,1.04359724 1.00652338,0.212950829 2.57836753,0.212950829 C21.3811653,0.213403867 40.1837349,0.218613812 58.9865327,0.213630387 C59.6674826,0.213403867 60.3189946,0.270260221 60.1181783,1.14870221 C59.8833601,2.17574088 59.9823991,3.09744807 60.5056625,4.00420497 C60.6085809,4.18292873 60.5679612,4.44342597 60.6209037,4.90914972" id="Fill-1" fill="#61AAFF" mask="url(#mask-2)"></path>
                        </g>
                        <path d="M40.4998807,18.434574 C41.0142346,18.434574 41.5321175,18.4759572 42.0420602,18.4259232 C43.0597398,18.326089 44.0231608,18.0141948 44.4865645,16.9447765 C45.0373114,15.6735855 44.7571959,14.424372 44.1094011,13.2801365 C43.9779453,13.0475018 43.5732114,12.8999716 43.281406,12.873318 C42.0039027,12.7571175 40.7224292,12.6610242 39.4407352,12.6310973 C37.8718676,12.5941563 37.7869507,12.7339709 37.9375955,14.4409721 C37.9783997,14.9050725 37.9803848,15.3736153 37.9911924,15.8405214 C38.0569203,18.7198145 37.6554949,18.4242866 40.4998807,18.434574 M34.0611934,26.6915872 C34.0611934,25.8636881 34.1185399,25.3114437 34.0495035,24.7774359 C33.8959914,23.5906481 34.3371182,22.5967483 34.8536778,21.6164092 C35.2131961,20.9346375 35.5074277,20.3223054 34.527685,19.8745713 C34.2881532,19.7649173 34.0825881,19.2512505 34.0825881,18.9234576 C34.0834703,16.3960391 34.0814852,13.8658149 34.197281,11.3426048 C34.273596,9.6718432 35.8290092,8.96388545 37.1523897,9.89863284 C38.3586511,10.7506137 39.3580239,10.6271653 40.3150486,9.56476108 C40.5479636,9.30640794 40.9235831,8.96341784 41.1871563,9.00316448 C42.8164583,9.24842461 44.5236192,8.89304291 46.0726361,9.80511134 C47.9311035,10.8995467 48.5910292,12.752909 48.7652743,14.7671283 C49.0041445,17.5269478 48.136448,19.8077034 45.5481363,20.9986997 C44.7880747,21.3482363 45.0470162,21.6846799 45.4349872,22.2023214 C46.980034,24.2637691 48.3012089,26.4629272 48.9029059,29.0679685 C49.2178704,30.4317458 48.7498349,31.6220407 47.7414189,31.9416504 C46.9182762,32.2025754 45.7693614,31.2944817 45.2585365,30.2715902 C44.0994757,27.9492176 42.865644,25.6663578 41.5841705,23.4173995 C41.307584,22.9320229 40.7471323,22.5579369 40.2411598,22.3035584 C38.6853055,21.5221863 38.0308938,22.0063939 37.9991327,23.7811981 C37.9616369,25.8903418 37.9495059,28.009539 37.7212228,30.0992769 C37.6499808,30.7511217 37.0200517,31.5018656 36.4516597,31.8817967 C35.7813675,32.3299985 35.5069866,31.3814567 35.0356426,31.0674582 C33.1372532,29.8035151 34.5228326,27.9134456 34.0611934,26.6915872" id="Fill-4" fill="#61AAFF"></path>
                        <path d="M17.8918419,24.5107724 C17.8374275,24.5159521 17.7830131,24.5213672 17.7285987,24.5267822 C17.7285987,25.7002073 17.6869617,26.8764577 17.758119,28.0449385 C17.7755228,28.3314671 18.1533395,28.8204727 18.3765047,28.8273004 C19.6156992,28.8663832 20.8678915,28.87274 22.0973928,28.7227658 C23.4733944,28.5548982 24.2781549,27.3409777 24.6222654,26.1722614 C25.4083003,23.4997998 25.2948451,20.6867816 24.9031495,17.9420405 C24.7685455,16.997697 24.2763925,15.973069 23.6613114,15.2728751 C22.196308,13.6045585 20.1860591,13.9355849 18.2954338,14.0128087 C18.0969424,14.0210491 17.758119,14.3431288 17.7418168,14.5434869 C17.6010443,16.2810225 17.4230408,18.0253857 17.4483755,19.7648048 C17.4715071,21.3488344 17.7345468,22.9288617 17.8918419,24.5107724 M14.1262326,23.732413 C14.5135222,23.7102818 14.8536673,23.7561923 15.1455665,23.6507159 C15.3396519,23.5805552 15.5912359,23.2933204 15.5903547,23.1040279 C15.5894735,22.8497544 15.4268912,22.5130774 15.2317043,22.361926 C14.9102848,22.1130676 14.2013553,22.0021761 14.1914418,21.8027597 C14.1482627,20.9354046 14.2751563,20.0536877 14.3921362,19.1853908 C14.4313498,18.8932117 14.6241134,18.6245765 14.7664281,18.3006132 C14.9261465,18.3356935 15.0708844,18.3422858 15.194914,18.3999682 C15.4815259,18.5339327 15.7577837,18.6926182 16.0384475,18.8414153 C16.1069612,18.4804882 16.3285842,18.0345678 16.2052155,17.7798234 C16.0518859,17.4636296 15.636618,17.1952298 15.2909653,17.1121201 C14.9827639,17.0384279 14.615742,17.2453782 14,17.3948816 C14.1319604,15.3157249 14.1859343,13.4202102 14.3991859,11.5451786 C14.5044899,10.6213183 15.1411605,10.0284843 16.0919807,10.0331931 C18.2493908,10.0437878 20.4220018,9.90393741 22.5602457,10.1297229 C25.6446835,10.4558051 27.3385799,12.677402 28.2429165,15.6526373 C28.6658949,17.0438429 28.5718263,18.5781951 28.8060065,19.949153 C29.1300696,21.8458449 29.0278498,23.5975068 28.6498129,25.3444599 C27.9719459,28.476968 26.9570181,31.5018809 23.6513978,32.5312176 C22.5602457,32.8711907 21.3558588,32.816569 20.2003787,32.8907321 C19.1037191,32.9608928 18.003094,32.9557131 16.904672,32.9971503 C15.2295013,33.0602478 14.167429,32.072819 14.1354853,30.3056183 C14.0964919,28.1306381 14.1262326,25.9544808 14.1262326,23.732413" id="Fill-6" fill="#61AAFF"></path>
                        <path d="M63.9649001,14.4508134 C63.1125729,14.9009075 60.9564611,21.5168239 61.3000292,22.5888873 C62.0741964,22.5888873 62.8490828,22.6094098 63.6222909,22.5835235 C64.5582924,22.5520402 65.4926155,22.4813778 66.4274182,22.4275064 C66.2087621,21.5172903 65.8340259,20.6096395 65.8155648,19.6954588 C65.7968639,18.7731157 64.3571384,17.739765 65.9452719,16.8960136 C65.8167635,16.6688676 65.7398024,16.3363111 65.5444025,16.244893 C65.358353,16.1576727 65.047871,16.3225517 64.7551308,16.3845854 C64.4866058,15.7274014 64.2427755,15.1306187 63.9649001,14.4508134 M66.6774821,16.4093056 C67.1212676,16.5214793 67.5106288,16.7567876 67.7355185,16.6532426 C68.7834853,16.1707324 69.3387566,16.7367316 69.6468411,17.524746 C70.5315351,19.7852444 71.399686,22.0576364 72.1131953,24.3722393 C72.2918123,24.952231 72.0136972,25.7936504 71.6732458,26.3596495 C71.3603662,26.8801728 70.5919532,27.2966847 71.2623067,27.8783089 C71.6531064,28.2176285 72.4042572,28.1644568 73.0357704,28.1714531 C73.8521344,28.7554093 74.3148605,29.5716421 73.7523965,30.6033603 C73.225656,31.5702463 72.3260972,32.3491656 71.2570321,31.8384371 C70.4425862,31.4492107 69.8340893,30.5103098 69.3250906,29.7020061 C68.900965,29.0287307 68.6501818,28.2071341 68.5125627,27.4198193 C68.3538453,26.5114688 67.8249469,26.287821 67.0164949,26.2896867 C64.5880219,26.2948173 62.159549,26.2913192 59.5884221,26.2913192 C59.1547063,27.5625434 58.7495212,28.8281706 58.2901517,30.0751411 C57.6749417,31.7451533 56.0582774,32.7605469 54.4723016,31.1511691 C53.8683601,30.5382949 53.8427064,29.8944038 54.400615,29.3412312 C55.3241492,28.4251849 55.7465966,27.5623102 55.6662788,26.1203767 C55.5804467,24.5807285 56.3351938,22.9727499 56.8425142,21.4319357 C57.4613205,19.552035 58.1918523,17.7061829 58.9044026,15.8568326 C59.0624008,15.4468506 59.4155591,15.1056653 59.5601311,14.6931179 C59.8593446,13.8395716 60.1338635,12.9704004 60.3196732,12.0879361 C60.7414013,10.0881658 61.2225885,9.61824896 63.3667127,9.28079501 C63.5218338,9.25630803 63.6676045,9.17794969 63.8205679,9.13527237 C65.7877532,8.58816321 67.1222266,9.74977904 66.823013,11.7325251 C66.793763,11.926322 66.8057507,12.1987106 66.9227509,12.3297742 C68.8861002,14.5273061 68.890176,14.5804778 66.6774821,16.4093056" id="Fill-8" fill="#61AAFF"></path>
                        <path d="M79.5961227,32 C78.9039888,31.6774673 78.2180347,31.3871879 77.5645816,31.0335705 C77.4025344,30.945692 77.2565088,30.6544777 77.2549066,30.4553488 C77.217828,26.507829 77.2034086,22.5598418 77.1841826,18.612322 C78.2411516,17.5435234 77.5593174,16.5950903 77.1960844,15.4500992 C76.8374291,14.3200662 77.0736335,12.9845938 77.1086522,11.7407395 C77.1155186,11.4990737 77.4002456,11.2683927 77.5483311,11.0269606 C77.6925257,10.7913715 77.9406319,10.5506405 77.9438362,10.3092084 C77.9603156,9.13009434 78.1523461,8.95901177 79.3924193,9.21984257 C79.4105008,9.43579925 79.4356776,9.66367561 79.4468928,9.89201941 C79.456048,10.0794623 79.4487238,10.2676064 79.4487238,10.4672027 C80.0742535,10.4047997 80.6292881,10.3491745 81.1783718,10.2944841 C81.5768523,9.05553787 81.8391491,8.764791 83.93203,9.1730987 C85.2803636,9.43579925 86.5192923,9.19904155 87.8019372,9.13196409 C88.6320859,9.08849229 89.2315232,9.22568555 89.7133162,10.024772 C90.2131906,10.8535408 90.0030785,11.5385722 89.5146481,12.1553576 C89.2736372,12.4598939 88.7765093,12.6882377 88.3835219,12.7085713 C86.2931587,12.8163159 84.1991333,12.8838608 82.1064812,12.8864317 C81.3097491,12.8873666 81.0087715,13.1365114 81.0554631,13.9571 C81.1152009,15.0036953 81.1293914,16.0577695 81.0854464,17.1052997 C81.0479101,17.9964715 81.430369,18.2507582 82.2451826,18.2290223 C83.7432038,18.1885888 85.2494647,18.1479217 86.7399329,18.2678197 C87.3544763,18.3171345 88.0873509,18.6382649 88.4975043,19.0902781 C89.0303375,19.6778485 87.634168,22.0068618 86.8044771,22.016678 C85.3183577,22.0337396 83.830865,22.0552417 82.3463477,22.0052258 C81.453257,21.9748423 81.0268531,22.171634 81.0946016,23.2341221 C81.1884425,24.7021134 81.149304,26.1871661 81.0501989,27.6565596 C80.9970987,28.443259 81.5228366,29.4657811 80.3976613,29.9551894 C80.6798706,30.8793157 80.1033213,31.4425794 79.5961227,32" id="Fill-10" fill="#61AAFF"></path>
                        <path d="M108.342794,14.2148468 C107.21862,14.2148468 106.093551,14.2439885 104.970495,14.2074419 C103.511775,14.1603853 103.3407,14.3177982 103.316325,15.816685 C103.266456,18.9045111 103.169402,21.9916207 103.153971,25.0789691 C103.145026,26.8200664 103.352105,28.5659411 103.27719,30.300589 C103.242751,31.1007915 102.949129,32.088743 102.433221,32.6025447 C102.01146,33.0224718 101.032643,33.0833828 100.396647,32.9075771 C99.6202137,32.6925973 99.2827602,31.9401681 99.261292,30.9541275 C99.2255116,29.3372407 99.3395615,27.8715564 100.440702,26.5914713 C100.782404,26.1942364 100.957505,25.3768356 100.043987,25.1200542 C99.380038,24.9334995 99.2735915,24.4261472 99.2807475,23.7563658 C99.3084773,21.0896611 99.2863382,18.4222399 99.2865618,15.7552963 C99.2865618,14.2048144 99.2695662,14.1842719 97.7688038,14.1833164 C96.7627048,14.1825998 95.7320069,14.3220978 94.7601229,14.1276606 C94.171536,14.0098994 93.4621904,13.4939479 93.1884706,12.9414499 C92.8342451,12.2265227 92.9514257,11.4731381 93.7792938,10.8110004 C95.398355,9.51586665 97.0634834,10.1201987 98.7462784,10.2838222 C99.2355748,10.3315955 99.7291202,10.3533323 100.220653,10.3499882 C100.817514,10.3456886 101.414151,10.2995874 102.011013,10.2764173 C102.796615,10.2456036 103.582441,10.1963971 104.368267,10.1973525 C105.578538,10.1985469 106.809829,10.0965509 107.992818,10.2993485 C109.027764,10.4770651 109.240881,11.353466 108.743311,12.3722313 C108.535561,12.7974135 108.415249,13.2715633 108.255132,13.7232597 C108.284427,13.8871221 108.313499,14.0509844 108.342794,14.2148468" id="Fill-12" fill="#61AAFF"></path>
                        <path d="M63.0325063,50 L65.7374307,50 C65.7374307,50.4897393 65.7346324,50.9152863 65.7378613,51.34127 C65.7600328,54.2100549 65.7800517,57.0790582 65.8084657,59.9480616 C65.8175065,60.8478456 66.2555553,61.4554892 67.0978575,61.7384594 C67.9265984,62.0170627 68.569357,61.6618216 69.0978139,61.0513396 C69.9379636,60.0803763 70.2619259,58.9172728 70.2617107,57.6449986 C70.2612802,55.1414985 70.2614954,52.6382167 70.2614954,50.0351529 L73,50.0351529 L73,63.7063686 L70.8590499,63.7063686 C70.757879,62.9888994 70.6530486,62.2482861 70.5208806,61.3131307 C69.7810409,62.6253613 68.9520847,63.6142286 67.5253587,63.9137927 C65.3351147,64.3736193 63.1453012,62.949598 63.0654407,60.6991553 C62.9408067,57.183862 63.0325063,53.6607085 63.0325063,50" id="Fill-14" fill="#61AAFF"></path>
                        <path d="M42.7728913,64 L40.0555736,64 C40.0359662,63.578005 40.0031453,63.1939373 40.0027191,62.8094336 C39.9988828,59.1056432 40.0001616,55.4020707 40.0003747,51.6980623 C40.0005878,50.2086555 40.0012272,50.2069117 41.429151,50.2339403 C41.675308,50.2382998 41.9208257,50.2666362 42.2321983,50.2888694 C42.3180869,51.1544386 42.4026967,52.0058396 42.5096844,53.0837141 C42.8517468,52.5028171 43.0684928,52.1085047 43.3093218,51.7305402 C44.2515384,50.2511602 45.6008198,49.7245384 47.3682485,50.1343268 C48.6930208,50.4414502 49.9127235,51.7183337 49.9510856,53.2402185 C50.0408104,56.7901202 49.9796441,60.3439455 49.9796441,63.9701378 L47.3070822,63.9701378 C47.2883274,63.594571 47.2531621,63.2115931 47.2525227,62.8286152 C47.2467684,60.0326807 47.244211,57.2367461 47.2488997,54.4408115 C47.2506046,53.3705661 46.9607574,52.5137158 45.817779,52.217273 C44.9531391,51.9931972 43.968298,52.4398231 43.5169035,53.5194414 C43.1371184,54.4281691 42.8442875,55.4410878 42.8057122,56.4200028 C42.7072494,58.9136093 42.7728913,61.4139731 42.7728913,64" id="Fill-16" fill="#61AAFF"></path>
                        <path d="M28.7037713,56.0573993 L33.3289013,56.0573993 C33.3810476,54.7885879 33.6084323,53.4273662 32.3269315,52.7976496 C31.6331396,52.4566008 30.546572,52.4405891 29.8371139,52.7528169 C28.5258473,53.3292375 28.7008618,54.7087582 28.7037713,56.0573993 M36,57.6018403 L28.8447677,57.6018403 C28.8447677,58.8132384 28.7572604,59.9155283 28.8700575,60.9960881 C28.9754691,62.0036804 29.9745295,62.6416315 31.105634,62.6180715 C32.2676235,62.5935965 33.1395632,61.8630063 33.2964497,60.7602589 C33.3441199,60.4237849 33.3398677,60.0797625 33.3644861,59.6506494 L35.778658,59.6506494 C36.1345061,62.2953217 34.7592316,64.3519079 32.3032083,64.8537597 C29.3366885,65.4599162 26.5823348,64.1487882 26.2423768,61.5317932 C25.9039854,58.9273789 25.9404654,56.2170586 26.2246963,53.6000636 C26.4722233,51.3172553 28.8378298,49.8567612 31.235664,50.0111596 C33.9365287,50.1854582 35.5080792,51.6242221 35.7918624,54.2421321 C35.905331,55.2886098 35.9252495,56.3456096 36,57.6018403" id="Fill-18" fill="#61AAFF"></path>
                        <path d="M93.451084,56.0481026 C93.5401857,54.6458543 93.6780325,53.2367614 92.2603415,52.6857641 C91.537326,52.4046756 90.4282033,52.4977633 89.7469045,52.8796969 C88.5913039,53.5274324 88.6940088,54.8126365 88.8241471,56.0481026 L93.451084,56.0481026 Z M95.9785778,57.5575843 C93.9287867,57.5575843 91.9359028,57.6041281 89.9470998,57.5372783 C89.0023504,57.5055646 88.6314337,57.8028522 88.7540901,58.753123 C88.8216532,59.2769697 88.7574909,59.8190689 88.8354832,60.3401778 C89.0796625,61.9756017 89.8137874,62.6388519 91.2512032,62.5861478 C92.6387401,62.5354971 93.3656099,61.7271395 93.4742097,60.1165846 C93.4841854,59.9691957 93.5077645,59.8224913 93.5331573,59.6077962 L95.8751927,59.6077962 C96.4673898,62.7168813 94.1593627,65.1983086 90.8818735,64.9874922 C87.7812272,64.7878555 85.9719878,62.8793286 86.0003281,59.7444618 C86.0186925,57.7033761 85.9400201,55.6312611 86.2592443,53.6301027 C86.6380963,51.257506 88.933427,49.8087139 91.408548,50.0204429 C94.212869,50.2604632 95.7935729,51.7576245 95.9683753,54.4103971 C96.032991,55.3896437 95.9785778,56.3766476 95.9785778,57.5575843 L95.9785778,57.5575843 Z" id="Fill-20" fill="#61AAFF"></path>
                        <path d="M108.809944,54.4745585 L106.604092,54.4745585 C105.898685,52.6074608 105.347222,52.1916363 103.497152,52.5055609 C102.936111,52.6006065 102.248264,53.1050793 102.000357,53.6102376 C101.652557,54.3178247 102.066952,55.0366071 102.816148,55.380462 C104.085106,55.9626163 105.408115,56.4321324 106.654951,57.0567831 C108.999923,58.2313731 109.682752,60.8686601 108.26327,63.0170106 C107.088047,64.7947747 104.19549,65.5071598 101.76887,64.6163357 C99.7443304,63.872878 98.8056118,62.3247314 99.0334494,60.023988 L101.25709,60.023988 C101.376825,61.326981 101.809238,62.4225187 103.344348,62.6724703 C104.632464,62.8819819 105.812476,62.4551906 106.160732,61.5310092 C106.570566,60.4425542 106.064945,59.4806745 104.68948,58.8452855 C103.970389,58.5133113 103.215719,58.2587901 102.47633,57.9713685 C99.919941,56.9777307 98.7880507,55.3192306 99.2952689,53.3086506 C99.8423987,51.1411082 102.007883,49.7764269 104.496993,50.0302627 C106.951892,50.2806713 108.165202,51.1056945 108.643684,52.9143027 C108.766383,53.378107 108.750875,53.8791527 108.809944,54.4745585" id="Fill-22" fill="#61AAFF"></path>
                        <path d="M13,50.1746588 C13.2323438,50.1005525 13.2991318,50.0639379 13.3680952,50.0595529 C15.6926211,49.9034473 15.7078496,49.89972 16.2984989,52.1610589 C16.9481043,54.648444 17.5644246,57.1450376 18.2014121,59.6361499 C18.2712458,59.9097733 18.3811087,60.1733111 18.5059826,60.5392385 C19.3185333,57.3346884 20.131084,54.2542335 20.8653165,51.1551424 C21.0700314,50.291738 21.4150664,49.8933618 22.3226865,50.024473 C22.8099994,50.0952905 23.315804,50.0371894 24,50.0371894 C23.4915848,51.709405 23.0312481,53.2191568 22.5735221,54.7295663 C21.7124577,57.5703815 20.8272452,60.4041808 20.0120839,63.2583702 C19.8352155,63.8779692 19.4967071,64.0424063 19.0009098,63.9172149 C18.3397741,63.7501468 17.3690643,64.4697235 17.0331665,63.3940856 C15.6639044,59.0084387 14.3468544,54.6063481 13,50.1746588" id="Fill-24" fill="#61AAFF"></path>
                        <path d="M54,52.3128228 L54,49.8303174 C54.7319828,49.7951613 55.3983729,49.7631572 56.105599,49.7294558 C56.2658797,48.764724 56.1239751,47.5834791 56.6737279,46.9181803 C57.1609507,46.3285277 58.4171638,46.312768 59.4827245,46 L59.4827245,49.74764 L62,49.74764 L62,52.3346439 L59.473026,52.3346439 C59.8002233,56.5623464 58.7854522,60.7546504 60.4502792,64.9811407 C59.4906365,64.9811407 58.5754028,65.0400575 57.6767587,64.9496215 C57.3551763,64.9173748 56.8904131,64.5721177 56.8077205,64.2865047 C56.5287606,63.3249248 56.2523528,62.3294011 56.2278513,61.3411511 C56.1543468,58.4035561 56.201308,55.4632941 56.201308,52.4553869 C55.4170043,52.4044711 54.7582709,52.3617989 54,52.3128228" id="Fill-26" fill="#61AAFF"></path>
                        <path d="M85,50.1876585 L85,52.7058436 C84.3143684,52.7058436 83.6580309,52.6791197 83.0054814,52.7111008 C81.031418,52.8072632 80.2993201,53.4712001 80.2902288,55.1854761 C80.276592,57.7038802 80.2864408,60.2222843 80.2864408,62.7404694 C80.2861883,63.1356334 80.2864408,63.5307975 80.2864408,64 L77.0676342,64 C77.0451586,63.6146932 77.0039955,63.2285101 77.0034904,62.8423271 C76.9984397,59.1198117 77.0002075,55.3972963 77.0007125,51.6745618 C77.0007125,50.1703537 77.0014701,50.1683822 78.691432,50.1951062 C78.9813418,50.1999253 79.2707465,50.2286207 79.6275779,50.2505255 C79.7472794,50.97952 79.8642029,51.6901143 79.9846619,52.4219564 C82.5039476,49.8384947 82.6327402,49.7802278 85,50.1876585" id="Fill-28" fill="#61AAFF"></path>
                    </g>
                </g>
            </g>
        </g>
    </g>
</svg>