<?xml version="1.0" encoding="UTF-8"?>
<svg width="16px" height="16px" viewBox="0 0 16 16" version="1.1" xmlns="http://www.w3.org/2000/svg" xmlns:xlink="http://www.w3.org/1999/xlink">
    <!-- Generator: Sketch 53.1 (72631) - https://sketchapp.com -->
    <title>Shape</title>
    <desc>Created with Sketch.</desc>
    <g id="Symbols" stroke="none" stroke-width="1" fill="none" fill-rule="evenodd">
        <g id="footer" transform="translate(-1155.000000, -83.000000)" fill="#61AAFF" fill-rule="nonzero">
            <g id="Group-4">
                <g transform="translate(380.000000, 80.000000)">
                    <g id="Group-7" transform="translate(724.000000, 3.000000)">
                        <g id="Group-2" transform="translate(51.000000, 0.000000)">
                            <path d="M14.0952381,0 L1.9047619,0 C0.853333333,0 0,0.853333333 0,1.9047619 L0,14.0952381 C0,15.1466667 0.853333333,16 1.9047619,16 L14.0952381,16 C15.1466667,16 16,15.1466667 16,14.0952381 L16,1.9047619 C16,0.853333333 15.1466667,0 14.0952381,0 Z M12.5714286,5.71428571 L11.8095238,5.71428571 C10.9942857,5.71428571 10.6666667,5.9047619 10.6666667,6.47619048 L10.6666667,7.61904762 L12.5714286,7.61904762 L12.1904762,9.52380952 L10.6666667,9.52380952 L10.6666667,15.2380952 L8.76190476,15.2380952 L8.76190476,9.52380952 L7.23809524,9.52380952 L7.23809524,7.61904762 L8.76190476,7.61904762 L8.76190476,6.47619048 C8.76190476,4.95238095 9.52380952,3.80952381 11.047619,3.80952381 C12.152381,3.80952381 12.5714286,4.19047619 12.5714286,4.19047619 L12.5714286,5.71428571 Z" id="Shape"></path>
                        </g>
                    </g>
                </g>
            </g>
        </g>
    </g>
</svg>