<?xml version="1.0" encoding="UTF-8"?>
<svg width="117px" height="103px" viewBox="0 0 117 103" version="1.1" xmlns="http://www.w3.org/2000/svg" xmlns:xlink="http://www.w3.org/1999/xlink">
    <!-- Generator: Sketch 53.1 (72631) - https://sketchapp.com -->
    <title>Group 8</title>
    <desc>Created with Sketch.</desc>
    <defs>
        <path d="M97.5304833,89.9321203 C97.5304833,89.9321203 98.0350335,91.7927525 95.0930425,92.5349939 C93.2376635,92.9925935 91.3626833,93.1984549 89.4869288,93.1505112 L8.07640807,93.1505112 C8.07640807,93.1505112 5.92780406,93.2611434 2.5921664,92.5470629 C-0.485102532,91.8872928 0.0328536251,89.7309708 0.0328536251,89.7309708 L0.0328536251,88.1217753 L97.5304833,88.1217753 L97.5304833,89.9321203 L97.5304833,89.9321203 Z" id="path-1"></path>
        <filter x="-15.4%" y="-297.9%" width="130.7%" height="695.8%" filterUnits="objectBoundingBox" id="filter-2">
            <feOffset dx="0" dy="0" in="SourceAlpha" result="shadowOffsetOuter1"></feOffset>
            <feGaussianBlur stdDeviation="5" in="shadowOffsetOuter1" result="shadowBlurOuter1"></feGaussianBlur>
            <feColorMatrix values="0 0 0 0 0   0 0 0 0 0   0 0 0 0 0  0 0 0 1 0" type="matrix" in="shadowBlurOuter1"></feColorMatrix>
        </filter>
        <path d="M77.0504545,40.6252051 L82.9369891,40.6252051 L82.9369891,92.1323828 L15.346958,92.1323828 L15.346958,40.6252051 L21.3386093,40.6252051 L21.3386093,28.0112024 C21.3386093,23.0356542 22.5824777,18.4105662 25.0702518,14.1357994 C27.5580258,9.86103271 30.9392455,6.47981302 35.2140123,3.99203894 C39.488779,1.50426485 44.1313863,0.242877199 49.1419736,0.207838127 C54.1525608,0.172799055 58.7951682,1.41666744 63.0699349,3.93948059 C67.3447016,6.46229375 70.7434406,9.86103271 73.2662537,14.1357994 C75.7890669,18.4105662 77.0504545,23.0356542 77.0504545,28.0112024 L77.0504545,40.6252051 Z M31.7451615,28.0112024 L31.7451615,40.6252051 L66.5387856,40.6252051 L66.5387856,28.0112024 C66.5387856,24.9277641 65.7504183,22.0546033 64.1736601,19.3916339 C62.5969019,16.7286645 60.4770699,14.6088324 57.8141004,13.0320742 C55.151131,11.455316 52.2604509,10.6669487 49.1419736,10.6669487 C46.0234962,10.6669487 43.1328162,11.455316 40.4698467,13.0320742 C37.8068773,14.6088324 35.6870452,16.7286645 34.110287,19.3916339 C32.5335288,22.0546033 31.7451615,24.9277641 31.7451615,28.0112024 Z M53.9247829,78.0467464 L52.4531493,63.9611101 C53.3641651,63.400485 54.0824553,62.6471562 54.6080414,61.7011013 C55.1336275,60.7550464 55.3964166,59.7214092 55.3964166,58.600159 C55.3964166,56.8482054 54.783242,55.3590672 53.5568745,54.1326997 C52.330507,52.9063322 50.8588881,52.2931576 49.1419736,52.2931576 C47.4250591,52.2931576 45.9534401,52.9063322 44.7270726,54.1326997 C43.5007051,55.3590672 42.8875306,56.8482054 42.8875306,58.600159 C42.8875306,59.7214092 43.1503197,60.7375271 43.6759057,61.6485429 C44.2014918,62.5595588 44.919782,63.2953683 45.8307979,63.8559934 L44.3591642,78.0467464 L53.9247829,78.0467464 Z" id="path-3"></path>
        <filter x="-8.1%" y="-6.0%" width="116.3%" height="112.0%" filterUnits="objectBoundingBox" id="filter-4">
            <feGaussianBlur stdDeviation="3.5" in="SourceAlpha" result="shadowBlurInner1"></feGaussianBlur>
            <feOffset dx="0" dy="-4" in="shadowBlurInner1" result="shadowOffsetInner1"></feOffset>
            <feComposite in="shadowOffsetInner1" in2="SourceAlpha" operator="arithmetic" k2="-1" k3="1" result="shadowInnerInner1"></feComposite>
            <feColorMatrix values="0 0 0 0 0   0 0 0 0 0   0 0 0 0 0  0 0 0 0.103855299 0" type="matrix" in="shadowInnerInner1"></feColorMatrix>
        </filter>
    </defs>
    <g id="Desktop" stroke="none" stroke-width="1" fill="none" fill-rule="evenodd">
        <g id="01" transform="translate(-901.000000, -2783.000000)">
            <g id="Group-8" transform="translate(911.000000, 2783.000000)">
                <g id="Shape" opacity="0.200000003" fill="black" fill-opacity="1">
                    <use filter="url(#filter-2)" xlink:href="#path-1"></use>
                </g>
                <g id="">
                    <use fill="#FFFFFF" fill-rule="evenodd" xlink:href="#path-3"></use>
                    <use fill="black" fill-opacity="1" filter="url(#filter-4)" xlink:href="#path-3"></use>
                </g>
                <polygon id="" fill="#F1F1F1" points="82.9369891 40.6252051 82.9369891 92.1323828 15.346958 92.1323828 15.346958 40.6252051"></polygon>
                <path d="M53.9247829,78.0467464 L52.4531493,63.9611101 C53.3641651,63.400485 54.0824553,62.6471562 54.6080414,61.7011013 C55.1336275,60.7550464 55.3964166,59.7214092 55.3964166,58.600159 C55.3964166,56.8482054 54.783242,55.3590672 53.5568745,54.1326997 C52.330507,52.9063322 50.8588881,52.2931576 49.1419736,52.2931576 C47.4250591,52.2931576 45.9534401,52.9063322 44.7270726,54.1326997 C43.5007051,55.3590672 42.8875306,56.8482054 42.8875306,58.600159 C42.8875306,59.7214092 43.1503197,60.7375271 43.6759057,61.6485429 C44.2014918,62.5595588 44.919782,63.2953683 45.8307979,63.8559934 L44.3591642,78.0467464 L53.9247829,78.0467464 Z" id="Path" fill="#001833"></path>
            </g>
        </g>
    </g>
</svg>