<?xml version="1.0" encoding="UTF-8"?>
<svg width="159px" height="65px" viewBox="0 0 159 65" version="1.1" xmlns="http://www.w3.org/2000/svg" xmlns:xlink="http://www.w3.org/1999/xlink">
    <!-- Generator: Sketch 53.1 (72631) - https://sketchapp.com -->
    <title>Group 5</title>
    <desc>Created with Sketch.</desc>
    <g id="Desktop" stroke="none" stroke-width="1" fill="none" fill-rule="evenodd">
        <g id="01" transform="translate(-489.000000, -4946.000000)" fill="#61AAFF" fill-rule="nonzero">
            <g id="Group-4" transform="translate(359.000000, 4782.000000)">
                <g id="Group-3" transform="translate(130.000000, 164.000000)">
                    <g id="Group-5">
                        <path d="M19.9955212,57.5378628 L20.474708,57.5378628 C22.0065016,57.5378628 23.6666131,57.2516586 23.6666131,55.3382936 C23.6666131,53.4589528 21.8781839,53.2347929 20.3945094,53.2347929 L19.9955212,53.2347929 L19.9955212,57.5378628 L19.9955212,57.5378628 Z M19.9955212,63.9104092 L18.495807,63.9104092 L18.495807,51.8958376 L20.2200774,51.8958376 C23.9232487,51.8958376 25.0720939,53.1707472 25.0720939,55.3703164 C25.0720939,57.9041241 23.1393072,58.8748167 20.8576564,58.8748167 L19.9955212,58.8748167 L19.9955212,63.9104092 Z M34.1706275,60.9002617 L32.7972261,63.9124106 L31.1852338,63.9124106 L36.931465,51.3894764 L42.6776962,63.9124106 L41.065704,63.9124106 L39.6923026,60.9002617 L34.1686225,60.9002617 L34.1706275,60.9002617 Z M36.931465,54.6698167 L34.7921668,59.5292836 L39.0707633,59.5292836 L36.931465,54.6698167 Z M57.5565454,63.9124106 L55.7380417,63.9124106 L52.1952676,58.8287838 L51.5717233,58.8287838 L51.5717233,63.9124106 L50.0720091,63.9124106 L50.0720091,51.8978391 L51.8925178,51.8978391 C52.9611644,51.8978391 54.1120147,51.9138505 55.0683832,52.454236 C56.0728709,53.0446572 56.6482961,54.175464 56.6482961,55.3222822 C56.6482961,57.0435101 55.4994508,58.4765325 53.7591407,58.684681 L57.5585504,63.9104092 L57.5565454,63.9124106 Z M51.5697184,57.5858971 L52.0489051,57.5858971 C53.5806988,57.5858971 55.2408103,57.2976915 55.2408103,55.3863279 C55.2408103,53.5069871 53.452381,53.2347929 51.9687065,53.2347929 L51.5697184,53.2347929 L51.5697184,57.5858971 Z M68.3633096,63.9124106 L66.8635954,63.9124106 L66.8635954,53.2688172 L64.0065195,53.2688172 L64.0065195,51.8978391 L71.2223905,51.8978391 L71.2223905,53.2688172 L68.3653146,53.2688172 L68.3633096,63.9124106 Z M78.6447729,51.3234293 L87.6791475,60.7721703 L87.6791475,51.8978391 L89.1788618,51.8978391 L89.1788618,64.4047619 L80.1444871,54.9560209 L80.1444871,63.9104092 L78.6447729,63.9104092 L78.6447729,51.3234293 Z M98.0247697,51.8978391 L104.488779,51.8978391 L104.488779,53.2688172 L99.5244839,53.2688172 L99.5244839,56.631216 L104.344421,56.631216 L104.344421,58.0021941 L99.5244839,58.0021941 L99.5244839,62.543434 L104.488779,62.543434 L104.488779,63.9144121 L98.0247697,63.9144121 L98.0247697,51.8978391 Z M120.211718,63.9124106 L118.393214,63.9124106 L114.848435,58.8287838 L114.226896,58.8287838 L114.226896,63.9124106 L112.727182,63.9124106 L112.727182,51.8978391 L114.547691,51.8978391 C115.618342,51.8978391 116.767187,51.9138505 117.723556,52.454236 C118.728044,53.0446572 119.303469,54.175464 119.303469,55.3222822 C119.303469,57.0435101 118.152619,58.4765325 116.414314,58.684681 L120.213723,63.9104092 L120.211718,63.9124106 Z M114.226896,57.5858971 L114.706083,57.5858971 C116.237877,57.5858971 117.897988,57.2976915 117.897988,55.3863279 C117.897988,53.5069871 116.109559,53.2347929 114.625884,53.2347929 L114.226896,53.2347929 L114.226896,57.5858971 Z M133.127706,54.175464 C132.680599,53.4249285 132.105174,53.0446572 131.194919,53.0446572 C130.238551,53.0446572 129.183939,53.6971227 129.183939,54.7478724 C129.183939,55.6885435 130.108228,56.1828962 130.86009,56.4691003 L131.722225,56.8033388 C133.428451,57.4718157 134.707619,58.4124868 134.707619,60.419919 C134.707619,62.6034768 133.015428,64.1645906 130.86009,64.1645906 C128.913269,64.1645906 127.39551,62.7315682 127.140879,60.8041931 L128.658638,60.4859661 C128.642598,61.8089099 129.695205,62.763591 130.988408,62.763591 C132.281611,62.763591 133.207905,61.6808186 133.207905,60.419919 C133.207905,59.1309994 132.169333,58.5705996 131.132765,58.1422941 L130.304715,57.7920442 C128.931313,57.2016229 127.68623,56.4210661 127.68623,54.7478724 C127.68623,52.8044859 129.408495,51.6416563 131.229004,51.6416563 C132.570326,51.6416563 133.673057,52.2941218 134.326676,53.4569514 L133.129711,54.1734626 L133.127706,54.175464 Z M77.299441,39.3408805 C76.3651271,37.5536054 76.3811668,35.3940647 76.3771569,33.6568253 L76.3771569,15.5238887 L73.1652021,15.5238887 L73.1652021,9.72975496 L73.574215,9.77178495 C74.7852142,9.89387205 75.3265549,9.95991917 76.4433207,10.019962 L76.4433207,2.86886017 L82.7409174,0.595238095 L82.7409174,10.0379749 L88.058086,10.0379749 C89.0304943,10.0379749 89.9247089,9.90988347 90.907142,9.64769642 L91.432443,9.50759646 L91.372294,10.047982 C91.1697925,11.8552714 91.0294449,13.0341124 90.7848391,13.8566993 C90.560283,14.669279 90.1151807,15.1996574 89.4515371,15.3817873 C89.0204695,15.5078773 88.5332629,15.5218873 87.9217484,15.5238887 L82.7409174,15.5238887 L82.7409174,32.3859186 C82.7369075,33.8409567 82.8331459,35.0578248 83.2080744,35.8343789 C83.5890179,36.6009257 84.1323635,37.0052142 85.381457,37.0252284 C87.6149886,37.0312327 89.6199542,35.5181532 91.2640259,33.734881 L91.9457142,32.9983555 L91.9096248,34.0010709 C91.8073716,36.8491028 91.6790538,38.3401666 91.4464778,39.2488148 C91.2379614,40.1574631 90.7728094,40.5337315 90.3397368,40.7779057 C89.2610653,41.4944169 86.9333004,42.4390909 83.7734747,42.4430937 L83.7153307,42.4430937 C80.1605268,42.4430937 78.2237301,41.130157 77.2954311,39.3388791 L77.299441,39.3408805 Z M95.3581655,41.9107139 L95.5386124,41.4123584 C96.0558935,39.9833389 96.3806979,39.2187934 96.3847079,30.5145835 L96.3847079,24.8405355 C96.3847079,22.1025821 96.3847079,18.5000119 96.1842113,15.8361114 C96.1180475,14.1389006 95.8072778,13.3523394 95.4684386,12.4036626 L95.3441308,12.0574156 L101.882323,9.62968357 L102.247227,12.4857212 C103.526395,11.240833 105.643639,9.49758932 109.134284,9.50359361 C109.310721,9.50359361 109.910205,9.49959075 110.50568,9.67771783 C111.08311,9.83583064 111.784848,10.2821491 111.782843,11.1487673 C111.778833,11.6351143 111.630466,12.0554142 111.433979,12.7899382 L110.385382,16.2303927 L110.024488,16.1103071 C109.406959,15.90416 108.955842,15.7280343 108.001478,15.7260329 C105.050169,15.7300358 103.309859,17.4212423 102.618146,18.1137364 L102.618146,30.516585 C102.618146,35.1278748 102.6803,36.9131485 102.816637,38.5663279 C102.95097,40.0053546 103.195576,40.6057829 103.468251,41.4243669 L103.630653,41.9127153 L95.3581655,41.9127153 L95.3581655,41.9107139 Z M115.072992,41.9107139 L115.265468,41.4063541 C115.776734,40.0553903 116.107554,39.216792 116.109559,30.5145835 L116.111564,24.7044384 C116.111564,22.1025821 116.109559,18.3639149 115.909062,15.8521229 C115.776734,14.2169563 115.45995,13.2682795 115.131136,12.4136698 L114.990788,12.0474084 L122.40916,9.62968357 L122.40916,30.5145835 C122.40916,35.1258734 122.475324,36.9131485 122.607652,38.5643265 C122.73998,40.0033531 122.988595,40.6037815 123.259266,41.4223655 L123.423673,41.9127153 L115.070987,41.9127153 L115.072992,41.9107139 Z M136.357706,10.0379749 L136.676495,10.0379749 L136.724614,10.3542005 C137.049419,12.475714 138.017817,14.3650619 139.272925,16.1403285 L143.012186,21.4961495 C148.740373,14.8954403 149.383967,12.9080224 149.843104,10.3461947 L149.897238,10.0379749 L156.960731,10.0379749 L156.782289,10.534329 C154.649006,16.4565541 150.753358,21.4401095 146.340429,25.8832794 L153.189391,35.6502475 C155.188342,38.5062851 156.303103,39.6771204 157.776752,41.2882698 L158.348168,41.9107139 L148.766437,41.9107139 L148.766437,41.5384483 C148.752403,40.119436 148.768442,39.9112875 146.420628,36.3387387 L141.9275,29.7700524 C139.948599,31.8415302 135.692057,36.6409543 134.781803,41.6064969 L134.725664,41.9107139 L127.255162,41.9107139 L127.445634,41.4083555 C129.781419,35.2139362 134.005881,30.0922823 138.555148,25.3989339 L132.6405,16.764774 C131.168855,14.6352547 129.639066,12.5757854 127.97695,10.6524132 L127.447639,10.0379749 L136.357706,10.0379749 Z M68.8846007,33.0543955 C68.9166801,37.107287 69.6063883,37.9218681 71.2264004,39.3128605 L71.6253886,39.647099 L67.6094426,42.0688267 C67.3427822,42.1949167 66.8796351,42.4951309 66.3703739,42.5091408 C65.664626,42.4811209 64.6721681,41.8226511 63.864167,39.717149 C62.7133168,40.74188 60.3454525,42.5091408 56.0628461,42.5091408 C52.6904941,42.5171466 50.4730022,41.2182199 49.1557399,39.4289433 C47.8364726,37.6416682 47.3953801,35.4160804 47.3933752,33.5227296 C47.3833503,29.183634 49.5908174,26.3836364 52.6022756,24.7124441 C55.5094756,23.0892861 59.1605179,22.4428249 62.4486613,22.218665 L62.4486613,19.5607687 C62.4526713,18.2318206 62.3684627,17.0289625 61.8391518,16.2203856 C61.3178608,15.4218159 60.3554773,14.8654189 58.2723181,14.8574132 C57.6307292,14.8574132 53.279954,14.8554118 49.7071054,18.6140933 L49.2499733,19.094436 L48.1973663,15.1516231 C48.2073912,15.0675631 48.0670436,14.5491933 48.0630337,14.0828606 C48.1211777,12.7399025 49.5888124,11.7231771 51.6078127,10.8825774 C53.6508726,10.061992 56.3475512,9.50359361 59.0763093,9.50159218 C63.8561471,9.4955879 66.3743838,10.8885817 67.6395171,12.7379011 C68.8986354,14.5812162 68.8805907,16.7547668 68.8846007,18.2258163 L68.8846007,33.0543955 Z M62.4847507,32.930307 L62.4847507,27.6565445 C58.3805863,27.8426773 53.6548825,29.0215183 53.6548825,33.4927082 C53.6548825,34.7315921 54.08996,37.2794098 57.4482773,37.2794098 C58.3805863,37.2794098 59.4372031,37.0292313 60.371517,36.4708329 C62.175986,35.3540362 62.3604428,34.0511066 62.4847507,32.930307 Z M34.7400377,41.9107139 L34.9224896,41.4123584 C35.4417757,39.9833389 35.7665801,39.2187934 35.77059,30.5145835 L35.77059,21.5661995 C35.7745999,19.6288173 35.7565552,17.9236007 35.2352642,16.7907925 C34.7119682,15.6779986 33.795699,15.0075203 31.5922418,14.987506 C27.800852,14.9915089 25.7217028,16.9969396 24.7372647,17.9796407 L24.7372647,30.5145835 C24.7372647,34.4593979 24.7392697,36.4508186 24.9357563,38.5663279 C25.070089,40.0754045 25.3126898,40.5977772 25.5873701,41.4223655 L25.7497723,41.9107139 L17.2868128,41.9107139 L17.5374335,41.3803355 C17.8301584,40.7518872 18.0366699,40.3075702 18.1970671,38.842525 C18.3534545,37.383484 18.437663,34.9517492 18.437663,30.5125821 L18.437663,20.899724 C18.4416729,19.6308187 18.4276382,18.1237435 17.8802826,16.998941 C17.3289171,15.8861471 16.344479,15.071566 14.0588183,15.0555546 C10.995231,15.057556 9.11657826,16.5566255 7.4043377,17.9976535 L7.4043377,30.5125821 C7.4043377,34.4573965 7.40634266,36.4488172 7.60282929,38.5643265 C7.73716198,40.0734031 7.98176777,40.5957758 8.25444308,41.4203641 L8.41684529,41.9087125 L0.0781936556,41.9087125 L0.258640553,41.4103569 C0.773916694,39.9813374 1.10072608,39.216792 1.10473601,30.5125821 L1.10473601,24.7724869 C1.10473601,24.3742028 1.10473601,18.622099 0.906244419,15.8501214 C0.771911729,14.1489077 0.457132141,13.350338 0.124307863,12.4016612 L0,12.0534127 L6.8168828,9.63368642 L7.12564749,12.5157426 C8.47699426,11.3509115 11.165653,9.49758932 15.5986318,9.50359361 C16.9098793,9.50559504 19.311828,9.70573782 21.4711758,11.0226774 C22.333311,11.5130272 22.8365574,12.1254641 23.2936895,12.7479082 C24.6971654,11.6211043 27.7808024,9.50159218 32.6588835,9.50559504 C35.4738551,9.5176036 39.4657415,10.4282533 41.0857536,13.3123109 C41.935859,14.9334675 42.0661818,16.4305355 42.0641768,19.6968658 L42.0641768,30.516585 C42.0641768,35.1278748 42.1323456,36.9151499 42.2646733,38.5643265 C42.399006,40.0053546 42.6456168,40.6057829 42.9182921,41.4243669 L43.0826993,41.9127153 L34.7360278,41.9127153 L34.7400377,41.9107139 Z" id="Logo_Matrix-Partners"></path>
                    </g>
                </g>
            </g>
        </g>
    </g>
</svg>