<?xml version="1.0" encoding="UTF-8"?>
<svg width="19px" height="16px" viewBox="0 0 19 16" version="1.1" xmlns="http://www.w3.org/2000/svg" xmlns:xlink="http://www.w3.org/1999/xlink">
    <!-- Generator: Sketch 53.1 (72631) - https://sketchapp.com -->
    <title>Group</title>
    <desc>Created with Sketch.</desc>
    <g id="Symbols" stroke="none" stroke-width="1" fill="none" fill-rule="evenodd">
        <g id="footer" transform="translate(-1104.000000, -83.000000)" fill="#61AAFF" fill-rule="nonzero">
            <g id="Group-4">
                <g transform="translate(380.000000, 80.000000)">
                    <g id="Group-7" transform="translate(724.000000, 3.000000)">
                        <g id="Group">
                            <path d="M18.3134766,1.83630933 C17.6383715,2.14880952 16.9147386,2.35863086 16.1539965,2.45386895 C16.9304388,1.96874971 17.5270432,1.20089257 17.8067908,0.287202286 C17.0817307,0.735118857 16.2753155,1.06101181 15.4203725,1.23660686 C14.7352764,0.474702095 13.7590143,0 12.6785607,0 C10.6032905,0 8.92052295,1.752976 8.92052295,3.91666667 C8.92052295,4.2232141 8.95477775,4.52232114 9.01900543,4.80952381 C5.89610879,4.64583314 3.1286057,3.08630933 1.2745645,0.715773714 C0.950571023,1.29613067 0.766451523,1.96874971 0.766451523,2.68601181 C0.766451523,4.04464267 1.42871114,5.24404762 2.43780041,5.94791657 C1.82121387,5.92708305 1.24173689,5.75 0.7350511,5.45684495 C0.7350511,5.4732141 0.7350511,5.48958324 0.7350511,5.50595238 C0.7350511,7.4047619 2.03102466,8.98660686 3.74804698,9.3482141 C3.43404458,9.43749981 3.10148758,9.48511886 2.7589395,9.48511886 C2.5163011,9.48511886 2.28079939,9.46130933 2.05100681,9.41369029 C2.53057412,10.9687497 3.91789383,12.1041665 5.56069704,12.1354164 C4.27614175,13.1860118 2.65617508,13.8110118 0.894906869,13.8110118 C0.590895542,13.8110118 0.29259335,13.7931547 0,13.7559524 C1.6613581,14.8690476 3.63671868,15.5163688 5.75908956,15.5163688 C12.6699972,15.5163688 16.4494443,9.54761905 16.4494443,4.37202362 C16.4494443,4.20238095 16.4451624,4.0312499 16.4394532,3.86458324 C17.1730769,3.31249981 17.8096455,2.62202362 18.3134766,1.83630933 Z" id="Shape"></path>
                        </g>
                    </g>
                </g>
            </g>
        </g>
    </g>
</svg>