<?xml version="1.0" encoding="UTF-8"?>
<svg width="54px" height="54px" viewBox="0 0 54 54" version="1.1" xmlns="http://www.w3.org/2000/svg" xmlns:xlink="http://www.w3.org/1999/xlink">
    <!-- Generator: Sketch 53.1 (72631) - https://sketchapp.com -->
    <title></title>
    <desc>Created with Sketch.</desc>
    <g id="Desktop" stroke="none" stroke-width="1" fill="none" fill-rule="evenodd">
        <g id="02" transform="translate(-133.000000, -4414.000000)" fill="#61AAFF" fill-rule="nonzero">
            <g id="Group-15" transform="translate(22.000000, 4411.000000)">
                <path d="M159.9,3.72 C161.100006,3.72 162.129996,4.1499957 162.99,5.01 C163.850004,5.8700043 164.28,6.899994 164.28,8.1 L164.28,51.9 C164.28,53.100006 163.850004,54.1299957 162.99,54.99 C162.129996,55.8500043 161.100006,56.28 159.9,56.28 L116.1,56.28 C114.899994,56.28 113.880004,55.8500043 113.04,54.99 C112.199996,54.1299957 111.78,53.100006 111.78,51.9 L111.78,8.1 C111.78,6.899994 112.199996,5.8700043 113.04,5.01 C113.880004,4.1499957 114.899994,3.72 116.1,3.72 L159.9,3.72 Z M148.14,47.58 C149.380006,47.58 150.519995,47.2700031 151.56,46.65 C152.600005,46.0299969 153.419997,45.2100051 154.02,44.19 C154.620003,43.1699949 154.92,42.0400062 154.92,40.8 C154.92,39.5599938 154.620003,38.4200052 154.02,37.38 C153.419997,36.3399948 152.600005,35.5100031 151.56,34.89 C150.519995,34.2699969 149.380006,33.96 148.14,33.96 C146.979994,33.96 145.910005,34.2299973 144.93,34.77 C143.949995,35.3100027 143.140003,36.0399954 142.5,36.96 L133.86,32.22 C134.420003,31.219995 134.7,30.1800054 134.7,29.1 C134.7,28.0199946 134.440003,26.9600052 133.92,25.92 L140.46,23.1 C141.100003,24.0200046 141.909995,24.7399974 142.89,25.26 C143.870005,25.7800026 144.919994,26.04 146.04,26.04 C147.280006,26.04 148.419995,25.7300031 149.46,25.11 C150.500005,24.4899969 151.329997,23.6600052 151.95,22.62 C152.570003,21.5799948 152.88,20.4400062 152.88,19.2 C152.88,17.9599938 152.570003,16.8300051 151.95,15.81 C151.329997,14.7899949 150.500005,13.9700031 149.46,13.35 C148.419995,12.7299969 147.290006,12.42 146.07,12.42 C144.849994,12.42 143.720005,12.7299969 142.68,13.35 C141.639995,13.9700031 140.810003,14.7999948 140.19,15.84 C139.569997,16.8800052 139.26,17.999994 139.26,19.2 C139.26,20.000004 139.379999,20.7399966 139.62,21.42 L132.84,24.36 C132.199997,23.6799966 131.450004,23.1500019 130.59,22.77 C129.729996,22.3899981 128.820005,22.2 127.86,22.2 C126.619994,22.2 125.490005,22.5099969 124.47,23.13 C123.449995,23.7500031 122.630003,24.5799948 122.01,25.62 C121.389997,26.6600052 121.08,27.7899939 121.08,29.01 C121.08,30.2300061 121.389997,31.3599948 122.01,32.4 C122.630003,33.4400052 123.459995,34.2699969 124.5,34.89 C125.540005,35.5100031 126.659994,35.82 127.86,35.82 C129.82001,35.82 131.459993,35.120007 132.78,33.72 L141.66,38.64 C141.419999,39.5200044 141.3,40.2399972 141.3,40.8 C141.3,42.0400062 141.609997,43.1699949 142.23,44.19 C142.850003,45.2100051 143.679995,46.0299969 144.72,46.65 C145.760005,47.2700031 146.899994,47.58 148.14,47.58 Z" id=""></path>
            </g>
        </g>
    </g>
</svg>