<?xml version="1.0" encoding="UTF-8"?>
<svg width="36px" height="36px" viewBox="0 0 36 36" version="1.1" xmlns="http://www.w3.org/2000/svg" xmlns:xlink="http://www.w3.org/1999/xlink">
    <!-- Generator: Sketch 53.1 (72631) - https://sketchapp.com -->
    <title></title>
    <desc>Created with Sketch.</desc>
    <g id="Desktop" stroke="none" stroke-width="1" fill="none" fill-rule="evenodd">
        <g id="01" transform="translate(-1182.000000, -3746.000000)" fill="#61AAFF" fill-rule="nonzero">
            <g id="Group-15" transform="translate(1034.000000, 3744.000000)">
                <path d="M180.6,2.48 C181.400004,2.48 182.086664,2.7666638 182.66,3.34 C183.233336,3.9133362 183.52,4.599996 183.52,5.4 L183.52,34.6 C183.52,35.400004 183.233336,36.0866638 182.66,36.66 C182.086664,37.2333362 181.400004,37.52 180.6,37.52 L151.4,37.52 C150.599996,37.52 149.920003,37.2333362 149.36,36.66 C148.799997,36.0866638 148.52,35.400004 148.52,34.6 L148.52,5.4 C148.52,4.599996 148.799997,3.9133362 149.36,3.34 C149.920003,2.7666638 150.599996,2.48 151.4,2.48 L180.6,2.48 Z M172.76,31.72 C173.586671,31.72 174.346663,31.5133354 175.04,31.1 C175.733337,30.6866646 176.279998,30.1400034 176.68,29.46 C177.080002,28.7799966 177.28,28.0266708 177.28,27.2 C177.28,26.3733292 177.080002,25.6133368 176.68,24.92 C176.279998,24.2266632 175.733337,23.6733354 175.04,23.26 C174.346663,22.8466646 173.586671,22.64 172.76,22.64 C171.986663,22.64 171.273337,22.8199982 170.62,23.18 C169.966663,23.5400018 169.426669,24.0266636 169,24.64 L163.24,21.48 C163.613335,20.81333 163.8,20.1200036 163.8,19.4 C163.8,18.6799964 163.626668,17.9733368 163.28,17.28 L167.64,15.4 C168.066669,16.0133364 168.606663,16.4933316 169.26,16.84 C169.913337,17.1866684 170.61333,17.36 171.36,17.36 C172.186671,17.36 172.946663,17.1533354 173.64,16.74 C174.333337,16.3266646 174.886665,15.7733368 175.3,15.08 C175.713335,14.3866632 175.92,13.6266708 175.92,12.8 C175.92,11.9733292 175.713335,11.2200034 175.3,10.54 C174.886665,9.8599966 174.333337,9.3133354 173.64,8.9 C172.946663,8.4866646 172.193337,8.28 171.38,8.28 C170.566663,8.28 169.813337,8.4866646 169.12,8.9 C168.426663,9.3133354 167.873335,9.8666632 167.46,10.56 C167.046665,11.2533368 166.84,11.999996 166.84,12.8 C166.84,13.333336 166.919999,13.8266644 167.08,14.28 L162.56,16.24 C162.133331,15.7866644 161.633336,15.4333346 161.06,15.18 C160.486664,14.9266654 159.880003,14.8 159.24,14.8 C158.413329,14.8 157.660003,15.0066646 156.98,15.42 C156.299997,15.8333354 155.753335,16.3866632 155.34,17.08 C154.926665,17.7733368 154.72,18.5266626 154.72,19.34 C154.72,20.1533374 154.926665,20.9066632 155.34,21.6 C155.753335,22.2933368 156.306663,22.8466646 157,23.26 C157.693337,23.6733354 158.439996,23.88 159.24,23.88 C160.546673,23.88 161.639996,23.413338 162.52,22.48 L168.44,25.76 C168.279999,26.3466696 168.2,26.8266648 168.2,27.2 C168.2,28.0266708 168.406665,28.7799966 168.82,29.46 C169.233335,30.1400034 169.786663,30.6866646 170.48,31.1 C171.173337,31.5133354 171.933329,31.72 172.76,31.72 Z" id=""></path>
            </g>
        </g>
    </g>
</svg>