<?xml version="1.0" encoding="UTF-8"?>
<svg width="40px" height="32px" viewBox="0 0 40 32" version="1.1" xmlns="http://www.w3.org/2000/svg" xmlns:xlink="http://www.w3.org/1999/xlink">
    <!-- Generator: Sketch 53.1 (72631) - https://sketchapp.com -->
    <title></title>
    <desc>Created with Sketch.</desc>
    <g id="Desktop" stroke="none" stroke-width="1" fill="none" fill-rule="evenodd">
        <g id="01" transform="translate(-386.000000, -3748.000000)" fill="#61AAFF" fill-rule="nonzero">
            <g id="Group-12" transform="translate(239.000000, 3744.000000)">
                <path d="M153.24,21.44 L185.76,21.44 C186.106668,21.44 186.399999,21.5799986 186.64,21.86 C186.880001,22.1400014 187,22.4666648 187,22.84 L187,25.76 C187,26.026668 186.906668,26.3199984 186.72,26.64 C186.453332,26.9866684 186.066669,27.16 185.56,27.16 L153.04,27.16 C152.746665,27.16 152.500001,27.060001 152.3,26.86 C152.099999,26.659999 151.933334,26.3733352 151.8,26 L151.8,22.6 C151.826667,22.6 151.84,22.5866668 151.84,22.56 C151.973334,22.159998 152.146666,21.8733342 152.36,21.7 C152.573334,21.5266658 152.866665,21.44 153.24,21.44 Z M147.68,4.52 C147.893334,4.386666 148.106666,4.3066668 148.32,4.28 L185.68,4.28 L185.76,4.32 C186.133335,4.3733336 186.433332,4.533332 186.66,4.8 C186.886668,5.066668 187,5.399998 187,5.8 L187,8.52 C187,8.6800008 186.986667,8.7866664 186.96,8.84 C186.906666,9.1600016 186.746668,9.4333322 186.48,9.66 C186.213332,9.8866678 185.893335,10 185.52,10 L148.4,10 C148.106665,10 147.826668,9.8933344 147.56,9.68 C147.346666,9.5199992 147.160001,9.240002 147,8.84 L147,5.48 C147.133334,5.0533312 147.359998,4.7333344 147.68,4.52 Z M186.36,18.6 L170.24,18.6 C170.106666,18.6 169.980001,18.4800012 169.86,18.24 C169.739999,17.9999988 169.653334,17.7200016 169.6,17.4 L169.6,14 C169.653334,13.599998 169.733333,13.3133342 169.84,13.14 C169.946667,12.9666658 170.093332,12.88 170.28,12.88 L186.44,12.88 C186.600001,12.9066668 186.733333,13.053332 186.84,13.32 C186.946667,13.586668 187,13.9066648 187,14.28 L187,17.44 C186.946666,17.7866684 186.866667,18.0666656 186.76,18.28 C186.653333,18.4933344 186.520001,18.6 186.36,18.6 Z M164.08,30 L186.16,30 C186.400001,30.0266668 186.599999,30.173332 186.76,30.44 C186.920001,30.706668 187,31.0533312 187,31.48 L187,34.28 C187,34.6533352 186.920001,34.9866652 186.76,35.28 C186.599999,35.5733348 186.360002,35.72 186.04,35.72 L163.84,35.72 C163.626666,35.72 163.426668,35.5600016 163.24,35.24 C163.16,35.106666 163.093334,34.8800016 163.04,34.56 L163.04,31.2 C163.146667,30.7199976 163.273333,30.4000008 163.42,30.24 C163.566667,30.0799992 163.786665,30 164.08,30 Z" id=""></path>
            </g>
        </g>
    </g>
</svg>