<?xml version="1.0" encoding="UTF-8"?>
<svg width="60px" height="48px" viewBox="0 0 60 48" version="1.1" xmlns="http://www.w3.org/2000/svg" xmlns:xlink="http://www.w3.org/1999/xlink">
    <!-- Generator: Sketch 53.1 (72631) - https://sketchapp.com -->
    <title></title>
    <desc>Created with Sketch.</desc>
    <g id="Desktop" stroke="none" stroke-width="1" fill="none" fill-rule="evenodd">
        <g id="02" transform="translate(-136.000000, -3944.000000)" fill="#61AAFF" fill-rule="nonzero">
            <g id="Group-12" transform="translate(41.000000, 3938.000000)">
                <path d="M104.36,32.16 L153.14,32.16 C153.660003,32.16 154.099998,32.3699979 154.46,32.79 C154.820002,33.2100021 155,33.6999972 155,34.26 L155,38.64 C155,39.040002 154.860001,39.4799976 154.58,39.96 C154.179998,40.4800026 153.600004,40.74 152.84,40.74 L104.06,40.74 C103.619998,40.74 103.250001,40.5900015 102.95,40.29 C102.649998,39.9899985 102.400001,39.5600028 102.2,39 L102.2,33.9 C102.24,33.9 102.26,33.8800002 102.26,33.84 C102.460001,33.239997 102.719998,32.8100013 103.04,32.55 C103.360002,32.2899987 103.799997,32.16 104.36,32.16 Z M96.02,6.78 C96.3400016,6.579999 96.6599984,6.4600002 96.98,6.42 L153.02,6.42 L153.14,6.48 C153.700003,6.5600004 154.149998,6.799998 154.49,7.2 C154.830002,7.600002 155,8.099997 155,8.7 L155,12.78 C155,13.0200012 154.98,13.1799996 154.94,13.26 C154.86,13.7400024 154.620002,14.1499983 154.22,14.49 C153.819998,14.8300017 153.340003,15 152.78,15 L97.1,15 C96.6599978,15 96.240002,14.8400016 95.84,14.52 C95.5199984,14.2799988 95.2400012,13.860003 95,13.26 L95,8.22 C95.200001,7.5799968 95.5399976,7.1000016 96.02,6.78 Z M154.04,27.9 L129.86,27.9 C129.659999,27.9 129.470001,27.7200018 129.29,27.36 C129.109999,26.9999982 128.98,26.5800024 128.9,26.1 L128.9,21 C128.98,20.399997 129.099999,19.9700013 129.26,19.71 C129.420001,19.4499987 129.639999,19.32 129.92,19.32 L154.16,19.32 C154.400001,19.3600002 154.599999,19.579998 154.76,19.98 C154.920001,20.380002 155,20.8599972 155,21.42 L155,26.16 C154.92,26.6800026 154.800001,27.0999984 154.64,27.42 C154.479999,27.7400016 154.280001,27.9 154.04,27.9 Z M120.62,45 L153.74,45 C154.100002,45.0400002 154.399999,45.259998 154.64,45.66 C154.880001,46.060002 155,46.5799968 155,47.22 L155,51.42 C155,51.9800028 154.880001,52.4799978 154.64,52.92 C154.399999,53.3600022 154.040002,53.58 153.56,53.58 L120.26,53.58 C119.939998,53.58 119.640001,53.3400024 119.36,52.86 C119.239999,52.659999 119.14,52.3200024 119.06,51.84 L119.06,46.8 C119.220001,46.0799964 119.409999,45.6000012 119.63,45.36 C119.850001,45.1199988 120.179998,45 120.62,45 Z" id=""></path>
            </g>
        </g>
    </g>
</svg>