<?xml version="1.0" encoding="UTF-8"?>
<svg width="21px" height="49px" viewBox="0 0 21 49" version="1.1" xmlns="http://www.w3.org/2000/svg" xmlns:xlink="http://www.w3.org/1999/xlink">
    <!-- Generator: Sketch 53.1 (72631) - https://sketchapp.com -->
    <title></title>
    <desc>Created with Sketch.</desc>
    <g id="Desktop" stroke="none" stroke-width="1" fill="none" fill-rule="evenodd">
        <g id="01" transform="translate(-790.000000, -3498.000000)" fill="#61AAFF" fill-rule="nonzero">
            <g id="Group-11" transform="translate(731.000000, 3495.000000)">
                <path d="M79.29,18.07 C79.3633337,21.6633513 79.3633337,25.2749819 79.29,28.905 C79.29,29.9316718 78.9050038,30.6099984 78.135,30.94 C77.4383299,31.3066685 76.7416702,31.2516691 76.045,30.775 C75.4949972,30.3716646 75.22,29.7483376 75.22,28.905 L75.22,19.5 C75.22,19.3533326 75.1650006,19.1516679 75.055,18.895 L74.945,18.675 L74.835,19.005 C74.7616663,19.2250011 74.725,19.3899994 74.725,19.5 L74.725,49.42 C74.725,49.9700027 74.5783348,50.4466647 74.285,50.85 C73.9916652,51.2533354 73.5791693,51.5374992 73.0475,51.7025 C72.5158307,51.8675008 71.9933359,51.8675008 71.48,51.7025 C70.9666641,51.5374992 70.5816679,51.2350022 70.325,50.795 C70.0683321,50.3549978 69.94,49.8050033 69.94,49.145 C69.9033332,45.8449835 69.885,40.9133662 69.885,34.35 L69.885,34.13 C69.9216669,33.9099989 69.9125003,33.7450006 69.8575,33.635 C69.8024997,33.5249994 69.6741677,33.47 69.4725,33.47 C69.2708323,33.47 69.1425003,33.534166 69.0875,33.6625 C69.0324997,33.790834 69.0233331,33.9649989 69.06,34.185 L69.06,49.365 C69.0233331,50.2450044 68.6841699,50.9141644 68.0425,51.3725 C67.4008301,51.8308356 66.6583375,51.9316679 65.815,51.675 C65.3749978,51.5283326 65.0175014,51.2716685 64.7425,50.905 C64.4674986,50.5383315 64.3116668,50.116669 64.275,49.64 L64.275,19.445 C64.275,19.2983326 64.2200005,19.096668 64.11,18.84 L64,18.62 L63.89,18.84 C63.7799995,19.096668 63.725,19.2983326 63.725,19.445 L63.725,29.07 C63.725,29.7300033 63.5233354,30.2524981 63.12,30.6375 C62.7166646,31.0225019 62.2033365,31.215 61.58,31.215 C61.0299973,31.1783332 60.5716685,30.9583353 60.205,30.555 C59.8383315,30.1516646 59.655,29.6566696 59.655,29.07 L59.655,18.07 C59.655,16.5299923 60.1591616,15.2558384 61.1675,14.2475 C62.1758384,13.2391616 63.4499923,12.7166668 64.99,12.68 L73.79,12.68 C75.4033414,12.68 76.7141616,13.174995 77.7225,14.165 C78.7308384,15.1550049 79.2533332,16.4566586 79.29,18.07 Z M69.445,12.13 C68.2716608,12.0933332 67.2816707,11.6716707 66.475,10.865 C65.6683293,10.0583293 65.2558334,9.08667235 65.2375,7.95 C65.2191666,6.81332765 65.6316624,5.82333755 66.475,4.98 C67.3183375,4.13666245 68.3266608,3.715 69.5,3.715 C70.6733392,3.715 71.6633293,4.1183293 72.47,4.925 C73.2766707,5.7316707 73.68,6.73082738 73.68,7.9225 C73.68,9.11417263 73.2766707,10.1133293 72.47,10.92 C71.6633293,11.7266707 70.655006,12.13 69.445,12.13 Z" id=""></path>
            </g>
        </g>
    </g>
</svg>