<?xml version="1.0" encoding="UTF-8"?>
<svg width="31px" height="73px" viewBox="0 0 31 73" version="1.1" xmlns="http://www.w3.org/2000/svg" xmlns:xlink="http://www.w3.org/1999/xlink">
    <!-- Generator: Sketch 53.1 (72631) - https://sketchapp.com -->
    <title></title>
    <desc>Created with Sketch.</desc>
    <g id="Desktop" stroke="none" stroke-width="1" fill="none" fill-rule="evenodd">
        <g id="02" transform="translate(-144.000000, -3451.000000)" fill="#61AAFF" fill-rule="nonzero">
            <g id="Group-11" transform="translate(90.000000, 3446.000000)">
                <path d="M84.185,26.605 C84.2950005,31.9950269 84.2950005,37.4124728 84.185,42.8575 C84.185,44.3975077 83.6075058,45.4149975 82.4525,45.91 C81.4074948,46.4600028 80.3625052,46.3775036 79.3175,45.6625 C78.4924959,45.057497 78.08,44.1225063 78.08,42.8575 L78.08,28.75 C78.08,28.5299989 77.9975008,28.2275019 77.8325,27.8425 L77.6675,27.5125 L77.5025,28.0075 C77.3924995,28.3375017 77.3375,28.5849992 77.3375,28.75 L77.3375,73.63 C77.3375,74.4550041 77.1175022,75.169997 76.6775,75.775 C76.2374978,76.380003 75.618754,76.8062488 74.82125,77.05375 C74.023746,77.3012512 73.2400038,77.3012512 72.47,77.05375 C71.6999962,76.8062488 71.1225019,76.3525033 70.7375,75.6925 C70.3524981,75.0324967 70.16,74.207505 70.16,73.2175 C70.1049997,68.2674753 70.0775,60.8700492 70.0775,51.025 L70.0775,50.695 C70.1325003,50.3649983 70.1187504,50.1175008 70.03625,49.9525 C69.9537496,49.7874992 69.7612515,49.705 69.45875,49.705 C69.1562485,49.705 68.9637504,49.801249 68.88125,49.99375 C68.7987496,50.186251 68.7849997,50.4474984 68.84,50.7775 L68.84,73.5475 C68.7849997,74.8675066 68.2762548,75.8712466 67.31375,76.55875 C66.3512452,77.2462534 65.2375063,77.3975019 63.9725,77.0125 C63.3124967,76.7924989 62.7762521,76.4075028 62.36375,75.8575 C61.9512479,75.3074972 61.7175003,74.6750036 61.6625,73.96 L61.6625,28.6675 C61.6625,28.4474989 61.5800008,28.1450019 61.415,27.76 L61.25,27.43 L61.085,27.76 C60.9199992,28.1450019 60.8375,28.4474989 60.8375,28.6675 L60.8375,43.105 C60.8375,44.095005 60.535003,44.8787471 59.93,45.45625 C59.324997,46.0337529 58.5550047,46.3225 57.62,46.3225 C56.7949959,46.2674997 56.1075028,45.937503 55.5575,45.3325 C55.0074973,44.727497 54.7325,43.9850044 54.7325,43.105 L54.7325,26.605 C54.7325,24.2949884 55.4887424,22.3837576 57.00125,20.87125 C58.5137576,19.3587424 60.4249885,18.5750003 62.735,18.52 L75.935,18.52 C78.3550121,18.52 80.3212424,19.2624926 81.83375,20.7475 C83.3462576,22.2325074 84.1299997,24.1849879 84.185,26.605 Z M69.4175,17.695 C67.6574912,17.6399997 66.1725061,17.007506 64.9625,15.7975 C63.752494,14.5874939 63.1337501,13.1300085 63.10625,11.425 C63.0787499,9.71999148 63.6974937,8.23500633 64.9625,6.97 C66.2275063,5.70499367 67.7399912,5.0725 69.5,5.0725 C71.2600088,5.0725 72.744994,5.67749395 73.955,6.8875 C75.1650061,8.09750605 75.77,9.59624106 75.77,11.38375 C75.77,13.1712589 75.1650061,14.6699939 73.955,15.88 C72.744994,17.090006 71.2325091,17.695 69.4175,17.695 Z" id=""></path>
            </g>
        </g>
    </g>
</svg>