<?xml version="1.0" encoding="UTF-8"?>
<svg width="54px" height="20px" viewBox="0 0 54 20" version="1.1" xmlns="http://www.w3.org/2000/svg" xmlns:xlink="http://www.w3.org/1999/xlink">
    <!-- Generator: Sketch 53.1 (72631) - https://sketchapp.com -->
    <title></title>
    <desc>Created with Sketch.</desc>
    <g id="Desktop" stroke="none" stroke-width="1" fill="none" fill-rule="evenodd">
        <g id="02" transform="translate(-132.000000, -4197.000000)" fill="#61AAFF" fill-rule="nonzero">
            <g id="Group-13" transform="translate(27.000000, 4177.000000)">
                <path d="M158.28,28.8 C158.28,30.1600068 158.040002,31.3999944 157.56,32.52 C156.879997,34.0800078 155.780008,35.3399952 154.26,36.3 C152.33999,37.4600058 150.240011,38.2799976 147.96,38.76 C145.519988,39.2400024 143.200011,39.2600022 141,38.82 C138.599988,38.2999974 136.520009,37.2800076 134.76,35.76 L133.8,34.62 C133.039996,33.6599952 132.440002,32.7400044 132,31.86 C131.559998,32.7400044 130.960004,33.6599952 130.2,34.62 L129.24,35.76 C127.479991,37.2800076 125.400012,38.2999974 123,38.82 C120.799989,39.2600022 118.480012,39.2400024 116.04,38.76 C113.759989,38.2799976 111.66001,37.4600058 109.74,36.3 C108.219992,35.3399952 107.120003,34.0800078 106.44,32.52 C105.959998,31.3599942 105.74,30.1200066 105.78,28.8 C105.78,28.3599978 105.969998,28.040001 106.35,27.84 C106.730002,27.639999 107.119998,27.6799986 107.52,27.96 C108.960007,29.0000052 110.459992,29.420001 112.02,29.22 C113.420007,29.0599992 114.579995,28.4600052 115.5,27.42 C115.740001,27.1799988 116.099998,26.760003 116.58,26.16 C117.420004,25.0399944 118.119997,24.2200026 118.68,23.7 C119.640005,22.7799954 120.639995,22.1000022 121.68,21.66 C123.000007,21.0999972 124.419992,20.8599996 125.94,20.94 C128.980015,21.1000008 130.999995,22.2999888 132,24.54 C133.000005,22.2999888 135.019985,21.1000008 138.06,20.94 C139.620008,20.8599996 141.059993,21.0999972 142.38,21.66 C143.420005,22.1400024 144.419995,22.8399954 145.38,23.76 C145.940003,24.3200028 146.659996,25.1399946 147.54,26.22 C147.980002,26.7800028 148.299999,27.1799988 148.5,27.42 C149.420005,28.4600052 150.579993,29.0599992 151.98,29.22 C153.540008,29.420001 155.039993,29.0000052 156.48,27.96 C156.880002,27.6799986 157.259998,27.639999 157.62,27.84 C157.980002,28.040001 158.2,28.3599978 158.28,28.8 Z" id=""></path>
            </g>
        </g>
    </g>
</svg>