<?xml version="1.0" encoding="UTF-8"?>
<svg width="36px" height="14px" viewBox="0 0 36 14" version="1.1" xmlns="http://www.w3.org/2000/svg" xmlns:xlink="http://www.w3.org/1999/xlink">
    <!-- Generator: Sketch 53.1 (72631) - https://sketchapp.com -->
    <title></title>
    <desc>Created with Sketch.</desc>
    <g id="Desktop" stroke="none" stroke-width="1" fill="none" fill-rule="evenodd">
        <g id="01" transform="translate(-782.000000, -3757.000000)" fill="#61AAFF" fill-rule="nonzero">
            <g id="Group-13" transform="translate(656.000000, 3744.000000)">
                <path d="M161.52,19.2 C161.52,20.1066712 161.360002,20.9333296 161.04,21.68 C160.586664,22.7200052 159.853338,23.5599968 158.84,24.2 C157.559994,24.9733372 156.160008,25.5199984 154.64,25.84 C153.013325,26.1600016 151.466674,26.1733348 150,25.88 C148.399992,25.5333316 147.013339,24.8533384 145.84,23.84 L145.2,23.08 C144.693331,22.4399968 144.293335,21.8266696 144,21.24 C143.706665,21.8266696 143.306669,22.4399968 142.8,23.08 L142.16,23.84 C140.986661,24.8533384 139.600008,25.5333316 138,25.88 C136.533326,26.1733348 134.986675,26.1600016 133.36,25.84 C131.839992,25.5199984 130.440006,24.9733372 129.16,24.2 C128.146662,23.5599968 127.413336,22.7200052 126.96,21.68 C126.639998,20.9066628 126.493333,20.0800044 126.52,19.2 C126.52,18.9066652 126.646665,18.693334 126.9,18.56 C127.153335,18.426666 127.413332,18.4533324 127.68,18.64 C128.640005,19.3333368 129.639995,19.613334 130.68,19.48 C131.613338,19.3733328 132.386664,18.9733368 133,18.28 C133.160001,18.1199992 133.399998,17.840002 133.72,17.44 C134.280003,16.6933296 134.746665,16.1466684 135.12,15.8 C135.760003,15.1866636 136.426663,14.7333348 137.12,14.44 C138.000004,14.0666648 138.946662,13.9066664 139.96,13.96 C141.986677,14.0666672 143.33333,14.8666592 144,16.36 C144.66667,14.8666592 146.013323,14.0666672 148.04,13.96 C149.080005,13.9066664 150.039996,14.0666648 150.92,14.44 C151.613337,14.7600016 152.279997,15.2266636 152.92,15.84 C153.293335,16.2133352 153.77333,16.7599964 154.36,17.48 C154.653335,17.8533352 154.866666,18.1199992 155,18.28 C155.613336,18.9733368 156.386662,19.3733328 157.32,19.48 C158.360005,19.613334 159.359995,19.3333368 160.32,18.64 C160.586668,18.4533324 160.839999,18.426666 161.08,18.56 C161.320001,18.693334 161.466666,18.9066652 161.52,19.2 Z" id=""></path>
            </g>
        </g>
    </g>
</svg>