<?xml version="1.0" encoding="UTF-8"?>
<svg width="81px" height="67px" viewBox="0 0 81 67" version="1.1" xmlns="http://www.w3.org/2000/svg" xmlns:xlink="http://www.w3.org/1999/xlink">
    <!-- Generator: Sketch 53.1 (72631) - https://sketchapp.com -->
    <title>Combined Shape</title>
    <desc>Created with Sketch.</desc>
    <g id="Desktop" stroke="none" stroke-width="1" fill="none" fill-rule="evenodd">
        <g id="02" transform="translate(-123.000000, -3219.000000)" fill="#61AAFF">
            <g id="Group-10" transform="translate(52.000000, 3219.000000)">
                <g id="Group-6" transform="translate(71.000000, 0.000000)">
                    <path d="M35.3331556,17.8025546 C37.6070437,14.7096732 40.3572824,12.0999885 43.5839036,9.97346372 C45.9775012,8.37134846 49.6114145,6.03530461 54.4857525,2.96526206 L58.1414877,0.662741662 C58.3092226,0.55381331 58.5289124,0.506533231 58.8005635,0.520900006 C59.0722146,0.535266781 59.3350408,0.591132213 59.58905,0.68849798 C59.8430591,0.785863746 60.1561057,1.04758597 60.5281991,1.47367249 L61.3327266,2.38204215 C62.9735998,4.32121718 64.1593628,5.81664128 64.8900512,6.86835931 C67.779258,11.0970171 70.5568893,15.3741942 73.2230285,19.700019 C74.5837644,21.8688121 76.4906517,25.2090942 78.9437476,29.7209657 C79.3241283,30.3801442 79.4593189,30.9004496 79.3493233,31.2818976 C79.2393277,31.6633455 78.8706512,32.1054666 78.2432828,32.608274 C77.4146324,33.2417954 76.14989,34.1585168 74.4490179,35.3584656 L75.5705033,36.204084 C76.3952823,36.8131407 77.0163633,37.292146 77.433765,37.6411142 C79.2340857,39.2382689 80.2562599,40.959164 80.5003182,42.803851 C80.7443766,44.648538 80.1952755,46.4836441 78.8529984,48.3092245 C76.9805198,50.8606798 74.5499377,52.7729767 71.5611791,54.0461724 C67.0545185,56.0666314 62.0045579,56.2221536 56.4111457,54.5127437 C52.7012309,53.3426221 49.1193467,51.5703943 45.6654206,49.1960215 C43.3915325,52.288903 40.6412938,54.8985877 37.4146726,57.0251125 C35.0210749,58.6272277 31.3871616,60.9632716 26.5128237,64.0333141 L22.8570885,66.3358345 C22.6893535,66.4447629 22.4696638,66.4920429 22.1980127,66.4776762 C21.9263615,66.4633094 21.6635353,66.407444 21.4095262,66.3100782 C21.155517,66.2127124 20.8424705,65.9509902 20.4703771,65.5249037 L19.6658496,64.616534 C18.0249764,62.677359 16.8392134,61.1819349 16.108525,60.1302169 C13.2193182,55.9015591 10.4416869,51.624382 7.77554773,47.2985572 C6.41481181,45.1297641 4.50792451,41.789482 2.05482862,37.2776105 C1.67444787,36.618432 1.53925731,36.0981266 1.64925288,35.7166786 C1.75924845,35.3352306 2.12792494,34.8931096 2.75529341,34.3903022 C3.58394382,33.7567808 4.84868614,32.8400594 6.5495583,31.6401106 L5.4280729,30.7944922 C4.6032939,30.1854354 3.98221288,29.7064302 3.5648112,29.357462 C1.76449048,27.7603072 0.742316273,26.0394122 0.498257928,24.1947252 C0.254199584,22.3500382 0.803300718,20.514932 2.14557781,18.6893517 C4.01805633,16.1378964 6.44863844,14.2255995 9.43739706,12.9524037 C13.9440576,10.9319448 18.9940183,10.7764226 24.5874304,12.4858325 C28.2973452,13.6559541 31.8792294,15.4281819 35.3331556,17.8025546 Z M70.1918904,50.2851821 C71.96467,49.5631785 73.4868915,48.4554011 74.7586007,46.9618168 C75.7484356,45.8420627 76.235592,44.7745183 76.2200845,43.7591515 C76.204577,42.7437846 75.6369547,41.7411988 74.5172006,40.7513638 C73.9573236,40.2564463 72.9380271,39.6783398 71.4592805,39.0170269 L71.3436036,38.9490647 C70.626016,38.6519553 69.7372328,38.7521973 68.6772274,39.2497937 C62.714548,42.4065815 57.0080977,44.5623369 51.5577054,45.7171245 C51.4688258,45.7271488 51.3296277,45.769851 51.1401071,45.8452324 L50.956468,45.8929472 C53.6216652,48.4546773 56.6133302,50.1604625 59.9315529,51.010354 C63.4493205,51.8737438 66.8693988,51.6320222 70.1918904,50.2851821 Z M10.8066858,16.7133941 C9.03390621,17.4353977 7.51168466,18.543175 6.2399755,20.0367594 C5.25014054,21.1565134 4.76298415,22.2240579 4.77849169,23.2394247 C4.79399923,24.2547916 5.3616215,25.2573774 6.48137554,26.2472124 C7.04125256,26.7421298 8.06054907,27.3202364 9.53929565,27.9815493 L9.65497257,28.0495114 C10.3725602,28.3466209 11.2613434,28.2463789 12.3213488,27.7487824 C18.2840282,24.5919947 23.9904785,22.4362393 29.4408708,21.2814517 C29.5297504,21.2714273 29.6689485,21.2287251 29.8584691,21.1533438 L30.0421081,21.105629 C27.376911,18.5438989 24.385246,16.8381137 21.0670233,15.9882222 C17.5492556,15.1248324 14.1291773,15.3665539 10.8066858,16.7133941 Z" id="Combined-Shape"></path>
                </g>
            </g>
        </g>
    </g>
</svg>