<?xml version="1.0" encoding="UTF-8"?>
<svg width="54px" height="45px" viewBox="0 0 54 45" version="1.1" xmlns="http://www.w3.org/2000/svg" xmlns:xlink="http://www.w3.org/1999/xlink">
    <!-- Generator: Sketch 53.1 (72631) - https://sketchapp.com -->
    <title>Combined Shape</title>
    <desc>Created with Sketch.</desc>
    <g id="Desktop" stroke="none" stroke-width="1" fill="none" fill-rule="evenodd">
        <g id="01" transform="translate(-378.000000, -3495.000000)" fill="#61AAFF">
            <g id="Group-10" transform="translate(258.000000, 3495.000000)">
                <g id="Group-6" transform="translate(119.000000, 0.000000)">
                    <path d="M24.2221037,12.2017031 C25.7380291,10.1397821 27.5715216,8.39999231 29.7226024,6.98230915 C31.3183342,5.91423231 33.740943,4.35686974 36.9905017,2.31017471 L39.4276585,0.775161108 C39.5394818,0.702542207 39.6859416,0.671022154 39.8670423,0.680600004 C40.0481431,0.690177854 40.2233606,0.727421476 40.3927,0.792331986 C40.5620394,0.857242497 40.7707371,1.03172398 41.0187994,1.31578166 L41.5551511,1.92136143 C42.6490665,3.21414479 43.4395752,4.21109419 43.9267008,4.91223954 C45.8528387,7.73134471 47.7045929,10.5827961 49.482019,13.4666793 C50.3891762,14.9125414 51.6604344,17.1393961 53.2958317,20.1473105 C53.5494189,20.5867628 53.6395459,20.9336331 53.5662155,21.1879317 C53.4928851,21.4422304 53.2471008,21.7369777 52.8288552,22.0721826 C52.2764216,22.4945303 51.43326,23.1056778 50.2993453,23.9056437 L51.0470022,24.4693893 C51.5968549,24.8754272 52.0109089,25.194764 52.2891767,25.4274095 C53.4893905,26.4921793 54.1708399,27.6394427 54.3335455,28.869234 C54.4962511,30.0990253 54.1301836,31.3224294 53.2353322,32.539483 C51.9870132,34.2404532 50.3666252,35.5153178 48.3741194,36.364115 C45.369679,37.7110876 42.0030386,37.8147691 38.2740972,36.6751624 C35.8008206,35.8950814 33.4128978,34.7135962 31.1102804,33.130681 C29.594355,35.192602 27.7608625,36.9323918 25.6097817,38.350075 C24.01405,39.4181518 21.5914411,40.9755144 18.3418825,43.0222094 L15.9047257,44.557223 C15.7929024,44.6298419 15.6464425,44.661362 15.4653418,44.6517841 C15.284241,44.6422063 15.1090236,44.6049626 14.9396841,44.5400521 C14.7703447,44.4751416 14.561647,44.3006601 14.3135847,44.0166025 L13.777233,43.4110227 C12.6833176,42.1182393 11.8928089,41.1212899 11.4056833,40.4201446 C9.47954546,37.6010394 7.62779126,34.749588 5.85036515,31.8657048 C4.94320788,30.4198427 3.67194968,28.192988 2.03655241,25.1850737 C1.78296525,24.7456213 1.69283821,24.398751 1.76616859,24.1444524 C1.83949897,23.8901538 2.0852833,23.5954064 2.50352894,23.2602015 C3.05596255,22.8378539 3.89912409,22.2267063 5.03303887,21.4267404 L4.28538194,20.8629948 C3.73552927,20.456957 3.32147525,20.1376201 3.04320747,19.9049746 C1.84299365,18.8402048 1.16154418,17.6929415 0.998838619,16.4631501 C0.836133056,15.2333588 1.20220048,14.0099547 2.09705187,12.7929011 C3.34537089,11.0919309 4.96575896,9.81706633 6.95826471,8.96826916 C9.96270509,7.62129651 13.3293455,7.51761506 17.058287,8.65722167 C19.5315635,9.43730274 21.9194863,10.6187879 24.2221037,12.2017031 Z M47.4612603,33.8567881 C48.6431133,33.3754523 49.6579277,32.6369341 50.5057338,31.6412112 C51.1656238,30.8947085 51.4903947,30.1830122 51.4800563,29.506101 C51.469718,28.8291897 51.0913031,28.1607992 50.3448004,27.5009092 C49.9715491,27.1709642 49.2920181,26.7855599 48.306187,26.3446846 L48.2290691,26.2993765 C47.7506773,26.1013035 47.1581552,26.1681315 46.4514849,26.4998625 C42.4763653,28.6043877 38.6720651,30.0415579 35.0384703,30.8114163 C34.9792172,30.8180992 34.8864185,30.8465674 34.7600714,30.8968216 L34.6376454,30.9286315 C36.4144435,32.6364515 38.4088868,33.7736416 40.6210353,34.340236 C42.9662137,34.9158292 45.2462659,34.7546815 47.4612603,33.8567881 Z M7.87112386,11.4755961 C6.6892708,11.9569318 5.67445644,12.69545 4.82665033,13.6911729 C4.16676036,14.4376756 3.84198943,15.1493719 3.85232779,15.8262831 C3.86266615,16.5031944 4.241081,17.1715849 4.98758369,17.8314749 C5.36083504,18.1614199 6.04036604,18.5468243 7.0261971,18.9876995 L7.10331504,19.0330076 C7.58170679,19.2310806 8.17422891,19.1642526 8.88089918,18.8325216 C12.8560188,16.7279964 16.660319,15.2908262 20.2939138,14.5209678 C20.3531669,14.5142849 20.4459656,14.4858168 20.5723127,14.4355625 L20.6947388,14.4037527 C18.9179407,12.6959326 16.9234973,11.5587425 14.7113489,10.9921481 C12.3661704,10.4165549 10.0861182,10.5777026 7.87112386,11.4755961 Z" id="Combined-Shape"></path>
                </g>
            </g>
        </g>
    </g>
</svg>