<?xml version="1.0" encoding="UTF-8"?>
<svg width="190px" height="46px" viewBox="0 0 190 46" version="1.1" xmlns="http://www.w3.org/2000/svg" xmlns:xlink="http://www.w3.org/1999/xlink">
    <!-- Generator: Sketch 53.1 (72631) - https://sketchapp.com -->
    <title>IronChain_logo</title>
    <desc>Created with Sketch.</desc>
    <defs>
        <linearGradient x1="50.0105909%" y1="99.3456872%" x2="50.0105909%" y2="0.781165446%" id="linearGradient-1">
            <stop stop-color="#61AAFF" offset="6%"></stop>
            <stop stop-color="#1C86FF" offset="100%"></stop>
        </linearGradient>
    </defs>
    <g id="Desktop" stroke="none" stroke-width="1" fill="none" fill-rule="evenodd">
        <g id="01" transform="translate(-32.000000, -32.000000)" fill-rule="nonzero">
            <g id="Header" transform="translate(32.000000, 32.000000)">
                <g id="IronChain_logo">
                    <path d="M187.947267,6.70631579 L182.271704,1.08342105 C181.961033,0.77867927 181.542006,0.606972916 181.104823,0.605263158 L177.866881,0.605263158 C177.741972,0.604515088 177.629188,0.679187396 177.582102,0.793810796 C177.535016,0.908434196 177.563116,1.03991086 177.653055,1.12578947 L185.595177,8.99421053 C185.906332,9.29992891 186.081356,9.71610535 186.081356,10.1502632 C186.081356,10.584421 185.906332,11.0005974 185.595177,11.3063158 L180.939871,15.9184211 C180.631289,16.2266892 180.211215,16.4000885 179.77299,16.4000885 C179.334766,16.4000885 178.914691,16.2266892 178.606109,15.9184211 L170.871704,8.25578947 C170.636526,8.03671897 170.269905,8.03671897 170.034727,8.25578947 L168.537942,9.73868421 C168.320623,9.97083481 168.320623,10.3296915 168.537942,10.5618421 L176.309003,18.2607895 C177.226225,19.1737377 178.472815,19.6869844 179.77299,19.6869844 C181.073166,19.6869844 182.319756,19.1737377 183.236977,18.2607895 L187.959486,13.5821053 C188.88313,12.6713068 189.401376,11.4327765 189.399082,10.1416889 C189.396787,8.85060125 188.874142,7.61388657 187.947267,6.70631579 L187.947267,6.70631579 Z M164.615756,11.2942105 C164.3046,10.9884921 164.129577,10.5723157 164.129577,10.1381579 C164.129577,9.70400009 164.3046,9.28782364 164.615756,8.98210526 L169.271061,4.37 C169.579643,4.06173182 169.999718,3.8883326 170.437942,3.8883326 C170.876167,3.8883326 171.296241,4.06173182 171.604823,4.37 L179.3209,12.0326316 C179.556079,12.2517021 179.922699,12.2517021 180.157878,12.0326316 L181.654662,10.5497368 C181.871982,10.3175862 181.871982,9.95872954 181.654662,9.72657895 L173.883601,2.02763158 C172.96638,1.11468336 171.71979,0.601436611 170.419614,0.601436611 C169.119438,0.601436611 167.872849,1.11468336 166.955627,2.02763158 L162.233119,6.70631579 C161.311619,7.61502578 160.793565,8.85004754 160.793565,10.1381579 C160.793565,11.4262683 161.311619,12.66129 162.233119,13.57 L167.908682,19.1928947 C168.219353,19.4976365 168.63838,19.6693429 169.075563,19.6710526 L172.313505,19.6710526 C172.438414,19.6718007 172.551198,19.5971284 172.598284,19.482505 C172.64537,19.3678816 172.61727,19.2364049 172.527331,19.1505263 L164.615756,11.2942105 Z" id="Shape" fill="url(#linearGradient-1)"></path>
                    <path d="M164.621865,8.96394737 L169.271061,4.35789474 C169.914648,3.72306847 170.955127,3.72306847 171.598714,4.35789474 L169.264952,2.04578947 C168.619274,1.41026185 167.576868,1.41026185 166.93119,2.04578947 L162.281994,6.65184211 C161.640513,7.2915284 161.640513,8.32426107 162.281994,8.96394737 L164.621865,11.2760526 C164.310709,10.9703343 164.135686,10.5541578 164.135686,10.12 C164.135686,9.68584219 164.310709,9.26966575 164.621865,8.96394737 L164.621865,8.96394737 Z" id="Shape" fill="#1F40FF" opacity="0.46"></path>
                    <path d="M185.582958,11.2942105 L180.933762,15.9002632 C180.62518,16.2085313 180.205105,16.3819306 179.766881,16.3819306 C179.328657,16.3819306 178.908582,16.2085313 178.6,15.9002632 L180.933762,18.2184211 C181.57944,18.8539487 182.621846,18.8539487 183.267524,18.2184211 L187.91672,13.6063158 C188.227876,13.3005974 188.402899,12.884421 188.402899,12.4502632 C188.402899,12.0161054 188.227876,11.5999289 187.91672,11.2942105 L185.582958,8.98210526 C186.224439,9.62179156 186.224439,10.6545242 185.582958,11.2942105 L185.582958,11.2942105 Z" id="Shape" fill="#1F40FF" opacity="0.46"></path>
                    <path d="M17.3382637,36.5518421 L23.7347267,44.7834211 C23.8086589,44.8730267 23.823226,44.9970541 23.7720364,45.1010839 C23.7208469,45.2051137 23.6132528,45.2701401 23.496463,45.2676316 L19.3787781,45.2676316 C19.2173027,45.2673439 19.0663925,45.1880584 18.9755627,45.0557895 L12.9823151,36.3036842 C12.926701,36.2212709 12.8969418,36.1243981 12.8967846,36.0252632 L12.8967846,35.2868421 C12.8882558,35.2141933 12.9102602,35.1412668 12.9576344,35.0851742 C13.0050087,35.0290816 13.073583,34.9947602 13.1472669,34.9902632 C14.9800643,34.8873684 17.4237942,33.7434211 17.4237942,31.6552632 C17.4237942,28.7378947 14.7051447,28.2839474 11.9742765,28.2839474 L11.9742765,42.5439474 C11.9709841,43.3326325 12.034335,44.1202067 12.1636656,44.8984211 C12.1761304,44.9857298 12.1495393,45.0740825 12.0908469,45.1403709 C12.0321545,45.2066593 11.9471987,45.2442901 11.8581994,45.2434211 L8.05209003,45.2434211 C7.97164247,45.2450479 7.8939209,45.214521 7.83645224,45.1587244 C7.77898359,45.1029277 7.74660704,45.0265597 7.74662379,44.9468421 C7.74662379,42.7497368 7.74662379,29.1615789 7.74662379,28.3928947 C7.73110575,27.7803217 7.6470987,27.1713401 7.49614148,26.5771053 C7.47594396,26.4865688 7.49789479,26.3918329 7.55592563,26.3190875 C7.61395648,26.2463421 7.70191994,26.2032933 7.79549839,26.2018421 L13.562701,26.2018421 C17.1244373,26.2018421 21.5903537,27.0189474 21.5903537,31.6492105 C21.5903537,35.4502632 17.9186495,36.2915789 17.3382637,36.5518421 Z" id="Shape" fill="#000000"></path>
                    <path d="M4.08713826,45.2797368 L0.50096463,45.2797368 C0.335634372,45.2797368 0.201607717,45.1469539 0.201607717,44.9831579 C0.201607717,42.7618421 0.201607717,28.7742105 0.201607717,24.7794737 C0.204574366,24.7655038 0.204574366,24.7510752 0.201607717,24.7371053 C0.167962812,24.2622196 0.10882231,23.7894452 0.024437299,23.3207895 C-0.000576739829,23.2307717 0.0186561164,23.1343394 0.0763480706,23.0605121 C0.134040025,22.9866849 0.223454922,22.9440828 0.317684887,22.9455263 L3.98327974,22.9455263 C4.06945326,22.9448835 4.15172652,22.9810637 4.20905129,23.0448108 C4.26637606,23.1085578 4.29319126,23.1936876 4.28263666,23.2784211 C4.28263666,23.4115789 4.28263666,23.575 4.28263666,23.7323684 C4.28263666,24.1076316 4.28263666,24.4405263 4.28263666,24.8218421 L4.28263666,42.7921053 C4.278466,43.2976126 4.30498762,43.8029108 4.36205788,44.3052632 C4.36205788,44.4565789 4.4170418,44.7168421 4.45369775,44.9105263 C4.48413267,45.0136848 4.45585444,45.1250837 4.37978294,45.2017054 C4.30371143,45.2783271 4.19175183,45.3081802 4.08713826,45.2797368 Z" id="Shape" fill="#000000"></path>
                    <path d="M133.500965,45.2797368 L129.914791,45.2797368 C129.748444,45.2797698 129.612652,45.1479283 129.609325,44.9831579 L129.609325,28.7015789 C129.609325,28.3142105 129.609325,27.9328947 129.554341,27.5455263 C129.554341,27.2792105 129.487138,26.8978947 129.413826,26.565 C129.395479,26.4759492 129.4185,26.3834437 129.476528,26.3130487 C129.534555,26.2426537 129.621445,26.2018236 129.713183,26.2018421 L133.378778,26.2018421 C133.464952,26.2011993 133.547225,26.2373795 133.60455,26.3011265 C133.661874,26.3648736 133.68869,26.4500033 133.678135,26.5347368 C133.678135,26.7042105 133.678135,26.91 133.678135,27.0915789 C133.678135,27.4668421 133.678135,27.8057895 133.678135,28.1810526 L133.678135,42.78 C133.674977,43.2853274 133.69945,43.7904533 133.751447,44.2931579 C133.751447,44.4444737 133.81254,44.7047368 133.849196,44.8984211 C133.882244,44.9993941 133.858303,45.1101665 133.78642,45.1888796 C133.714536,45.2675927 133.605672,45.302243 133.500965,45.2797368 L133.500965,45.2797368 Z" id="Shape" fill="#000000"></path>
                    <path d="M49.5832797,32.3392105 L49.5832797,41.6844737 C49.566545,42.7673851 49.6339465,43.8499668 49.7848875,44.9226316 C49.7973523,45.0099403 49.7707611,45.098293 49.7120687,45.1645814 C49.6533763,45.2308698 49.5684206,45.2685006 49.4794212,45.2676316 L46.7485531,45.2676316 C46.6681055,45.2692585 46.5903839,45.2387315 46.5329153,45.1829349 C46.4754466,45.1271382 46.4430701,45.0507703 46.4430868,44.9710526 L46.4430868,28.7136842 C46.4512778,28.0015576 46.3774894,27.2908276 46.2231511,26.5952632 C46.1938696,26.5030239 46.2108402,26.4024755 46.2688184,26.3246919 C46.3267965,26.2469084 46.4188013,26.2012555 46.5163987,26.2018421 L49.1006431,26.2018421 C49.2408318,26.2017119 49.3743276,26.2612275 49.4672026,26.3652632 L60.4639871,38.4705263 L60.4639871,28.3323684 C60.4818103,27.7407414 60.4139169,27.149639 60.2623794,26.5771053 C60.2376625,26.4881181 60.2561706,26.3928028 60.3124487,26.3192525 C60.3687268,26.2457022 60.4563594,26.2023015 60.5495177,26.2018421 L63.4392283,26.2018421 C63.5254018,26.2011993 63.6076751,26.2373795 63.6649998,26.3011265 C63.7223246,26.3648736 63.7491398,26.4500033 63.7385852,26.5347368 C63.668204,27.0931132 63.6274192,27.6547612 63.6163987,28.2173684 L63.6163987,44.9710526 C63.6164155,45.0507703 63.5840389,45.1271382 63.5265703,45.1829349 C63.4691016,45.2387315 63.39138,45.2692585 63.3109325,45.2676316 L61.5636656,45.2676316 C61.4260652,45.2699361 61.2943467,45.2124293 61.2032154,45.1102632 L49.5832797,32.3392105 Z" id="Shape" fill="#000000"></path>
                    <path d="M140.129582,32.3392105 L140.129582,41.6844737 C140.112847,42.7673851 140.180249,43.8499668 140.33119,44.9226316 C140.343655,45.0099403 140.317063,45.098293 140.258371,45.1645814 C140.199679,45.2308698 140.114723,45.2685006 140.025723,45.2676316 L137.319293,45.2676316 C137.238845,45.2692585 137.161123,45.2387315 137.103655,45.1829349 C137.046186,45.1271382 137.01381,45.0507703 137.013826,44.9710526 L137.013826,28.7136842 C137.022017,28.0015576 136.948229,27.2908276 136.793891,26.5952632 C136.764609,26.5030239 136.78158,26.4024755 136.839558,26.3246919 C136.897536,26.2469084 136.989541,26.2012555 137.087138,26.2018421 L139.671383,26.2018421 C139.811571,26.2017119 139.945067,26.2612275 140.037942,26.3652632 L151.034727,38.4705263 L151.034727,28.3323684 C151.048919,27.7408971 150.981083,27.1502956 150.833119,26.5771053 C150.808402,26.4881181 150.82691,26.3928028 150.883188,26.3192525 C150.939466,26.2457022 151.027099,26.2023015 151.120257,26.2018421 L154.009968,26.2018421 C154.096141,26.2011993 154.178415,26.2373795 154.235739,26.3011265 C154.293064,26.3648736 154.319879,26.4500033 154.309325,26.5347368 C154.238944,27.0931132 154.198159,27.6547612 154.187138,28.2173684 L154.187138,44.9710526 C154.187155,45.0507703 154.154778,45.1271382 154.09731,45.1829349 C154.039841,45.2387315 153.96212,45.2692585 153.881672,45.2676316 L152.134405,45.2676316 C151.996805,45.2699361 151.865086,45.2124293 151.773955,45.1102632 L140.129582,32.3392105 Z" id="Shape" fill="#000000"></path>
                    <path d="M122.785209,45.0618421 C122.467524,44.0813158 121.716077,42.1565789 121.190675,40.7463158 L113.529582,40.7463158 C112.637621,42.8647368 112.240514,44.0389474 112.136656,44.9831579 C112.120759,45.1340372 111.990366,45.2474013 111.837299,45.2434211 L108.727653,45.2434211 C108.626481,45.2451327 108.531285,45.1960943 108.474589,45.1130613 C108.417894,45.0300283 108.407374,44.9242399 108.446624,44.8318421 C109.534084,42.2352632 115.454019,28.1386842 116.199357,26.3652632 C116.246217,26.2522528 116.357069,26.1782414 116.480386,26.1776316 L118.838585,26.1776316 C118.959197,26.1763824 119.068279,26.2484289 119.113505,26.3592105 C119.614469,27.5031579 122.400322,33.9128947 124.611897,39.0697368 C125.392989,41.0361563 126.284301,42.9578316 127.281672,44.8257895 C127.337063,44.9182584 127.337597,45.0331871 127.283068,45.1261576 C127.228539,45.219128 127.127488,45.2755755 127.018971,45.2736842 L123.078457,45.2736842 C122.942345,45.2809815 122.819813,45.1924645 122.785209,45.0618421 L122.785209,45.0618421 Z M117.25627,31.5765789 L114.464309,38.5492105 L120.213183,38.5492105 L117.25627,31.5765789 Z" id="Shape" fill="#000000"></path>
                    <path d="M86.8135048,24.6281579 C86.7982404,24.4581856 86.6937964,24.308722 86.5385852,24.2347368 C83.9713957,23.1230491 81.1896342,22.581776 78.388746,22.6489474 C72.0961415,22.6489474 65.9135048,26.4197368 65.9135048,34.0278947 C65.9135048,40.7281579 70.3610932,45.5884211 78.1749196,45.5884211 C83.2762058,45.5884211 86.6974277,42.5136842 87.6688103,41.6118421 C87.7760017,41.516215 87.799117,41.3584542 87.7237942,41.2365789 L87.155627,40.3226316 C87.1110551,40.2504892 87.0375119,40.200634 86.953494,40.1856049 C86.8694761,40.1705758 86.7829785,40.1918028 86.7157556,40.2439474 C84.3912455,42.0064896 81.5597097,42.9882245 78.633119,43.0463158 C73.7456592,43.0463158 70.6604502,38.9305263 70.6604502,34.2397368 C70.6604502,29.5489474 73.6784566,25.0881579 78.6025723,25.0881579 C81.5250452,25.1040775 84.2743332,26.4637288 86.0437299,28.7681579 C86.0974923,28.8464688 86.1864084,28.8939024 86.2819936,28.8952632 L86.892926,28.8952632 C86.978964,28.8974513 87.0617903,28.862846 87.1202644,28.80028 C87.1787386,28.737714 87.2072029,28.6532407 87.1983923,28.5684211 L86.8135048,24.6281579 Z" id="Shape" fill="#000000"></path>
                    <path d="M34.0228296,25.9113158 C27.803537,25.9113158 23.6675241,30.3055263 23.6675241,35.7226316 C23.6675241,41.1397368 27.803537,45.5278947 34.0228296,45.5278947 C40.2421222,45.5278947 44.4086817,41.1397368 44.4086817,35.7226316 C44.4086817,30.3055263 40.5842444,25.9113158 34.0228296,25.9113158 Z M34.0228296,43.3489474 C30.7054662,43.3489474 28.011254,40.135 28.011254,35.7226316 C28.011254,31.0923684 30.7054662,28.0963158 34.0228296,28.0963158 C37.3401929,28.0963158 40.0344051,30.9592105 40.0344051,35.7226316 C40.0344051,40.4860526 37.3463023,43.3731579 34.0228296,43.3731579 L34.0228296,43.3489474 Z" id="Shape" fill="#000000"></path>
                    <path d="M106.161736,45.2797368 C106.252179,45.2794084 106.337824,45.23939 106.395608,45.1704589 C106.453393,45.1015278 106.477374,45.0107716 106.461093,44.9226316 C106.322327,44.2270221 106.254782,43.5193127 106.259486,42.8102632 L106.259486,29.2705263 C106.259486,28.9921053 106.259486,27.3397368 106.326688,26.5407895 C106.339178,26.4550931 106.313244,26.3682687 106.255693,26.3031068 C106.198142,26.2379449 106.114723,26.2009534 106.027331,26.2018421 L102.343408,26.2018421 C102.250345,26.201427 102.162167,26.2430654 102.103885,26.3149469 C102.045604,26.3868283 102.023576,26.4811112 102.044051,26.5710526 C102.213308,27.4996116 102.293088,28.4420082 102.282315,29.3855263 L102.282315,34.8328947 L93.9003215,34.8328947 C93.9003215,34.8328947 93.9003215,31.3647368 93.9003215,29.3007895 C93.9003215,29.0223684 93.8697749,27.37 93.9675241,26.5710526 C93.9780609,26.4847089 93.9505926,26.3980476 93.8921249,26.3331715 C93.8336573,26.2682955 93.7498427,26.2314765 93.6620579,26.2321053 L89.9536977,26.2321053 C89.8608604,26.2311803 89.7728442,26.2729829 89.7154315,26.3452677 C89.6580189,26.4175525 89.6377086,26.5121374 89.6604502,26.6013158 C89.8253412,27.5303651 89.9030577,28.4725439 89.8926045,29.4157895 C89.8926045,34.0097368 89.8926045,43.2218421 89.8926045,45.0013158 C89.8926045,45.1651118 90.0266312,45.2978947 90.1919614,45.2978947 L93.7903537,45.2978947 C93.8804986,45.2979517 93.96587,45.2577607 94.0227593,45.1884831 C94.0796487,45.1192055 94.1019982,45.0282183 94.0836013,44.9407895 C93.9479488,44.2447339 93.8804332,43.5373305 93.8819936,42.8284211 L93.8819936,37.0360526 L102.23955,37.0360526 L102.23955,45.0013158 C102.239533,45.0810334 102.27191,45.1574014 102.329378,45.213198 C102.386847,45.2689947 102.464569,45.2995216 102.545016,45.2978947 L106.161736,45.2797368 Z" id="Shape" fill="#000000"></path>
                </g>
            </g>
        </g>
    </g>
</svg>