<?xml version="1.0" encoding="UTF-8"?>
<svg width="19px" height="16px" viewBox="0 0 19 16" version="1.1" xmlns="http://www.w3.org/2000/svg" xmlns:xlink="http://www.w3.org/1999/xlink">
    <!-- Generator: Sketch 53.1 (72631) - https://sketchapp.com -->
    <title>Group 3</title>
    <desc>Created with Sketch.</desc>
    <g id="Symbols" stroke="none" stroke-width="1" fill="none" fill-rule="evenodd">
        <g id="footer" transform="translate(-1203.000000, -83.000000)" fill="#61AAFF" fill-rule="nonzero">
            <g id="Group-4">
                <g transform="translate(380.000000, 80.000000)">
                    <g id="Group-7" transform="translate(724.000000, 3.000000)">
                        <g id="Group-3" transform="translate(99.000000, 0.000000)">
                            <path d="M6.20666667,15.3680556 C6.20666667,15.7638889 5.99539085,16 5.69579416,16 C5.59015625,16 5.47239583,15.9704862 5.34770833,15.9079862 L0.51606793,13.4548613 C0.232057513,13.310764 0,12.9288196 0,12.6076391 L0,0.583333333 C0,0.265624889 0.16798166,0.0781248889 0.408697917,0.0781248889 C0.493554577,0.0781248889 0.588802083,0.100694667 0.68751291,0.151041778 L0.857226673,0.237847111 C0.857226673,0.237847111 0.858958333,0.237847111 0.858958333,0.237847111 L6.18415376,2.94097244 C6.1928125,2.94618044 6.19973958,2.95486133 6.20666667,2.96180578 L6.20666667,15.3680556 Z M11.7864325,0.836805778 L12.1120054,0.300347111 C12.2280337,0.109375111 12.4410417,0 12.6575129,0 C12.7077346,0 12.7596875,0.00694444444 12.8099087,0.0208333333 C12.8480079,0.0295137778 12.8878388,0.0434026667 12.9294013,0.064236 L18.5455337,2.91493067 C18.5472658,2.91493067 18.5472658,2.91666667 18.5472658,2.91666667 L18.5524608,2.91840267 C18.5559246,2.92013911 18.5559246,2.92534711 18.5593879,2.92708356 C18.5870962,2.94965289 18.5992188,2.98784711 18.5801692,3.01909733 L12.9865496,12.248264 L12.415065,13.189236 L8.70907541,5.91319467 L11.7864325,0.836805778 Z M7.09333333,10.4913196 L7.09333333,4.69444444 L11.0746746,12.5138889 L7.49337251,10.6961804 L7.09333333,10.4913196 Z M18.62,15.3680556 C18.62,15.7395836 18.400065,15.9513889 18.0762242,15.9513889 C17.9307554,15.9513889 17.7645054,15.9097222 17.5895962,15.8211804 L16.7877867,15.4131947 L13.2064846,13.5954862 L18.62,4.66493067 L18.62,15.3680556 Z" id="Shape"></path>
                        </g>
                    </g>
                </g>
            </g>
        </g>
    </g>
</svg>