<?xml version="1.0" encoding="UTF-8"?>
<svg width="197px" height="41px" viewBox="0 0 197 41" version="1.1" xmlns="http://www.w3.org/2000/svg" xmlns:xlink="http://www.w3.org/1999/xlink">
    <!-- Generator: Sketch 53.1 (72631) - https://sketchapp.com -->
    <title>Page 1</title>
    <desc>Created with Sketch.</desc>
    <defs>
        <polygon id="path-1" points="0 0.249678584 29.9102961 0.249678584 29.9102961 40 0 40"></polygon>
        <polygon id="path-3" points="0.11262274 0.253178571 15.7117585 0.253178571 15.7117585 16.8844684 0.11262274 16.8844684"></polygon>
        <polygon id="path-5" points="0.272454286 0.0505507476 10.6916857 0.0505507476 10.6916857 15.7187925 0.272454286 15.7187925"></polygon>
    </defs>
    <g id="Desktop" stroke="none" stroke-width="1" fill="none" fill-rule="evenodd">
        <g id="01" transform="translate(-720.000000, -4958.000000)">
            <g id="Group-4" transform="translate(359.000000, 4782.000000)">
                <g id="Group-3" transform="translate(130.000000, 164.000000)">
                    <g id="Page-1" transform="translate(231.000000, 12.000000)">
                        <path d="M16,40.8977364 C17.7891535,37.9067736 19.5468046,34.9706822 21.3029114,32.0330049 C27.3177163,21.971254 33.3325211,11.9091858 39.3451641,1.84584902 C40.0153631,0.724317278 40.4452788,0.717022247 41.0938586,1.83030743 C42.6455083,4.49457966 44.1848042,7.16646409 45.7645591,9.81297451 C46.0576554,10.3039618 46.0903933,10.6512687 45.7874139,11.1543087 C39.9051046,20.9258443 34.0431792,30.710384 28.1590168,40.4812853 C28.0150939,40.7201182 27.6676405,40.9751272 27.4128413,40.9773474 C23.6881406,41.0090649 19.9625133,40.9989153 16.2371949,40.9966951 C16.1933385,40.9966951 16.1491733,40.9611714 16,40.8977364" id="Fill-1" fill="#61AAFF"></path>
                        <g id="Group-5" transform="translate(0.000000, 1.000000)">
                            <mask id="mask-2" fill="white">
                                <use xlink:href="#path-1"></use>
                            </mask>
                            <g id="Clip-4"></g>
                            <path d="M5.89184211,39.9930709 C4.35868421,39.9924409 2.82489474,39.984252 1.29142105,39.9971654 C0.767842105,40.0015748 0.174789474,40.0062992 0.0326842105,39.4371654 C-0.0645789474,39.0462992 0.0655263158,38.503622 0.284684211,38.144252 C3.43878947,32.9729134 6.62731579,27.8220472 9.80415789,22.664252 C14.2135263,15.5051969 18.6187895,8.34330709 23.0291053,1.18456693 C23.8053158,-0.0752755906 24.1454211,-0.0639370079 24.9251053,1.23149606 C26.5286842,3.89543307 28.1202632,6.56629921 29.7396316,9.22047244 C29.9625789,9.58614173 29.9714211,9.8296063 29.7405789,10.2028346 C23.6894211,19.9722835 17.6575263,29.7533858 11.5981579,39.5174803 C11.4468947,39.7615748 11.0294211,39.9647244 10.7297368,39.9732283 C9.11826316,40.0173228 7.50457895,39.9940157 5.89184211,39.9930709" id="Fill-3" fill="#61AAFF" mask="url(#mask-2)"></path>
                        </g>
                        <path d="M34,41 C39.3877368,32.262917 44.6787674,23.6819883 50.0323726,15 C50.489989,15.7552703 50.8922994,16.418926 51.2939778,17.0832112 C52.7793347,19.5420113 54.2567906,22.0055337 55.7579491,24.4548889 C56.0117239,24.8692014 56.0104598,25.1733245 55.7437276,25.594878 C54.4925515,27.5745111 53.2830918,29.5802749 51.9901993,31.6880426 C52.3289871,31.7100805 52.5723328,31.7390446 52.8153625,31.7393594 C55.0117944,31.7431374 57.2088583,31.754786 59.4052902,31.7311739 C59.905571,31.7258219 60.2206563,31.8448265 60.4918129,32.3044742 C61.8583412,34.6178241 63.2735386,36.9022098 64.6552365,39.2067446 C65.3530381,40.3706605 64.9816989,40.9990555 63.6309723,40.9987407 C54.0501048,40.9987407 44.4692373,40.9993703 34.8886858,41 L34,41 Z" id="Fill-6" fill="#61AAFF"></path>
                        <path d="M82.4911632,16.848298 L82.4911632,7.22362907 L82.2057058,7.16887219 C81.0727297,10.0223481 79.8774721,12.8528811 78.8406662,15.7409242 C78.4730825,16.7653979 77.9546796,17.0095095 76.957563,16.9997206 C75.9476237,16.9896258 75.3217545,16.8394267 74.9257777,15.7256289 C73.9933851,13.1046404 72.8756742,10.5497272 71.8275722,7.97034161 C71.7219377,7.70940519 71.5799722,7.46345809 71.2322331,7.2465719 L71.2322331,16.8519688 L68,16.8519688 L68,1.04007833 C69.3637844,1.04007833 70.7208521,0.972779373 72.0626548,1.08810532 C72.3926863,1.11655442 72.7859154,1.69349005 72.9565793,2.09973104 C74.2501442,5.18263518 75.496082,8.28572901 76.9102412,11.7598848 C77.5290885,10.2441287 78.0325316,9.06027885 78.497812,7.86113375 C79.2509922,5.91864107 79.9220462,3.94158119 80.7582686,2.03671474 C80.9570203,1.58458809 81.647003,1.13246145 82.1550256,1.07586914 C83.3963839,0.937600372 84.6630822,1.0305953 86,1.0305953 L86,16.848298 L82.4911632,16.848298 Z" id="Fill-8" fill="#61AAFF"></path>
                        <path d="M125,16.7819678 C122.351486,17.3931542 120.621774,16.7691329 119.410074,14.2764094 C118.178164,11.7402917 116.399325,9.46087222 114.483676,7.12736277 L114.483676,11.8906435 L114.483676,16.8360578 L111,16.8360578 L111,1.02802867 C112.26176,1.02802867 113.543108,0.939712241 114.798961,1.07661798 C115.228357,1.12337374 115.696309,1.67160789 115.971483,2.09943832 C117.711767,4.80393789 119.402612,7.53930236 121.366455,10.6743827 L121.366455,1.13345831 L125,1.13345831 L125,16.7819678 Z" id="Fill-10" fill="#61AAFF"></path>
                        <g id="Group-14" transform="translate(165.000000, 0.000000)">
                            <mask id="mask-4" fill="white">
                                <use xlink:href="#path-3"></use>
                            </mask>
                            <g id="Clip-13"></g>
                            <path d="M15.7117585,5.15109107 C14.6101736,5.53844821 13.5789283,5.9009125 12.5799849,6.25214464 C10.6488151,3.65873393 8.82028679,2.97751964 6.55643774,3.94469821 C4.49515472,4.82535893 3.33319245,7.0696625 3.72111698,9.42143036 C4.14496604,11.9905554 5.76428679,13.5078054 8.26421132,13.6781089 C10.1679094,13.8074304 11.6550038,12.8645375 12.2361358,11.0619304 L7.7824,11.0619304 L7.7824,8.17557321 L15.6525887,8.17557321 L15.6525887,16.4093411 L12.8833811,16.4093411 C12.8233057,16.0414125 12.7614189,15.6604304 12.6723623,15.1146089 C10.1340981,17.2556982 7.39296604,17.3158054 4.60081509,16.0341268 C1.71779623,14.7102518 0.407909434,12.2227875 0.143154717,9.17280536 C-0.209449057,5.11071607 2.53047547,1.3725375 6.37107925,0.511001786 C10.5971925,-0.436748214 14.1014943,1.25475179 15.7117585,5.15109107" id="Fill-12" fill="#61AAFF" mask="url(#mask-4)"></path>
                        </g>
                        <path d="M97.5207631,3.50276732 C94.7090955,3.49963594 92.7467146,5.5494406 92.7345819,8.50264984 C92.7227604,11.3550285 94.8282445,13.5272703 97.5789376,13.5009667 C100.195549,13.4759156 102.270546,11.2851986 102.293567,8.52331699 C102.317521,5.61488654 100.312521,3.50589871 97.5207631,3.50276732 M97.5083193,16.9999763 C92.6378317,16.9893296 89.0499846,13.4364601 89.0005207,8.57498484 C88.9501235,3.64023513 92.5634802,0.000626277011 97.5142301,0 C102.44227,-0.000626277011 106.01674,3.61424463 105.999941,8.58312644 C105.983764,13.4280054 102.369474,17.010623 97.5083193,16.9999763" id="Fill-15" fill="#61AAFF"></path>
                        <path d="M154.88238,10.4812891 C154.241915,8.67100076 153.643372,6.97894028 152.901008,4.88100469 C152.162928,7.03409299 151.589171,8.70756608 150.981449,10.4812891 L154.88238,10.4812891 Z M161,16.9170912 C160.361371,16.9170912 159.999063,16.8701657 159.652973,16.924709 C157.855509,17.2090044 156.64955,16.7333505 156.330082,14.7198198 C156.268269,14.3300944 155.558341,13.7846616 155.119227,13.7575423 C153.348385,13.6472369 151.566527,13.7118357 149.834854,13.7118357 C148.370321,17.1492811 148.370321,17.1492811 145,16.7839325 C145.401782,15.6692995 145.778779,14.5839187 146.182703,13.5085934 C147.587871,9.76887468 149.045059,6.04713389 150.385354,2.28456182 C150.744296,1.27718708 151.25318,0.898431243 152.271559,1.02884757 C152.722302,1.08643796 153.194465,1.09222747 153.643984,1.02884757 C154.739782,0.874663781 155.228776,1.34056698 155.60057,2.3778034 C157.322757,7.18096371 159.144395,11.9490823 161,16.9170912 L161,16.9170912 Z" id="Fill-17" fill="#61AAFF"></path>
                        <g id="Group-21" transform="translate(186.000000, 1.000000)">
                            <mask id="mask-6" fill="white">
                                <use xlink:href="#path-5"></use>
                            </mask>
                            <g id="Clip-20"></g>
                            <path d="M9.89148286,9.47788679 L3.90905429,9.47788679 L3.90905429,12.5257358 L10.5860543,12.5257358 L10.5860543,15.7187925 L0.272454286,15.7187925 L0.272454286,0.080754717 C1.39414,0.080754717 2.51614,0.0813584906 3.63845429,0.080754717 C5.57476857,0.0795471698 7.51422571,0.140830189 9.44614,0.0538867925 C10.77494,-0.00618867925 10.7211971,0.754264151 10.6734257,1.59592453 C10.6284829,2.38958491 11.0012257,3.39215094 9.48448286,3.33388679 C7.66665429,3.26445283 5.84411143,3.31758491 3.92508286,3.31758491 L3.92508286,6.37207547 L9.89148286,6.37207547 L9.89148286,9.47788679 Z" id="Fill-19" fill="#61AAFF" mask="url(#mask-6)"></path>
                        </g>
                        <polygon id="Fill-22" fill="#61AAFF" points="135.146821 4.28344848 130 4.28344848 130 1 144 1 144 4.19719763 138.908855 4.19719763 138.908855 17 135.146821 17"></polygon>
                        <path d="M97,39.7142814 L97,29.2008291 C98.3843041,28.7850588 99.3997302,28.9401078 100.197876,30.3814656 C101.369258,32.4964845 102.753563,34.4910496 104.273278,36.8941513 L104.273278,29.1121398 C104.901148,29.0781737 105.392674,29.0514411 106,29.0184185 L106,39.8372513 C104.72527,40.238869 103.861753,39.908014 103.15606,38.7239179 C101.931447,36.6683397 100.56084,34.7017652 98.9810459,32.2845109 C98.9228348,33.4035053 98.8621334,34.1183659 98.8527947,34.8338556 C98.8375415,36.0368218 98.79614,37.2438764 98.8739624,38.441496 C98.9701508,39.930658 98.2709947,40.1231326 97,39.7142814" id="Fill-24" fill="#61AAFF"></path>
                        <path d="M146.988061,34.148298 C148.298184,33.6856552 149.364183,33.4375944 150.249843,32.9124581 C150.490294,32.7696159 150.375746,31.3880643 150.096556,31.26786 C149.183511,30.8747252 148.11985,30.8010722 146.988061,30.5801132 L146.988061,34.148298 Z M150.389105,35.3882829 C151.274097,36.8658066 152.113004,38.2668078 153,39.7484765 C151.46412,40.3153814 150.565435,39.9142755 149.957295,38.6433627 C149.567564,37.8287159 149.094344,37.0357506 148.544312,36.3116555 C148.258109,35.9351006 147.724442,35.7294461 146.934627,35.199846 L146.934627,39.8852607 C146.243665,39.9219277 145.712336,39.9503049 145,39.9879285 L145,29.0445598 C146.757629,29.0445598 148.578376,28.9202106 150.369401,29.0869661 C151.607723,29.2027065 152.415237,30.0565711 152.612607,31.321107 C152.923857,33.3189844 152.524108,34.1326746 150.389105,35.3882829 L150.389105,35.3882829 Z" id="Fill-26" fill="#61AAFF"></path>
                        <path d="M135.221186,29 L136.998696,29 C136.998696,31.8576178 137.006314,34.6867782 136.984729,37.5159387 C136.982825,37.7536044 136.806026,38.0040916 136.669856,38.2245578 C135.752852,39.711845 133.085317,40.4004502 130.755192,39.7612545 C128.940545,39.2634073 128.046394,38.0972816 128.017192,36.0614869 C127.983864,33.7773941 128.009257,31.4923631 128.009257,29.0838084 L130.143221,29.0838084 C130.143221,31.1167887 130.136555,33.2232576 130.145125,35.3297266 C130.153061,37.3673976 130.724086,38.0134731 132.513657,38.0444322 C134.323226,38.0763295 135.147546,37.3129846 135.206902,35.3619366 C135.270067,33.2933065 135.221186,31.2209238 135.221186,29" id="Fill-28" fill="#61AAFF"></path>
                        <path d="M160,40 L160,29 L165.761541,29 L165.761541,30.5861764 L161.940854,30.5861764 L161.940854,33.3309822 L165.071191,33.3309822 C165.100436,34.0455082 165.122651,34.5908984 165.151896,35.3135403 L161.91414,35.3135403 L161.91414,38.2109255 L166,38.2109255 L166,40 L160,40 Z" id="Fill-30" fill="#61AAFF"></path>
                        <path d="M172,39.3869618 C172.531845,38.3784483 172.814772,37.8414797 173.065794,37.3656143 C174.287601,37.6705138 175.377586,38.067994 176.501928,38.1685985 C177.05516,38.2179749 177.672198,37.71773 178.260138,37.4662188 C177.958981,36.9715287 177.789646,36.3265492 177.32897,36.0130089 C176.371509,35.3609314 175.245063,34.9045081 174.214678,34.3301986 C173.031086,33.6704061 172.181606,32.6282549 172.764637,31.5046326 C173.233727,30.6004268 174.305481,29.6986898 175.354096,29.3203429 C177.205913,28.6519096 179.122239,29.1064813 181,29.9755064 C180.712516,30.5519761 180.444665,31.0886362 180.215379,31.5484541 C178.961669,31.367613 177.835223,31.1188792 176.700362,31.0849329 C176.250555,31.071663 175.529391,31.460811 175.398621,31.8045944 C175.28538,32.1027045 175.721164,32.7282421 176.107164,32.9754329 C177.136496,33.6349168 178.286432,34.14658 179.358186,34.7576132 C180.806825,35.583434 181.024892,36.8446931 180.599275,38.1590318 C180.205212,39.3764693 179.031787,40.0344102 177.675003,39.9986123 C175.877878,39.9510875 174.089868,39.6264375 172,39.3869618" id="Fill-32" fill="#61AAFF"></path>
                        <polygon id="Fill-34" fill="#61AAFF" points="84 29 89.7151051 29 89.7151051 30.6740043 85.7883503 30.6740043 85.7883503 33.450882 88.9303747 33.450882 88.9303747 35.2888967 85.8247379 35.2888967 85.8247379 38.2242963 90 38.2242963 90 40 84 40"></polygon>
                        <path d="M68,29.1774715 C69.6562877,28.7140914 70.5385027,29.1379034 70.9707379,30.6878619 C71.4900228,32.5509653 72.2892058,34.3472974 73.1128298,36.5658959 C73.9076604,34.3055654 74.5528325,32.4675012 75.2000134,30.6297462 C75.8003214,28.9252246 75.8013258,28.9255337 78,29.1515049 C76.6688094,32.5336542 75.363399,35.9003472 73.9967189,39.2450923 C73.8587786,39.5823489 73.351212,39.9968871 73.0113834,39.9999784 C72.6661979,40.0033788 72.1318468,39.6052243 71.9962502,39.2729136 C70.626222,35.9188948 69.3211464,32.5420006 68,29.1774715" id="Fill-36" fill="#61AAFF"></path>
                        <path d="M122,29 L122,30.6028282 C120.968098,30.6482642 119.947772,30.693378 118.662855,30.7500924 C118.662855,33.2941874 118.667816,35.7864015 118.660871,38.2782934 C118.656241,40.1257027 118.649295,40.1257027 116.547456,39.8956224 L116.547456,31.0768451 C115.446099,29.9599568 112.907356,31.9813764 113.002608,29 L122,29 Z" id="Fill-38" fill="#61AAFF"></path>
                    </g>
                </g>
            </g>
        </g>
    </g>
</svg>